<svg xmlns="http://www.w3.org/2000/svg" width="27.859" height="27.858" viewBox="0 0 27.859 27.858">
  <path id="Icon_awesome-copyright" data-name="Icon awesome-copyright" d="M14.492.563A13.929,13.929,0,1,0,28.421,14.492,13.929,13.929,0,0,0,14.492.563Zm6.579,19.476a8.385,8.385,0,0,1-6.17,2.569,7.913,7.913,0,0,1-8.115-8.176A7.909,7.909,0,0,1,14.86,6.377a8.089,8.089,0,0,1,5.809,2.185.674.674,0,0,1,.07.821l-1.257,1.946a.674.674,0,0,1-1.024.129,5.714,5.714,0,0,0-3.476-1.341A4.02,4.02,0,0,0,10.83,14.39,4.2,4.2,0,0,0,15,18.866a5.507,5.507,0,0,0,3.681-1.608.674.674,0,0,1,1.04.059L21.1,19.2a.674.674,0,0,1-.031.835Z" transform="translate(-0.563 -0.563)" fill="#103396"/>
</svg>
