<svg xmlns="http://www.w3.org/2000/svg" width="92" height="92" viewBox="0 0 92 92">
  <g id="Group_138" data-name="Group 138" transform="translate(-296 -714)">
    <g id="Group_122" data-name="Group 122" transform="translate(-268 85)">
      <circle id="Ellipse_86" data-name="Ellipse 86" cx="46" cy="46" r="46" transform="translate(564 629)" fill="#3480e3"/>
    </g>
    <g id="icons_Q2" data-name="icons Q2" transform="translate(319.528 737.528)">
      <path id="Path_484" data-name="Path 484" d="M47.016,44.752H8.528V37.62l.453-.34L19.848,26.413l6.905,6.905L42.488,17.7v5.434a2.377,2.377,0,0,0,1.924,2.377,2.264,2.264,0,0,0,2.6-2.264V11.924A2.264,2.264,0,0,0,44.752,9.66H33.432a2.264,2.264,0,0,0-2.264,2.6,2.377,2.377,0,0,0,2.377,1.924h5.886L26.527,26.64l-6.679-6.566L8.528,31.394V6.264A2.264,2.264,0,0,0,4,6.264V49.28H47.016a2.264,2.264,0,0,0,0-4.528Z" transform="translate(-4 -4)" fill="#d6e6fa"/>
    </g>
  </g>
</svg>
