<svg xmlns="http://www.w3.org/2000/svg" width="92" height="92" viewBox="0 0 92 92">
  <g id="Group_137" data-name="Group 137" transform="translate(-296 -592)">
    <g id="Group_121" data-name="Group 121" transform="translate(-537 166)">
      <g id="Group_126" data-name="Group 126" transform="translate(0 -44)">
        <circle id="Ellipse_87" data-name="Ellipse 87" cx="46" cy="46" r="46" transform="translate(833 470)" fill="#3480e3"/>
      </g>
    </g>
    <g id="Layer_2" data-name="Layer 2" transform="translate(318 614)">
      <g id="invisible_box" data-name="invisible box">
        <rect id="Rectangle_155" data-name="Rectangle 155" width="48" height="48" fill="none"/>
      </g>
      <g id="icons_Q2" data-name="icons Q2">
        <g id="Group_127" data-name="Group 127">
          <circle id="Ellipse_91" data-name="Ellipse 91" cx="2" cy="2" r="2" transform="translate(36 34)" fill="#d6e6fa"/>
          <circle id="Ellipse_92" data-name="Ellipse 92" cx="2" cy="2" r="2" transform="translate(30 34)" fill="#d6e6fa"/>
          <circle id="Ellipse_93" data-name="Ellipse 93" cx="2" cy="2" r="2" transform="translate(36 22)" fill="#d6e6fa"/>
          <circle id="Ellipse_94" data-name="Ellipse 94" cx="2" cy="2" r="2" transform="translate(30 22)" fill="#d6e6fa"/>
          <path id="Path_482" data-name="Path 482" d="M44,4H4A2,2,0,0,0,2,6V18a2,2,0,0,0,2,2H42v8H28a2,2,0,0,0,0,4H42v8H28a2,2,0,0,0,0,4H44a2,2,0,0,0,2-2V6A2,2,0,0,0,44,4ZM6,16V8H42v8Z" fill="#d6e6fa"/>
          <circle id="Ellipse_95" data-name="Ellipse 95" cx="2" cy="2" r="2" transform="translate(36 10)" fill="#d6e6fa"/>
          <circle id="Ellipse_96" data-name="Ellipse 96" cx="2" cy="2" r="2" transform="translate(30 10)" fill="#d6e6fa"/>
          <path id="Path_483" data-name="Path 483" d="M19.6,26.6,9,37.2,6.4,34.6a1.9,1.9,0,0,0-3,.2,2.1,2.1,0,0,0,.2,2.7l4,3.9a1.9,1.9,0,0,0,2.8,0l12-12a2,2,0,0,0-2.8-2.8Z" fill="#d6e6fa"/>
        </g>
      </g>
    </g>
  </g>
</svg>
