<svg xmlns="http://www.w3.org/2000/svg" width="92" height="92" viewBox="0 0 92 92">
  <g id="Group_136" data-name="Group 136" transform="translate(-296 -470)">
    <g id="Group_125" data-name="Group 125">
      <circle id="Ellipse_88" data-name="Ellipse 88" cx="46" cy="46" r="46" transform="translate(296 470)" fill="#3480e3"/>
    </g>
    <g id="Layer_2" data-name="Layer 2" transform="translate(316 489)">
      <g id="invisible_box" data-name="invisible box">
        <rect id="Rectangle_152" data-name="Rectangle 152" width="54" height="54" fill="none"/>
        <rect id="Rectangle_153" data-name="Rectangle 153" width="54" height="54" fill="none"/>
        <rect id="Rectangle_154" data-name="Rectangle 154" width="54" height="54" fill="none"/>
      </g>
      <g id="icons_Q2" data-name="icons Q2" transform="translate(4.545 2.261)">
        <path id="Path_481" data-name="Path 481" d="M44.7,20.09a7.01,7.01,0,0,0-6.445,4.523h-9.61a11.193,11.193,0,0,0-1.7-3.731l3.957-4.636a8.819,8.819,0,0,0,2.487.452A6.784,6.784,0,1,0,26.61,9.914a6.9,6.9,0,0,0,.9,3.392l-4.07,4.636A9.61,9.61,0,0,0,18.7,16.7l-1.922.226-1.357-3.166a6.784,6.784,0,1,0-4.636,1.809h.452l1.47,3.166a10.063,10.063,0,0,0,0,16.281l-1.47,3.166h-.452a6.784,6.784,0,1,0,4.636,1.809l1.357-3.166,1.922.226a9.61,9.61,0,0,0,4.749-1.244l4.07,4.636a6.9,6.9,0,0,0-.9,3.392,6.784,6.784,0,1,0,6.784-6.784,8.819,8.819,0,0,0-2.487.452l-3.957-4.636a11.193,11.193,0,0,0,1.7-3.731h9.61A7.01,7.01,0,0,0,44.7,33.658a6.784,6.784,0,0,0,0-13.568ZM8.52,8.784a2.261,2.261,0,1,1,2.261,2.261A2.261,2.261,0,0,1,8.52,8.784Zm2.261,38.441a2.261,2.261,0,1,1,2.261-2.261A2.261,2.261,0,0,1,10.781,47.225ZM33.394,7.653a2.261,2.261,0,1,1-2.261,2.261A2.261,2.261,0,0,1,33.394,7.653ZM13.042,26.874A5.653,5.653,0,1,1,18.7,32.527,5.653,5.653,0,0,1,13.042,26.874ZM35.655,43.833a2.261,2.261,0,1,1-2.261-2.261A2.261,2.261,0,0,1,35.655,43.833Zm9.045-14.7a2.261,2.261,0,1,1,2.261-2.261A2.261,2.261,0,0,1,44.7,29.135Z" transform="translate(-4.02 -1.999)" fill="#d6e6fa"/>
      </g>
    </g>
  </g>
</svg>
