<svg xmlns="http://www.w3.org/2000/svg" width="1310.039" height="1147" viewBox="0 0 1310.039 1147">
  <path id="blob3" d="M696.947,312.694C726.2,332.45,804.109,456.3,776.483,530.126c-28.438,73.828,467.761,243.1,228.386,338.844-13,33.275,307.887,100.891,205.829,202.846-324.735,234.939-1472.635-150.1-931.721-150.1C262.726,990.346,641.022,948,544.33,980.23c-96.692,31.2-337.436-13.281-400.814-46.555-63.378-34.315,56.437,122.7-15.066,0-71.5-123.741-198.258-217.326-207.2-317.15C-87.684,515.66,21.2,408.557,81.324,260.9,142.264,114.283,221.961-9.928,294.277,1.51,367.4,12.948,431.526,160.036,531.468,233.864,631.409,306.653,667.7,291.9,696.947,312.694Z" transform="translate(79.264 -0.778)" fill="#3480e3"/>
</svg>
