<svg xmlns="http://www.w3.org/2000/svg" width="1032.598" height="1241.238" viewBox="0 0 1032.598 1241.238">
  <path id="blob4" d="M677.888-49.664c61.169,15.107,92.433,186.771,106.706,346.076,14.952,160.678,12.913,307.623-30.584,395.515-42.818,86.519-126.416,115.359-186.226,100.252-59.13-13.733-94.472-71.412-118.94-56.306S410.1,837.5,360.489,919.9c-48.935,82.4-133.212,160.678-235.161,146.945C24.06,1051.736-94.88,943.244-72.451,833.379-50.7,723.513,112.415,610.9,203.489,527.129c91.753-83.772,112.143-138.7,139.329-185.4,26.507-46.693,59.81-85.146,121.658-174.411C526.325,76.681,616.719-64.77,677.888-49.664Z" transform="translate(82.223 174.209) rotate(-9)" fill="#3480e3" opacity="0.2"/>
</svg>
