<svg xmlns="http://www.w3.org/2000/svg" width="1431.343" height="1193.623" viewBox="0 0 1431.343 1193.623">
  <path id="blob2" d="M765.5-16.815C824.013-1.063,885.4,22.564,970.769,61.942S1164.526,156.45,1160.689,210c-4.8,53.554-122.776,104.746-211.981,139.4-88.245,34.653-147.715,52.767-201.43,157.513-53.715,105.534-102.633,296.912-174.573,329.2-70.98,32.29-164.981-95.3-170.736-222.881-6.714-127.586,74.817-255.171-11.51-322.114S50.905,218.667-34.462,172.2s-1.918-133.1,119.9-148.85C208.213,7.6,368.4,62.73,459.521,62.73c92.082,0,114.144-54.342,152.511-77.969C651.359-39.654,706.992-31.778,765.5-16.815Z" transform="translate(75.336 368.919) rotate(-17)" fill="#3480e3" opacity="0.2"/>
</svg>
