<svg xmlns="http://www.w3.org/2000/svg" width="1407.704" height="776.79" viewBox="0 0 1407.704 776.79">
  <path id="blob2" d="M846.762-24.439C910.968-17.222,978.331-6.4,1072.008,11.648s212.616,43.3,208.406,67.843c-5.263,24.539-134.727,48-232.615,63.873-96.835,15.878-162.093,24.178-221.036,72.173C767.82,263.893,714.14,351.584,635.2,366.379c-77.889,14.8-181.039-43.665-187.355-102.125-7.368-58.46,82.1-116.921-12.631-147.594S62.609,83.46-31.068,62.169-33.173,1.183,100.5-6.035C235.228-13.252,411,12.009,511,12.009c101.045,0,125.254-24.9,167.356-35.726C721.508-34.9,782.556-31.3,846.762-24.439Z" transform="translate(75.336 403.926) rotate(-17)" fill="#3480e3" opacity="0.2"/>
</svg>
