<svg xmlns="http://www.w3.org/2000/svg" width="37" height="37" viewBox="0 0 37 37">
  <g id="Layer_2" data-name="Layer 2" opacity="0.7">
    <g id="invisible_box" data-name="invisible box">
      <rect id="Rectangle_39" data-name="Rectangle 39" width="37" height="37" fill="none"/>
    </g>
    <g id="icons_Q2" data-name="icons Q2" transform="translate(1.542 1.541)">
      <path id="Path_252" data-name="Path 252" d="M18.958,2A16.881,16.881,0,1,0,30.972,6.944,16.958,16.958,0,0,0,18.958,2Zm0,6.167a2.313,2.313,0,1,1-2.312,2.313,2.235,2.235,0,0,1,2.312-2.313Zm8.479,8.479h-5.4v3.7L23.583,27.9a1.619,1.619,0,0,1-1.233,1.85h-.308A1.619,1.619,0,0,1,20.5,28.517l-1.387-7.246H18.8l-1.388,7.246a1.619,1.619,0,0,1-1.542,1.233h-.308a1.619,1.619,0,0,1-1.233-1.85l1.542-7.554v-3.7h-5.4a1.542,1.542,0,0,1,0-3.083H27.438a1.542,1.542,0,0,1,0,3.083Z" transform="translate(-2 -2)" fill="#ef760e"/>
    </g>
  </g>
</svg>
