<svg xmlns="http://www.w3.org/2000/svg" xmlns:xlink="http://www.w3.org/1999/xlink" width="372" height="274.433" viewBox="0 0 372 274.433">
  <defs>
    <clipPath id="clip-path">
      <path id="Path_74" data-name="Path 74" d="M127.07,102.129H313V292.664H127.07Zm0,0" transform="translate(-127.07 -102.129)"/>
    </clipPath>
  </defs>
  <g id="data_warehouse_logo" data-name="data warehouse logo" transform="translate(-995.656 436.434)">
    <g id="surface1" transform="translate(1071 -436.433)">
      <g id="Group_11" data-name="Group 11" transform="translate(15.398 0)" clip-path="url(#clip-path)">
        <g id="Group_92" data-name="Group 92" transform="translate(0 0.029)">
          <path id="Path_73" data-name="Path 73" d="M303.134,177.261a85.5,85.5,0,0,0-83.123-65.447h-.1a85.533,85.533,0,0,0-82.949,65.447H127.07a94.941,94.941,0,0,1,92.8-75.113h.145A94.99,94.99,0,0,1,313,177.261ZM220.215,292.6A94.949,94.949,0,0,0,313,217.488h-9.864a85.438,85.438,0,0,1-82.949,65.391h-.151a85.491,85.491,0,0,1-83.1-65.391H127.07A95.045,95.045,0,0,0,220.077,292.6Zm76.615-95.346a76.8,76.8,0,1,1-76.922-76.7A76.8,76.8,0,0,1,296.83,197.254Zm-20.071-31.066L258.607,145.46a64.456,64.456,0,0,0-78.276.776l-17.269,20.39a64.808,64.808,0,0,0,.078,61.6l18.58,21.232a64.451,64.451,0,0,0,76.819-.126l18.345-20.961a64.825,64.825,0,0,0-.126-62.181Zm0,0" transform="translate(-127.07 -102.148)" fill="#103396"/>
          <circle id="Ellipse_27" data-name="Ellipse 27" cx="64.67" cy="64.67" r="64.67" transform="translate(28.27 30.766)" fill="#fff"/>
        </g>
      </g>
      <g id="Group_13" data-name="Group 13" transform="translate(11.76 207.614)">
        <g id="Group_12" data-name="Group 12" transform="translate(0 0)">
          <path id="Path_75" data-name="Path 75" d="M16.613,11.068A15.371,15.371,0,0,0,30.272,2.809L24.564-.144a8.772,8.772,0,0,1-7.952,4.752A8.78,8.78,0,0,1,7.705-4.348,8.783,8.783,0,0,1,16.613-13.3a8.777,8.777,0,0,1,7.952,4.758L30.272-11.5a15.371,15.371,0,0,0-13.659-8.258A15.417,15.417,0,0,0,1.2-4.348,15.418,15.418,0,0,0,16.613,11.068Zm0,0" transform="translate(-1.203 19.758)" fill="#ef760e"/>
        </g>
      </g>
      <g id="Group_15" data-name="Group 15" transform="translate(42.876 217.574)">
        <g id="Group_14" data-name="Group 14" transform="translate(0 0)">
          <path id="Path_76" data-name="Path 76" d="M22.769-2.884c0-6.255-4.3-10.406-10.754-10.406S1.008-9.085,1.008-2.835,5.513,7.576,12.213,7.576c5.558,0,9.257-2.953,10.255-7.308H16.315c-.547,1.6-2,2.55-4.2,2.55-2.905,0-4.4-1.75-4.655-4.6H22.769Zm-10.652-5.5a3.911,3.911,0,0,1,4.048,2.749H7.859A4.153,4.153,0,0,1,12.117-8.387Zm0,0" transform="translate(-1.008 13.289)" fill="#ef760e"/>
        </g>
      </g>
      <g id="Group_17" data-name="Group 17" transform="translate(68.291 217.623)">
        <g id="Group_16" data-name="Group 16" transform="translate(0 0)">
          <path id="Path_77" data-name="Path 77" d="M14.026-13.258a7.24,7.24,0,0,0-5.7,2.851v-2.448H1.918V7.156H8.324V-4.452A3.217,3.217,0,0,1,11.674-7.6a3.049,3.049,0,0,1,3.152,3.152V7.156h6.352V-5.5C21.177-9.908,17.977-13.258,14.026-13.258Zm0,0" transform="translate(-1.918 13.258)" fill="#ef760e"/>
        </g>
      </g>
      <g id="Group_19" data-name="Group 19" transform="translate(89.854 210.321)">
        <g id="Group_18" data-name="Group 18">
          <path id="Path_78" data-name="Path 78" d="M14.819-5.345V-10.3H10.061V-18H3.71v7.7H.359v4.95H3.71v7.9a7.713,7.713,0,0,0,7.855,7.561,6.761,6.761,0,0,0,3.2-.656V4.513h-2.4c-1.353,0-2.3-1.053-2.3-2.7V-5.345Zm0,0" transform="translate(-0.359 18)" fill="#ef760e"/>
        </g>
      </g>
      <g id="Group_21" data-name="Group 21" transform="translate(107.011 218.025)">
        <g id="Group_20" data-name="Group 20" transform="translate(0 0)">
          <path id="Path_79" data-name="Path 79" d="M11.032,7.418c6.051,0,9.407-3.158,9.407-8.06V-13H14.082V-1.49a3.054,3.054,0,0,1-3.049,3.254,3.045,3.045,0,0,1-3-3.254V-13H1.625V-.642C1.625,4.26,4.975,7.418,11.032,7.418Zm0,0" transform="translate(-1.625 12.996)" fill="#ef760e"/>
        </g>
      </g>
      <g id="Group_23" data-name="Group 23" transform="translate(130.525 217.623)">
        <g id="Group_22" data-name="Group 22" transform="translate(0 0)">
          <path id="Path_80" data-name="Path 80" d="M13.923-13.258a6.63,6.63,0,0,0-5.6,3.152v-2.749H1.918V7.156H8.324V-2.4c0-3.3,2.25-5.2,5.4-5.2a8.963,8.963,0,0,1,1.853.2v-5.654A5.543,5.543,0,0,0,13.923-13.258Zm0,0" transform="translate(-1.918 13.258)" fill="#ef760e"/>
        </g>
      </g>
      <g id="Group_25" data-name="Group 25" transform="translate(146.034 207.668)">
        <g id="Group_24" data-name="Group 24" transform="translate(0 0)">
          <path id="Path_81" data-name="Path 81" d="M5.29-12.722a3.543,3.543,0,0,0,3.5-3.5,3.512,3.512,0,0,0-3.5-3.5,3.512,3.512,0,0,0-3.5,3.5A3.543,3.543,0,0,0,5.29-12.722ZM2.084,10.646H8.441V-9.365H2.084Zm0,0" transform="translate(-1.789 19.723)" fill="#ef760e"/>
        </g>
      </g>
      <g id="Group_27" data-name="Group 27" transform="translate(156.538 217.623)">
        <g id="Group_26" data-name="Group 26" transform="translate(0 0)">
          <path id="Path_82" data-name="Path 82" d="M24.724,1.953c-.854,0-1.75-.3-1.75-1.955V-12.855H16.616v1.75a8.267,8.267,0,0,0-5.7-2.153A10.078,10.078,0,0,0,1.008-2.852,10.083,10.083,0,0,0,10.914,7.559a8.413,8.413,0,0,0,6.857-3.4,7.059,7.059,0,0,0,6.153,3.4,4.3,4.3,0,0,0,1.7-.4v-5.2ZM12.165,1.905A4.721,4.721,0,0,1,7.414-2.852,4.716,4.716,0,0,1,12.165-7.6a4.75,4.75,0,0,1,4.752,4.752A4.755,4.755,0,0,1,12.165,1.905Zm0,0" transform="translate(-1.008 13.258)" fill="#ef760e"/>
        </g>
      </g>
      <g id="Group_29" data-name="Group 29" transform="translate(184.054 217.623)">
        <g id="Group_28" data-name="Group 28" transform="translate(0 0)">
          <path id="Path_83" data-name="Path 83" d="M14.026-13.258a7.24,7.24,0,0,0-5.7,2.851v-2.448H1.918V7.156H8.324V-4.452A3.217,3.217,0,0,1,11.674-7.6a3.049,3.049,0,0,1,3.152,3.152V7.156h6.352V-5.5C21.177-9.908,17.977-13.258,14.026-13.258Zm0,0" transform="translate(-1.918 13.258)" fill="#ef760e"/>
        </g>
      </g>
      <g id="Group_43" data-name="Group 43" transform="translate(64.806 264.059)">
        <g id="Group_42" data-name="Group 42">
          <path id="Path_90" data-name="Path 90"/>
        </g>
      </g>
      <g id="Group_57" data-name="Group 57" transform="translate(131.601 264.059)">
        <g id="Group_56" data-name="Group 56">
          <path id="Path_97" data-name="Path 97"/>
        </g>
      </g>
      <g id="Group_69" data-name="Group 69" transform="translate(188.585 264.059)">
        <g id="Group_68" data-name="Group 68">
          <path id="Path_103" data-name="Path 103"/>
        </g>
      </g>
      <g id="Group_97" data-name="Group 97" transform="translate(-7 206.291)">
        <text id="Building_warehouses_of_the_future" data-name="Building warehouses of the future" transform="translate(-68.344 34.143)" fill="#3480e3" font-size="20" font-family="SegoeUI, Segoe UI"><tspan x="0" y="22">BUILDING WAREHOUSES OF THE FUTURE</tspan></text>
      </g>
    </g>
    <g id="Group_96" data-name="Group 96" transform="translate(1134.131 -371.763)">
      <g id="Rectangle_14" data-name="Rectangle 14" transform="translate(0 29.256)" fill="#fff" stroke="#ef760e" stroke-width="2">
        <rect width="89.307" height="32.335" stroke="none"/>
        <rect x="1" y="1" width="87.307" height="30.335" fill="none"/>
      </g>
      <line id="Line_5" data-name="Line 5" y2="27.716" transform="translate(45.423 31.565)" fill="none" stroke="#ef760e" stroke-width="2"/>
      <g id="Rectangle_15" data-name="Rectangle 15" transform="translate(21.557 0)" fill="#fff" stroke="#ef760e" stroke-width="2">
        <rect width="46.193" height="32.335" stroke="none"/>
        <rect x="1" y="1" width="44.193" height="30.335" fill="none"/>
      </g>
      <g id="Group_93" data-name="Group 93" transform="translate(17.707 31.565)">
        <path id="Path_117" data-name="Path 117" d="M0,0V15.83" fill="none" stroke="#ef760e" stroke-width="1"/>
        <path id="Path_116" data-name="Path 116" d="M0,0V15.121" transform="translate(10.778 0.77)" fill="none" stroke="#ef760e" stroke-width="1"/>
        <path id="Path_115" data-name="Path 115" d="M1125.5-364.481l2.453-2.907,1.179,1.768,1.473-1.768,1.378,2.091h0l1.422-2.091,2.8,2.907" transform="translate(-1125.5 379.879)" fill="none" stroke="#ef760e" stroke-width="1"/>
      </g>
      <g id="Group_94" data-name="Group 94" transform="translate(60.821 31.565)">
        <path id="Path_117-2" data-name="Path 117" d="M0,0V15.83" fill="none" stroke="#ef760e" stroke-width="1"/>
        <path id="Path_116-2" data-name="Path 116" d="M0,0V15.121" transform="translate(10.778 0.77)" fill="none" stroke="#ef760e" stroke-width="1"/>
        <path id="Path_115-2" data-name="Path 115" d="M1125.5-364.481l2.453-2.907,1.179,1.768,1.473-1.768,1.378,2.091h0l1.422-2.091,2.8,2.907" transform="translate(-1125.5 379.879)" fill="none" stroke="#ef760e" stroke-width="1"/>
      </g>
      <g id="Group_95" data-name="Group 95" transform="translate(39.264 2.31)">
        <path id="Path_117-3" data-name="Path 117" d="M0,0V15.83" fill="#ef760e" stroke="#ef760e" stroke-width="1"/>
        <path id="Path_116-3" data-name="Path 116" d="M0,0V15.121" transform="translate(10.778 0.77)" fill="#ef760e" stroke="#ef760e" stroke-width="1"/>
        <path id="Path_115-3" data-name="Path 115" d="M1125.5-364.481l2.453-2.907,1.179,1.768,1.473-1.768,1.378,2.091h0l1.422-2.091,2.8,2.907" transform="translate(-1125.5 379.879)" fill="#fff" stroke="#ef760e" stroke-width="1"/>
      </g>
    </g>
  </g>
</svg>
