<svg id="Layer_2" data-name="Layer 2" xmlns="http://www.w3.org/2000/svg" width="45" height="45" viewBox="0 0 45 45">
  <g id="invisible_box" data-name="invisible box">
    <rect id="Rectangle_147" data-name="Rectangle 147" width="45" height="45" fill="none"/>
  </g>
  <g id="icons_Q2" data-name="icons Q2" transform="translate(0.969 1.967)">
    <g id="Group_115" data-name="Group 115">
      <path id="Path_468" data-name="Path 468" d="M33,25V23l-3.3-.8a4.2,4.2,0,0,0-.4-1l1.8-2.9-1.4-1.4-2.9,1.8-1-.4L25,15H23l-.8,3.3-1,.4-2.9-1.8-1.4,1.4,1.8,2.9a4.2,4.2,0,0,0-.4,1L15,23v2l3.3.8a4.2,4.2,0,0,0,.4,1l-1.8,2.9,1.4,1.4,2.9-1.8,1,.4L23,33h2l.8-3.3,1-.4,2.9,1.8,1.4-1.4-1.8-2.9a4.2,4.2,0,0,0,.4-1Zm-9,1a2,2,0,1,1,2-2A2,2,0,0,1,24,26Z" transform="translate(-3.595 -3.471)" fill="#ef760e"/>
      <path id="Path_469" data-name="Path 469" d="M41,13.18V3.955A1.955,1.955,0,0,0,39.421,2a1.859,1.859,0,0,0-2.136,1.864V8.427a20.5,20.5,0,1,0,3.436,23.109,1.852,1.852,0,1,0-3.25-1.77,16.525,16.525,0,0,1-15.044,9.5A16.762,16.762,0,1,1,34.871,11.316H29.949A1.952,1.952,0,0,0,28,12.9a1.861,1.861,0,0,0,1.857,2.143h9.286A1.86,1.86,0,0,0,41,13.18Z" transform="translate(-1.969 -1.967)" fill="#ef760e"/>
    </g>
  </g>
</svg>
