<svg id="Layer_2" data-name="Layer 2" xmlns="http://www.w3.org/2000/svg" width="48" height="48" viewBox="0 0 48 48">
  <g id="invisible_box" data-name="invisible box">
    <rect id="Rectangle_144" data-name="Rectangle 144" width="48" height="48" fill="none"/>
  </g>
  <g id="icons_Q2" data-name="icons Q2" transform="translate(4 3)">
    <path id="Path_463" data-name="Path 463" d="M42,40H8V33.7l.4-.3L18,23.8l6.1,6.1L38,16.1v4.8A2.1,2.1,0,0,0,39.7,23,2,2,0,0,0,42,21V11a2,2,0,0,0-2-2H30a2,2,0,0,0-2,2.3A2.1,2.1,0,0,0,30.1,13h5.2L23.9,24,18,18.2,8,28.2V6A2,2,0,0,0,4,6V44H42a2,2,0,0,0,0-4Z" transform="translate(-4 -4)" fill="#103396"/>
  </g>
</svg>
