<svg xmlns="http://www.w3.org/2000/svg" width="92" height="92" viewBox="0 0 92 92">
  <g id="Group_123" data-name="Group 123" transform="translate(-296 -808)">
    <circle id="Ellipse_90" data-name="Ellipse 90" cx="46" cy="46" r="46" transform="translate(296 808)" fill="#3480e3"/>
    <g id="Layer_2" data-name="Layer 2" transform="translate(310.567 824.867)">
      <g id="invisible_box" data-name="invisible box">
        <rect id="Rectangle_149" data-name="Rectangle 149" width="59" height="59" transform="translate(0.433 0.133)" fill="none"/>
      </g>
      <g id="Icons" transform="translate(3.706 2.47)">
        <g id="Group_120" data-name="Group 120">
          <path id="Path_477" data-name="Path 477" d="M51.42,33.982a5.682,5.682,0,0,0-4.941-1.359l-12.229,2.1a5.805,5.805,0,0,0-1.729-4.076L23.752,22H5.47a2.47,2.47,0,1,0,0,4.941h16.3l7.288,7.288a.988.988,0,0,1,0,1.359,1.112,1.112,0,0,1-1.482,0l-4.323-4.323A2.49,2.49,0,0,0,19.8,34.846l4.323,4.2a5.558,5.558,0,0,0,4.2,1.729,7.041,7.041,0,0,0,2.223-.371h0l16.8-2.965a1.235,1.235,0,0,1,.988.247,1.359,1.359,0,0,1,.371.865,1.235,1.235,0,0,1-.988,1.235l-22.975,4.2L11.276,32.993H5.47a2.47,2.47,0,0,0,0,4.941H9.547l13.711,11.24L48.579,44.6a6.053,6.053,0,0,0,5.064-6.053,5.682,5.682,0,0,0-2.223-4.57Z" transform="translate(-3 2.704)" fill="#d6e6fa"/>
          <path id="Path_478" data-name="Path 478" d="M36.022,24.357h0a8.276,8.276,0,0,1-5.064-1.606,2.47,2.47,0,0,0-3.459.741A2.223,2.223,0,0,0,27.87,26.7a13.464,13.464,0,0,0,5.311,2.223v2.717a2.47,2.47,0,0,0,4.941,0V28.928a7.782,7.782,0,0,0,3.706-1.606,6.053,6.053,0,0,0,2.47-4.941h0c0-4.57-4.2-6.053-7.782-6.794s-4.323-1.606-4.323-2.223.247-.741.618-1.112a4.2,4.2,0,0,1,2.223-.494A7.782,7.782,0,0,1,39.11,12.87a2.223,2.223,0,0,0,3.335-.618,2.347,2.347,0,0,0-.494-3.459,11.24,11.24,0,0,0-3.829-1.482V4.47a2.47,2.47,0,0,0-4.941,0V7.188c-3.706.618-6.176,3.088-6.176,6.423s4.076,6.053,8.029,6.794,4.076,1.606,4.076,2.223S37.752,24.357,36.022,24.357Z" transform="translate(2.64 -2)" fill="#d6e6fa"/>
        </g>
      </g>
    </g>
  </g>
</svg>
