<svg xmlns="http://www.w3.org/2000/svg" width="92" height="92" viewBox="0 0 92 92">
  <g id="Group_122" data-name="Group 122" transform="translate(-564 -629)">
    <circle id="Ellipse_86" data-name="Ellipse 86" cx="46" cy="46" r="46" transform="translate(564 629)" fill="#3480e3"/>
    <g id="Layer_2" data-name="Layer 2" transform="translate(585.478 651.245)">
      <g id="invisible_box" data-name="invisible box">
        <rect id="Rectangle_150" data-name="Rectangle 150" width="51" height="51" transform="translate(-0.478 -0.245)" fill="none"/>
      </g>
      <g id="Q3_icons" data-name="Q3 icons" transform="translate(2.109 8.648)">
        <path id="Path_479" data-name="Path 479" d="M47.993,38.405c-4.841-8.1-16.84-16.208-23.365-17.05a2.072,2.072,0,1,0-.526,4.1c2.947.526,8,3.157,12.525,6.736-3.789,3.578-9.472,5.157-14.1,3.789-8.1-2.315-12.209-12.735-15.156-21.365l8-1.158c6.946-1.263,12.946-2.315,16.945.421s4.21,5.262,4.841,8.736l2.736,1.894a1.052,1.052,0,0,0,1.684-.947c-.631-4.947-2.21-9.893-6.841-13.051S22.207,7.989,14.63,9.252A84.833,84.833,0,0,1,4.421,10.62H3.052a.947.947,0,0,0-.947,1.368l.421,1.263c3.263,9.893,7.788,23.47,18.734,26.733A18.313,18.313,0,0,0,26,40.616a20.523,20.523,0,0,0,13.893-5.578,30.943,30.943,0,0,1,4.526,5.578A2,2,0,0,0,46.2,41.668a2.315,2.315,0,0,0,1.368-.421A2.21,2.21,0,0,0,47.993,38.405Z" transform="translate(-2.004 -8.217)" fill="#d6e6fa"/>
      </g>
    </g>
  </g>
</svg>
