<svg xmlns="http://www.w3.org/2000/svg" width="92" height="92" viewBox="0 0 92 92">
  <g id="Group_121" data-name="Group 121" transform="translate(-833 -426)">
    <g id="Group_126" data-name="Group 126" transform="translate(0 -44)">
      <circle id="Ellipse_87" data-name="Ellipse 87" cx="46" cy="46" r="46" transform="translate(833 470)" fill="#3480e3"/>
      <path id="Icon_awesome-layer-group" data-name="Icon awesome-layer-group" d="M1.1,13.138l20.676,9.379a2.273,2.273,0,0,0,1.89,0l20.676-9.379a1.983,1.983,0,0,0,0-3.553L23.668.205a2.273,2.273,0,0,0-1.89,0L1.1,9.584a1.984,1.984,0,0,0,0,3.554Zm43.242,7.836-5.156-2.337-14.347,6.5a5.116,5.116,0,0,1-4.236,0l-14.346-6.5L1.1,20.974a1.981,1.981,0,0,0,0,3.55L21.777,33.9a2.28,2.28,0,0,0,1.89,0l20.677-9.372A1.981,1.981,0,0,0,44.344,20.974Zm0,11.344L39.207,29.99,24.841,36.5a5.116,5.116,0,0,1-4.236,0L6.239,29.99,1.1,32.318a1.981,1.981,0,0,0,0,3.55L21.777,45.24a2.28,2.28,0,0,0,1.89,0l20.677-9.372a1.981,1.981,0,0,0,0-3.55Z" transform="translate(856.46 493.487)" fill="#d6e6fa"/>
    </g>
  </g>
</svg>
