<svg xmlns="http://www.w3.org/2000/svg" width="909.676" height="779.905" viewBox="0 0 909.676 779.905">
  <g id="illustration_3" data-name="illustration 3" transform="translate(-30.953 105.338) rotate(-3)">
    <rect id="Rectangle_16" data-name="Rectangle 16" width="8.472" height="334.661" transform="translate(116.841 327.3)" fill="#3f3d56"/>
    <path id="Path_118" data-name="Path 118" d="M915.287,455.268c-.539,117.023,81.792,212.27,81.792,212.27s83.206-94.485,83.745-211.507-81.792-212.27-81.792-212.27S915.83,338.245,915.287,455.268Z" transform="translate(-876.637 -85.319)" fill="#3f3d56"/>
    <rect id="Rectangle_17" data-name="Rectangle 17" width="4.358" height="172.124" transform="translate(286.246 484.763)" fill="#3f3d56"/>
    <path id="Path_119" data-name="Path 119" d="M767.935,630.432C767.658,690.62,810,739.608,810,739.608s42.795-48.6,43.072-108.783-42.068-109.176-42.068-109.176S768.213,570.245,767.935,630.432Z" transform="translate(-521.905 -123.734)" fill="#3f3d56"/>
    <ellipse id="Ellipse_28" data-name="Ellipse 28" cx="118.062" cy="18.097" rx="118.062" ry="18.097" transform="translate(82.294 643.611)" fill="#707070"/>
    <path id="Path_120" data-name="Path 120" d="M847.234,335.476c10-16.9,29.791-17.689,29.791-17.689s19.283-2.466,31.653,23.274c11.53,23.992,27.443,47.157,2.562,52.774l-4.494-13.988-2.783,15.029a97.339,97.339,0,0,1-10.646.182c-26.645-.86-52.021.252-51.2-9.31C843.2,373.038,837.61,351.738,847.234,335.476Z" transform="translate(-656.616 -95.544)" fill="#2f2e41"/>
    <path id="Path_121" data-name="Path 121" d="M931.46,374.152s-12.926,18.1-5.171,32.747-18.1,30.162-18.1,30.162L889.234,395.7s22.406-14.65,16.374-28.438Z" transform="translate(-704.82 -102.391)" fill="#fbbebe"/>
    <ellipse id="Ellipse_29" data-name="Ellipse 29" cx="22.406" cy="22.406" rx="22.406" ry="22.406" transform="translate(195.616 234.705)" fill="#fbbebe"/>
    <path id="Path_122" data-name="Path 122" d="M847.568,380.574l-18.724-24.159s-6.593-25.323-16.142-24.039,3.771,30.368,3.771,30.368l18.605,26.741Z" transform="translate(-552.005 -97.563)" fill="#fbbebe"/>
    <path id="Path_123" data-name="Path 123" d="M890.428,709.6,884.4,741.485l-12.926,3.447,3.447-37.918Z" transform="translate(-689.641 -105.199)" fill="#fbbebe"/>
    <path id="Path_124" data-name="Path 124" d="M1062.973,668.909l-23.268,31.885-9.479,4.309-7.756-12.926,23.268-30.162Z" transform="translate(-992.313 -98.978)" fill="#fbbebe"/>
    <path id="Path_125" data-name="Path 125" d="M906.466,426.729,920.841,407.8s27.851,5.135,30.436,7.721-6.894,49.982-6.894,49.982-1.724,12.926-9.479,19.821l-7.756,5.171-63.77-12.926-2.4-28.374a74.465,74.465,0,0,1,19.633-56.94h0l11.1,1.517Z" transform="translate(-700.509 -105.847)" fill="#ef760e"/>
    <path id="Path_126" data-name="Path 126" d="M797.4,415.176l4.309-1.724,19.821-1.724s6.894-1.724,5.171-5.171-3.447-4.309,0-5.171,4.309-1.724,3.447-4.309-6.032-7.756-6.032-7.756l14.65-12.065s.793.561,2.074,1.6c7.274,5.889,30.289,27.136,13.437,48.384-19.821,24.991-43.088,39.641-62.047,34.471Z" transform="translate(-550.077 -103.773)" fill="#ef760e"/>
    <path id="Path_127" data-name="Path 127" d="M1062.8,499.876V511.94s7.756,14.65,5.17,28.438-3.447,20.682-3.447,20.682a117.651,117.651,0,0,1-6.032,34.471c-6.032,17.235,13.788,130.126-11.2,131.85s-38.779,3.447-46.535-5.171S1013.68,565.37,1013.68,565.37,943.015,712.731,928.365,706.7s-51.706-19.821-47.4-27.576S993.859,499.014,993.859,499.014l3.447-7.756Z" transform="translate(-834.436 -119.532)" fill="#2f2e41"/>
    <path id="Path_128" data-name="Path 128" d="M920.473,791.247s13.788-.862,13.788,3.447,6.894,18.959,6.894,18.959,5.171,17.235-8.618,15.512-22.406-17.235-22.406-17.235l3.447-16.374Z" transform="translate(-733.474 -160.992)" fill="#2f2e41"/>
    <path id="Path_129" data-name="Path 129" d="M1132.267,754.869s12.065-7.756,11.2-2.585-1.723,18.959-7.756,19.821-24.129,6.032-24.991,7.756-21.544,8.618-21.544-2.585,12.926-19.821,12.926-19.821l14.65-11.2s9.479-.862,11.2,5.171S1132.267,754.869,1132.267,754.869Z" transform="translate(-1089.179 -154.776)" fill="#2f2e41"/>
    <ellipse id="Ellipse_30" data-name="Ellipse 30" cx="14.309" cy="14.309" rx="14.309" ry="14.309" transform="translate(203.68 208.021)" fill="#2f2e41"/>
    <path id="Path_130" data-name="Path 130" d="M890.229,311.233A14.309,14.309,0,0,0,877.428,297a14.458,14.458,0,0,1,1.5-.081,14.309,14.309,0,1,1,0,28.617,14.471,14.471,0,0,1-1.506-.081A14.309,14.309,0,0,0,890.229,311.233Z" transform="translate(-656.426 -92.668)" fill="#2f2e41"/>
    <path id="Path_131" data-name="Path 131" d="M818.57,283.548l19.55-10.241,27,4.19,5.586,24.671-13.905-.535-3.885-9.063v8.914l-6.416-.246-3.724-14.43-2.328,15.361-22.809-.465Z" transform="translate(-623.528 -45.245)" fill="#2f2e41"/>
    <path id="Path_132" data-name="Path 132" d="M861.31,501.087l30.151.815s25.727,5.006,24.284-5.378-26.542-6.752-26.542-6.752l-27.473-4.191Z" transform="translate(-665.099 -118.748)" fill="#fbbebe"/>
    <path id="Path_133" data-name="Path 133" d="M936,390.55a6.434,6.434,0,0,0-7.1,4.419c-5.9,18.6-24.087,80.845-6.02,89.385,21.28,10.058,36.809,9.616,36.809,9.616l8.312-20.465-7.567-7.1-8.078-51.943-3.871-22.018Z" transform="translate(-763.648 -105.601)" fill="#ef760e"/>
    <path id="Path_134" data-name="Path 134" d="M858.969,379.515l3.447,34.471,30.162,12.926-33.609-7.756Z" transform="translate(-681.019 -59.926)" opacity="0.4"/>
    <path id="Path_135" data-name="Path 135" d="M820.687,298.7h0a40.365,40.365,0,0,0-23.571,17.123l-2.819,4.365-.142.181L744.7,334.844a3.6,3.6,0,0,0-2.465,4.408l3.839,14.077a3.6,3.6,0,0,0,4.448,2.523l49.465-13.826h0l4.968,1.878a44.393,44.393,0,0,0,28.543.97h0Z" transform="translate(-539.786 136.915) rotate(-16)" fill="#3f3d56"/>
    <ellipse id="Ellipse_31" data-name="Ellipse 31" cx="3.02" cy="5.662" rx="3.02" ry="5.662" transform="matrix(-0.281, -0.96, 0.96, -0.281, 289.383, 249.51)" fill="#575a89"/>
    <ellipse id="Ellipse_32" data-name="Ellipse 32" cx="2.076" cy="2.076" rx="2.076" ry="2.076" transform="translate(291.264 248.944) rotate(-139)" fill="#3f3d56"/>
    <ellipse id="Ellipse_33" data-name="Ellipse 33" cx="24.207" cy="10.947" rx="24.207" ry="10.947" transform="matrix(0.469, 0.883, -0.883, 0.469, 341.719, 192.369)" fill="#3480e3" opacity="0.43"/>
    <path id="Path_137" data-name="Path 137" d="M47.765,211.221l84.177-65.3a557.093,557.093,0,0,0,42.8-37.09c24-22.872,56.57-41.159,94.5-50.9,92.142-23.654,165.138,18.288,198.339,79.873,50.734,94.109,89.615,246.823-135.339,165.534-49.2-17.778-99-19.668-136.756-29.032L58.753,246.123Z" transform="translate(244.377 6.586) rotate(-14)" fill="#3480e3" opacity="0.5"/>
    <ellipse id="Ellipse_34" data-name="Ellipse 34" cx="6.032" cy="6.032" rx="6.032" ry="6.032" transform="translate(670.878 47.271)" fill="#f2f2f2"/>
    <path id="Path_138" data-name="Path 138" d="M450.949,86.443h1.57v-1.57h.307v1.57h1.57v.307h-1.57v1.57h-.307V86.75h-1.57Z" transform="translate(108.779 -19.196)" fill="#f2f2f2"/>
    <path id="Path_139" data-name="Path 139" d="M633.949,238.443h1.57v-1.57h.307v1.57h1.57v.307h-1.57v1.57h-.307v-1.57h-1.57Z" transform="translate(-231.923 -40.208)" fill="#f2f2f2"/>
    <path id="Path_140" data-name="Path 140" d="M620.949,285.443h1.57v-1.57h.307v1.57h1.57v.307h-1.57v1.57h-.307v-1.57h-1.57Z" transform="translate(-207.72 -46.705)" fill="#f2f2f2"/>
    <path id="Path_141" data-name="Path 141" d="M61.949,325.443h1.57v-1.57h.307v1.57H65.4v.307h-1.57v1.57h-.307v-1.57h-1.57Z" transform="translate(833.005 -52.235)" fill="#f2f2f2"/>
    <path id="Path_142" data-name="Path 142" d="M141.949,107.443h1.57v-1.57h.307v1.57h1.57v.307h-1.57v1.57h-.307v-1.57h-1.57Z" transform="translate(684.064 -22.099)" fill="#f2f2f2"/>
    <path id="Path_143" data-name="Path 143" d="M452.949,293.443h1.57v-1.57h.307v1.57h1.57v.307h-1.57v1.57h-.307v-1.57h-1.57Z" transform="translate(105.056 -47.811)" fill="#f2f2f2"/>
    <path id="Path_144" data-name="Path 144" d="M261.949,43.443h1.57v-1.57h.307v1.57h1.57v.307h-1.57v1.57h-.307V43.75h-1.57Z" transform="translate(460.652 -13.252)" fill="#f2f2f2"/>
    <path id="Path_145" data-name="Path 145" d="M313.61,238.915l1.956.3c-.612,3.912-1.094,7.911-1.448,11.866l-1.973-.172C312.5,246.9,312.99,242.87,313.61,238.915Z" transform="translate(408.388 -84.649)" fill="#e6e6e6"/>
    <path id="Path_146" data-name="Path 146" d="M309.09,211.575l1.9.577c-1.146,3.792-2.172,7.678-3.042,11.548L306,223.261C306.893,219.348,307.935,215.418,309.09,211.575Z" transform="translate(418.259 -80.87)" fill="#e6e6e6"/>
    <path id="Path_147" data-name="Path 147" d="M300.867,185.355l1.8.827c-1.655,3.611-3.206,7.316-4.61,11.022l-1.853-.7C297.627,192.758,299.187,189,300.867,185.355Z" transform="translate(435.022 -77.245)" fill="#e6e6e6"/>
    <path id="Path_148" data-name="Path 148" d="M289.091,160.775l1.672,1.06c-2.129,3.344-4.171,6.808-6.067,10.281l-1.741-.948C284.868,167.652,286.936,164.153,289.091,160.775Z" transform="translate(458.346 -73.847)" fill="#e6e6e6"/>
    <path id="Path_149" data-name="Path 149" d="M273.991,138.245l1.508,1.284c-2.568,3.016-5.067,6.17-7.428,9.359l-1.586-1.181C268.863,144.484,271.388,141.3,273.991,138.245Z" transform="translate(487.803 -70.733)" fill="#e6e6e6"/>
    <path id="Path_150" data-name="Path 150" d="M255.863,118.185l1.318,1.474c-2.964,2.646-5.869,5.429-8.635,8.264l-1.422-1.387C249.926,123.666,252.864,120.856,255.863,118.185Z" transform="translate(522.804 -67.96)" fill="#e6e6e6"/>
    <path id="Path_151" data-name="Path 151" d="M235.035,100.965l1.112,1.637c-3.292,2.215-6.549,4.576-9.678,7.015l-1.224-1.56C228.416,105.593,231.708,103.206,235.035,100.965Z" transform="translate(562.695 -65.579)" fill="#e6e6e6"/>
    <path id="Path_152" data-name="Path 152" d="M213.5,89.005v2.241c-2.06,1.077-4.1,2.206-6.1,3.361l-.991-1.715Q209.9,90.875,213.5,89.005Z" transform="translate(601.58 -63.926)" fill="#e6e6e6"/>
    <path id="Path_153" data-name="Path 153" d="M316.58,267.215l-1.981-.036c-.036,2-.039,4.011-.008,5.977l1.981-.031C316.542,271.182,316.545,269.193,316.58,267.215Z" transform="translate(405.284 -88.556)" fill="#e6e6e6"/>
    <path id="Path_154" data-name="Path 154" d="M178.61,435.915l1.956.3c-.612,3.912-1.094,7.911-1.448,11.866l-1.973-.172C177.5,443.9,177.99,439.87,178.61,435.915Z" transform="translate(659.726 -111.882)" fill="#e6e6e6"/>
    <path id="Path_155" data-name="Path 155" d="M174.09,408.575l1.9.577c-1.146,3.792-2.172,7.678-3.042,11.548l-1.939-.439C171.893,416.348,172.935,412.418,174.09,408.575Z" transform="translate(669.597 -108.103)" fill="#e6e6e6"/>
    <path id="Path_156" data-name="Path 156" d="M165.867,382.355l1.8.827c-1.655,3.611-3.206,7.316-4.61,11.022l-1.853-.7C162.627,389.758,164.187,386,165.867,382.355Z" transform="translate(686.36 -104.478)" fill="#e6e6e6"/>
    <path id="Path_157" data-name="Path 157" d="M154.091,357.775l1.672,1.06c-2.129,3.344-4.171,6.808-6.067,10.281l-1.741-.948C149.868,364.652,151.936,361.153,154.091,357.775Z" transform="translate(709.684 -101.08)" fill="#e6e6e6"/>
    <path id="Path_158" data-name="Path 158" d="M138.991,335.245l1.508,1.284c-2.568,3.016-5.067,6.17-7.428,9.359l-1.586-1.181C133.863,341.484,136.388,338.3,138.991,335.245Z" transform="translate(739.141 -97.966)" fill="#e6e6e6"/>
    <path id="Path_159" data-name="Path 159" d="M120.863,315.185l1.318,1.474c-2.964,2.646-5.869,5.429-8.635,8.264l-1.422-1.387C114.926,320.666,117.864,317.856,120.863,315.185Z" transform="translate(774.142 -95.193)" fill="#e6e6e6"/>
    <path id="Path_160" data-name="Path 160" d="M100.035,297.965l1.112,1.637c-3.292,2.215-6.549,4.576-9.678,7.015l-1.224-1.56C93.416,302.593,96.708,300.206,100.035,297.965Z" transform="translate(814.033 -92.812)" fill="#e6e6e6"/>
    <path id="Path_161" data-name="Path 161" d="M78.5,286.005v2.241c-2.06,1.077-4.1,2.206-6.1,3.361l-.991-1.715Q74.9,287.875,78.5,286.005Z" transform="translate(852.918 -91.159)" fill="#e6e6e6"/>
    <path id="Path_162" data-name="Path 162" d="M181.58,464.215l-1.981-.036c-.036,2-.039,4.011-.008,5.977l1.981-.031C181.542,468.182,181.545,466.193,181.58,464.215Z" transform="translate(656.622 -115.789)" fill="#e6e6e6"/>
    <path id="Path_163" data-name="Path 163" d="M640.61,336.915l1.956.3c-.612,3.912-1.094,7.911-1.448,11.866l-1.973-.172C639.5,344.9,639.989,340.87,640.61,336.915Z" transform="translate(-200.409 -98.196)" fill="#e6e6e6"/>
    <path id="Path_164" data-name="Path 164" d="M636.09,309.575l1.9.577c-1.146,3.792-2.172,7.678-3.042,11.548l-1.939-.44C633.893,317.348,634.935,313.418,636.09,309.575Z" transform="translate(-190.537 -94.417)" fill="#e6e6e6"/>
    <path id="Path_165" data-name="Path 165" d="M627.867,283.355l1.8.827c-1.655,3.611-3.206,7.316-4.61,11.022l-1.853-.7C624.627,290.758,626.187,287,627.867,283.355Z" transform="translate(-173.774 -90.793)" fill="#e6e6e6"/>
    <path id="Path_166" data-name="Path 166" d="M616.091,258.775l1.672,1.06c-2.129,3.344-4.171,6.808-6.067,10.281l-1.741-.948C611.868,265.652,613.936,262.153,616.091,258.775Z" transform="translate(-150.45 -87.395)" fill="#e6e6e6"/>
    <path id="Path_167" data-name="Path 167" d="M600.991,236.245l1.508,1.284c-2.568,3.016-5.067,6.17-7.428,9.359l-1.586-1.181C595.863,242.484,598.388,239.3,600.991,236.245Z" transform="translate(-120.993 -84.28)" fill="#e6e6e6"/>
    <path id="Path_168" data-name="Path 168" d="M582.863,216.185l1.319,1.474c-2.964,2.646-5.869,5.429-8.635,8.264l-1.422-1.387C576.926,221.666,579.864,218.856,582.863,216.185Z" transform="translate(-85.992 -81.507)" fill="#e6e6e6"/>
    <path id="Path_169" data-name="Path 169" d="M562.035,198.965l1.112,1.637c-3.292,2.215-6.549,4.576-9.678,7.015l-1.224-1.56C555.416,203.593,558.708,201.206,562.035,198.965Z" transform="translate(-46.101 -79.127)" fill="#e6e6e6"/>
    <path id="Path_170" data-name="Path 170" d="M540.5,187v2.241c-2.06,1.077-4.1,2.206-6.1,3.361l-.991-1.715Q536.9,188.875,540.5,187Z" transform="translate(-7.217 -77.473)" fill="#e6e6e6"/>
    <path id="Path_171" data-name="Path 171" d="M643.58,365.215l-1.981-.036c-.036,2-.039,4.011-.008,5.977l1.981-.031C643.542,369.182,643.545,367.193,643.58,365.215Z" transform="translate(-203.513 -102.104)" fill="#e6e6e6"/>
    <path id="Path_172" data-name="Path 172" d="M145.573,199.661h1.461V198.2h.285v1.462h1.462v.284h-1.462v1.462h-.285v-1.462h-1.461Z" transform="translate(677.556 -34.862)" fill="#f2f2f2"/>
    <path id="Path_173" data-name="Path 173" d="M126.032,302.018h1.461v-1.462h.285v1.462h1.462v.285h-1.462v1.461h-.285V302.3h-1.461Z" transform="translate(713.937 -49.011)" fill="#f2f2f2"/>
    <path id="Path_174" data-name="Path 174" d="M68.695,391.725h1.462v-1.461h.285v1.461H71.9v.285H70.442v1.462h-.285V392.01H68.695Z" transform="translate(820.685 -61.412)" fill="#f2f2f2"/>
    <g id="Group_99" data-name="Group 99" transform="translate(-2.156 3.043) rotate(-7)">
      <path id="Path_175" data-name="Path 175" d="M270.764,248.148a70.65,70.65,0,1,1,32.78,26.319,22.853,22.853,0,1,1-32.78-26.319Z" transform="translate(256.57 -46.056)" fill="#3f3d56"/>
      <path id="Path_176" data-name="Path 176" d="M366.784,190.679c19.4,0,32.741,10.758,32.741,26.224,0,10.241-4.965,17.327-14.534,22.965-9,5.224-12.052,9.052-12.052,15.672h0a4.086,4.086,0,0,1-4.086,4.086h-9.916a4.086,4.086,0,0,1-4.084-3.944l-.018-.5c-.879-10.655,2.845-17.276,12.207-22.758,8.741-5.224,12.414-8.534,12.414-14.948s-6.207-11.12-13.914-11.12c-5.858,0-10.493,2.851-12.62,7.506a9.13,9.13,0,0,1-8.344,5.218h0a8.975,8.975,0,0,1-8.015-13.083C341.534,196.6,352.021,190.679,366.784,190.679Zm-13.6,88.654a11.1,11.1,0,1,1,11.069,10.655A10.833,10.833,0,0,1,353.18,279.333Z" transform="translate(218.506 -73.789)" fill="#6c63ff" stroke="#103396" stroke-width="1" opacity="0.71"/>
    </g>
  </g>
</svg>
