<svg xmlns="http://www.w3.org/2000/svg" xmlns:xlink="http://www.w3.org/1999/xlink" width="676.181" height="538.844" viewBox="0 0 676.181 538.844">
  <defs>
    <linearGradient id="linear-gradient" x1="0.5" y1="1" x2="0.5" gradientUnits="objectBoundingBox">
      <stop offset="0" stop-color="gray" stop-opacity="0.251"/>
      <stop offset="0.535" stop-color="gray" stop-opacity="0.122"/>
      <stop offset="1" stop-color="gray" stop-opacity="0.102"/>
    </linearGradient>
    <linearGradient id="linear-gradient-2" x1="0.5" y1="1" x2="0.5" y2="0" xlink:href="#linear-gradient"/>
  </defs>
  <g id="Group_132" data-name="Group 132" transform="translate(-963.819 -1344)">
    <g id="Group_107" data-name="Group 107" transform="translate(963.819 1407.897)">
      <path id="Path_273" data-name="Path 273" d="M668.536,329.055c-22.173,28.867-13.559,71.038.531,104.812,4.717,11.308,10.053,23.271,8.063,35.4-2.434,14.829-15.358,25.672-28.928,31.418a84.336,84.336,0,0,1-77.067-6.5c-19.643-12.513-33.71-32.861-53.687-44.8-33.433-19.987-75.988-12.439-112.291,1.329-25.684,9.74-53.764,22.408-79.285,12.228-17.958-7.163-30.371-24.6-37.134-43.076-3.265-8.922-5.636-18.579-11.871-25.651-3.707-4.2-8.545-7.189-13.5-9.7-45.254-22.978-102.413-10.673-146.37-36.158C87.307,331.134,68.3,298.667,59.887,264.812s-7.435-69.353-5.3-104.219c1.518-24.777,4.243-51.229,19.7-70.352,16.355-20.229,44.424-27.752,69.794-23.907s48.367,17.549,68.6,33.69c25.285,20.173,48.734,45.293,79.777,53.465,21.141,5.565,43.38,2.521,65.185,1.467,36.452-1.762,72.918,2.157,109.169,6.448,34.7,4.108,69.658,8.63,102.719,20.19,23.4,8.181,42.153,23.031,64.244,33.405,14.4,6.763,30.1,8.63,43.737,17.243,16.8,10.61,32.193,29.065,27.89,50.661C701.316,303.435,680.3,313.733,668.536,329.055Z" transform="translate(-29.955 -56.136)" fill="#6c63ff" opacity="0.1"/>
      <path id="Path_274" data-name="Path 274" d="M708.171,211.05s-37.26-11.035-39.721,20.353,9.847,83.086,0,99.7-44.985,40.626-26.493,42.777,27.724,5.228,22.185,16.306-34.465,21.541-28.311,29.542,9.232,17.848,3.077,27.7-27.7,16-24,22.772,17.233,10.463,10.463,17.848-26.4,24.185-18.737,24.094" transform="translate(-265.273 -120.666)" fill="none" stroke="#535461" stroke-miterlimit="10" stroke-width="3"/>
      <rect id="Rectangle_42" data-name="Rectangle 42" width="94.54" height="43.845" rx="12.97" transform="translate(409.004 69.472)" fill="#6c63ff"/>
      <rect id="Rectangle_43" data-name="Rectangle 43" width="79.469" height="0.822" transform="translate(416.62 106.588)" opacity="0.1"/>
      <rect id="Rectangle_44" data-name="Rectangle 44" width="79.469" height="30.143" transform="translate(416.62 76.323)" opacity="0.3"/>
      <circle id="Ellipse_49" data-name="Ellipse 49" cx="10.961" cy="10.961" r="10.961" transform="translate(424.935 81.063)" opacity="0.1"/>
      <circle id="Ellipse_50" data-name="Ellipse 50" cx="10.961" cy="10.961" r="10.961" transform="translate(466.395 81.063)" opacity="0.1"/>
      <rect id="Rectangle_45" data-name="Rectangle 45" width="16.441" height="9.593" transform="translate(448.428 113.316)" fill="#6c63ff"/>
      <rect id="Rectangle_46" data-name="Rectangle 46" width="68.508" height="54.806" transform="translate(422.156 120.168)" fill="#6c63ff"/>
      <rect id="Rectangle_47" data-name="Rectangle 47" width="71.248" height="6.851" transform="translate(420.772 185.935)" fill="#6c63ff"/>
      <path id="Path_275" data-name="Path 275" d="M720.689,333.967v31.513H733.02v-41.1H720.689Z" transform="translate(-287.58 -124.739)" fill="#6c63ff"/>
      <path id="Path_276" data-name="Path 276" d="M780.8,324.376v41.1h12.331v-41.1Z" transform="translate(-311.566 -124.739)" fill="#6c63ff"/>
      <path id="Path_277" data-name="Path 277" d="M707.435,280.656v12.673a18.536,18.536,0,0,0-9.109,4.391,21.549,21.549,0,0,0-5.423,7.951,40.393,40.393,0,0,0-2.67,12.138,69.4,69.4,0,0,0,.758,16.284h-13.7a93.534,93.534,0,0,1,.359-19.652,52.155,52.155,0,0,1,4.4-15.576,31.628,31.628,0,0,1,14.576-15.3A26.92,26.92,0,0,1,707.435,280.656Z" transform="translate(-293.008 -148.156)" fill="#6c63ff"/>
      <rect id="Rectangle_48" data-name="Rectangle 48" width="12.331" height="9.591" transform="translate(433.109 199.637)" opacity="0.3"/>
      <rect id="Rectangle_49" data-name="Rectangle 49" width="12.331" height="12.331" transform="translate(433.109 217.449)" opacity="0.3"/>
      <rect id="Rectangle_50" data-name="Rectangle 50" width="12.331" height="4.11" transform="translate(433.109 236.631)" opacity="0.3"/>
      <rect id="Rectangle_51" data-name="Rectangle 51" width="12.331" height="9.591" transform="translate(469.232 199.637)" opacity="0.3"/>
      <rect id="Rectangle_52" data-name="Rectangle 52" width="12.331" height="12.331" transform="translate(469.232 217.449)" opacity="0.3"/>
      <rect id="Rectangle_53" data-name="Rectangle 53" width="12.331" height="4.11" transform="translate(469.232 236.631)" opacity="0.3"/>
      <path id="Path_278" data-name="Path 278" d="M719.735,280.656v12.673a18.537,18.537,0,0,0-9.109,4.391l-1.7-14.151A26.919,26.919,0,0,1,719.735,280.656Z" transform="translate(-305.496 -148.156)" opacity="0.3"/>
      <path id="Path_279" data-name="Path 279" d="M693.348,317.048a40.389,40.389,0,0,0-2.67,12.138l-12.585-3.369a52.156,52.156,0,0,1,4.4-15.576Z" transform="translate(-293.256 -159.533)" opacity="0.3"/>
      <path id="Path_280" data-name="Path 280" d="M868.128,280.656v12.673a18.537,18.537,0,0,1,9.109,4.391,21.547,21.547,0,0,1,5.423,7.952,40.393,40.393,0,0,1,2.67,12.138,69.4,69.4,0,0,1-.758,16.284h13.7a93.522,93.522,0,0,0-.359-19.652,52.152,52.152,0,0,0-4.4-15.576,31.628,31.628,0,0,0-14.576-15.3,26.919,26.919,0,0,0-10.814-2.913Z" transform="translate(-369.377 -148.156)" fill="#6c63ff"/>
      <path id="Path_281" data-name="Path 281" d="M868.128,280.656v12.673a18.537,18.537,0,0,1,9.109,4.391l1.7-14.151a26.919,26.919,0,0,0-10.814-2.913Z" transform="translate(-369.02 -148.156)" opacity="0.3"/>
      <path id="Path_282" data-name="Path 282" d="M891.74,317.048a40.394,40.394,0,0,1,2.67,12.138L907,325.817a52.156,52.156,0,0,0-4.4-15.576Z" transform="translate(-378.522 -159.533)" opacity="0.3"/>
      <rect id="Rectangle_54" data-name="Rectangle 54" width="16.441" height="1.135" transform="translate(448.428 113.316)" opacity="0.1"/>
      <path id="Path_283" data-name="Path 283" d="M854.148,276.485v22.946a4.781,4.781,0,0,1-1.274-3.252V279.735a4.773,4.773,0,0,1,1.274-3.25Z" transform="translate(-362.771 -146.552)" opacity="0.1"/>
      <path id="Path_284" data-name="Path 284" d="M741.251,277.128V294.3a4.776,4.776,0,0,1-1.277,2.906v-22.99a4.776,4.776,0,0,1,1.277,2.907Z" transform="translate(-317.746 -145.681)" opacity="0.1"/>
      <rect id="Rectangle_55" data-name="Rectangle 55" width="61.656" height="0.812" transform="translate(425.616 174.975)" opacity="0.1"/>
      <rect id="Rectangle_56" data-name="Rectangle 56" width="30.142" height="0.629" transform="translate(424.806 192.788)" opacity="0.1"/>
      <rect id="Rectangle_57" data-name="Rectangle 57" width="30.142" height="0.629" transform="translate(456.896 192.788)" opacity="0.1"/>
      <rect id="Rectangle_58" data-name="Rectangle 58" width="4.718" height="40.576" transform="translate(428.479 28.897)" fill="#6c63ff"/>
      <rect id="Rectangle_59" data-name="Rectangle 59" width="4.718" height="40.576" transform="translate(481.32 28.897)" fill="#6c63ff"/>
      <circle id="Ellipse_51" data-name="Ellipse 51" cx="5.347" cy="5.347" r="5.347" transform="translate(425.318 23.864)" opacity="0.1"/>
      <circle id="Ellipse_52" data-name="Ellipse 52" cx="5.347" cy="5.347" r="5.347" transform="translate(425.318 23.55)" fill="#6c63ff"/>
      <circle id="Ellipse_53" data-name="Ellipse 53" cx="5.347" cy="5.347" r="5.347" transform="translate(478.455 23.864)" opacity="0.1"/>
      <circle id="Ellipse_54" data-name="Ellipse 54" cx="5.347" cy="5.347" r="5.347" transform="translate(478.455 23.55)" fill="#6c63ff"/>
      <path id="Path_285" data-name="Path 285" d="M636.343,490.082c-2.1,2.106-2.583,5-3.331,7.681a37.85,37.85,0,0,1-14.16,19.911c-5.129,3.8-12.005,8.009-10.789,13.68.291,1.355,1.058,2.62,1.26,3.986.873,5.914-8.168,9.031-11.668,14.207-2.607,3.855-1.911,8.632-1.136,13.023.948,5.375,2.1,11.11,6.506,15.067a18.556,18.556,0,0,1,3.438,3.282c1.86,2.885.243,6.667,1.934,9.625,2.255,3.945,9.357,4.116,13.478,1.456s6.026-7.034,7.852-11.134c4.936-11.083,11-22.2,21.263-30.272,9.836-7.738,24.145-13.741,25.833-25,.724-4.829-1.11-10.122,1.691-14.377,1.323-2.011,3.535-3.5,5.033-5.422,4.463-5.723,1.14-14-5.394-18.068C668.286,481.589,644.924,481.49,636.343,490.082Z" transform="translate(-261.423 -226.101)" fill="#dee3f3" opacity="0.5"/>
      <rect id="Rectangle_60" data-name="Rectangle 60" width="45.543" height="5.539" transform="translate(500.798 71.804) rotate(-17.351)" fill="#6c63ff"/>
      <path id="Path_286" data-name="Path 286" d="M915.623,479.683s-23.833-4.766-30.188-11.122-34.954-17.477-38.132-9.533-42.9,34.954-15.888,39.721,63.553,6.355,71.5,3.178S915.623,479.683,915.623,479.683Z" transform="translate(-352.204 -215.689)" fill="#a8a8a8"/>
      <path id="Path_287" data-name="Path 287" d="M831.419,510.322c27.01,4.767,63.553,6.355,71.5,3.178,6.05-2.42,10.254-14.047,11.916-19.458.5.107.795.166.795.166s-4.766,19.066-12.711,22.244-44.487,1.589-71.5-3.178c-7.8-1.376-10.026-4.607-9.186-8.7C822.9,507.245,825.615,509.3,831.419,510.322Z" transform="translate(-352.208 -230.213)" opacity="0.2"/>
      <path id="Path_288" data-name="Path 288" d="M989.913,149.171a7,7,0,0,0-1.972-2.733c-6.394-5.829-16.739-4.062-24.679-7.622-1.829-.82-3.705-1.958-5.692-1.646-2.773.435-5.352,3.593-7.77,2.192l.173.527c-.058-.028-.115-.057-.173-.09l1.778,5.417a19.674,19.674,0,0,0,2.731,5.952,15.582,15.582,0,0,0,3.768,25.918c.084.181.167.363.248.547.075.034.153.063.229.1a18.191,18.191,0,0,1,1.174,3.773c-2.058.285-5.646,2.56-9.175,5.921l-7.057-.241a23.079,23.079,0,0,1-12.679-4.311l-21.1-15.172a7.063,7.063,0,0,0-4.043,1.787c-2.621-2.73-4.845-5.583-4.655-7.254,0,0-9.814-18.368-13.382-9.184s6.691,18.805,6.691,18.805l6.509,8.432a35.479,35.479,0,0,0-.486,4.469c8.029,9.184,36.133,17.493,36.133,17.493l4.382.212c.009.08.017.148.024.215a14.919,14.919,0,0,0-.392,3.509c0,.17.006.347.009.525,0,.116-.01.234-.009.35.223,14.65,2.23,59.477,2.23,59.477.391-.174.794-.333,1.2-.483l-.312,3.982s-18.735,2.624-32.564,7.872-14.275,11.371-14.275,11.371V343.3c-3.951,2.027-10.183,4.691-13.382,3.266-3.473-1.548-5.38-.247-5.724,1.11h0a1.722,1.722,0,0,0-.015.816l0,.017a1.463,1.463,0,0,0,.133.346l.014.026a1.388,1.388,0,0,0,.235.31c1.338,1.312,30.334,12.682,37.025,10.933a4.633,4.633,0,0,0,.606-.2c.064-.027.122-.062.184-.091.124-.058.249-.115.365-.184.069-.041.131-.09.2-.134.1-.067.2-.132.3-.206.065-.052.124-.111.186-.167.086-.077.174-.151.254-.235.058-.061.111-.128.166-.192.076-.087.153-.173.223-.266.051-.067.1-.139.144-.209.067-.1.136-.2.2-.3.043-.071.081-.147.121-.221.06-.11.12-.219.175-.334.035-.074.066-.151.1-.227.053-.122.106-.243.154-.369.028-.074.053-.151.079-.227.047-.134.093-.268.134-.407.021-.072.04-.145.06-.218.041-.148.08-.3.115-.448.016-.067.029-.136.044-.2.035-.161.067-.324.1-.489.011-.061.02-.122.03-.184.028-.176.055-.353.077-.532.006-.051.012-.1.018-.154.022-.192.042-.384.058-.578,0-.04.006-.081.009-.122q.024-.311.039-.623c0-.028,0-.056,0-.084q.014-.334.019-.668v-.042a36.616,36.616,0,0,0-.861-7.757h0l1.619-46.026a250.974,250.974,0,0,0,26.251-.967l.96,21.959s0,14.432,4.907,20.992c4.2,5.614,9.052,30.443,10.364,37.488-1.8,3.437-5.251,7.688-11.256,7.557,0,0-11.3-.977-10.661,2.131v.005a1.632,1.632,0,0,0,.071.238l.007.02a2.179,2.179,0,0,0,.122.26l.01.017c.045.08.1.163.156.248l.036.052c.066.092.138.185.22.282l.021.023c.075.088.159.178.248.27l.075.077c.1.1.207.2.325.311,5.8,5.248,39.7,6.123,39.7,6.123v-.118c0-.033,0-.075,0-.122v-.018c-.02-1.518-.221-9.487-2.252-15.486h.47s-4.907-44.17-8.922-49.418c0,0-1.067-23.29,1.341-37.887.148-.054.3-.106.443-.161,11.246-4.2,12.044-14.544,10.886-22.144,2.127.684,3.389,1.152,3.389,1.152s-.039-.33-.111-.915l.111.041s-.215-1.389-.568-3.557c-.8-5.959-2.363-16.373-4.022-21.29-.268-1.081-.525-2-.763-2.7a46.229,46.229,0,0,1-1.964-9.084,107.62,107.62,0,0,1-.689-12.046,115.616,115.616,0,0,1,1.233-16.07,96.843,96.843,0,0,0,1.243-13.625,18.169,18.169,0,0,0-.268-3.839c-.6-2.725-3.224-4.5-5.958-5.625-.176-.073-.357-.132-.534-.2.067-1.033.154-2.2.267-3.438a2.939,2.939,0,0,0,2.273.46,5.382,5.382,0,0,0,2.769-2.161c3.954-4.856,8.013-9.917,9.532-15.949a34.464,34.464,0,0,0,.836-8.213q0-.226,0-.454A8.93,8.93,0,0,0,989.913,149.171Z" transform="translate(-376.666 -92.958)" fill="url(#linear-gradient)"/>
      <path id="Path_289" data-name="Path 289" d="M1001.59,191.111s5.99,8.985,4.706,13.263,14.119,1.711,14.119,1.711.428-16.686,3.423-20.537S1001.59,191.111,1001.59,191.111Z" transform="translate(-424.341 -111.226)" fill="#f7c4a7"/>
      <path id="Path_290" data-name="Path 290" d="M921.333,188.541s-12.408-10.268-11.98-14.119c0,0-9.413-17.97-12.835-8.985s6.417,18.4,6.417,18.4l11.98,15.83Z" transform="translate(-380.333 -102.881)" fill="#f7c4a7"/>
      <path id="Path_291" data-name="Path 291" d="M903.158,466.285s-11.552,7.273-16.258,5.134-6.418,1.284-5.134,2.567,29.094,12.408,35.511,10.7,3.154-15.727,3.154-15.727Z" transform="translate(-374.84 -219.54)" fill="#535461"/>
      <path id="Path_292" data-name="Path 292" d="M1002.031,515.964s-2.781,11.766-12.408,11.552c0,0-14.547-1.284-8.985,3.851s38.079,5.99,38.079,5.99,0-17.542-5.99-21.392A9.159,9.159,0,0,0,1002.031,515.964Z" transform="translate(-415.797 -237.986)" fill="#535461"/>
      <path id="Path_293" data-name="Path 293" d="M987.691,378.425l1.284,29.949s0,14.119,4.706,20.537,10.268,38.506,10.268,38.506h16.258s-4.706-43.213-8.557-48.347c0,0-1.711-38.079,4.278-46.635Z" transform="translate(-418.996 -183.45)" fill="#575988"/>
      <path id="Path_294" data-name="Path 294" d="M987.691,378.425l1.284,29.949s0,14.119,4.706,20.537,10.268,38.506,10.268,38.506h16.258s-4.706-43.213-8.557-48.347c0,0-1.711-38.079,4.278-46.635Z" transform="translate(-418.996 -183.45)" opacity="0.1"/>
      <path id="Path_295" data-name="Path 295" d="M992.084,337.034s9.841,23.532-8.129,30.377-50.486,5.99-50.486,5.99l-1.711,49.63s-20.109,2.567-20.537-3.851V364.845s.428-5.99,13.691-11.124,31.233-7.7,31.233-7.7L957,334.9Z" transform="translate(-389.589 -169.014)" fill="#575988"/>
      <path id="Path_296" data-name="Path 296" d="M1002.514,212.338a20.473,20.473,0,0,1,10.053,1.421c2.622,1.1,5.143,2.837,5.715,5.5.677,3.158-.074,10.24-.934,16.23a111.787,111.787,0,0,0-.522,28.363c.441,3.93,1.049,7.358,1.884,8.888,2.567,4.706,5.134,26.954,5.134,26.954s-28.238-10.7-42.357-4.279c0,0-1.925-43.855-2.139-58.187-.166-11.1,13.905-23.746,18.612-24.173C1000.717,212.808,999.775,212.622,1002.514,212.338Z" transform="translate(-415.787 -121.836)" opacity="0.1"/>
      <path id="Path_297" data-name="Path 297" d="M1002.514,210.948a20.473,20.473,0,0,1,10.053,1.421c2.622,1.1,5.143,2.837,5.715,5.5.677,3.158-.074,10.24-.934,16.23a111.788,111.788,0,0,0-.522,28.363,45.989,45.989,0,0,0,1.884,8.888c1.925,5.776,5.134,26.954,5.134,26.954s-28.238-10.7-42.357-4.279c0,0-1.925-43.855-2.139-58.187-.166-11.1,13.905-23.746,18.612-24.173C1000.717,211.418,999.775,211.232,1002.514,210.948Z" transform="translate(-415.787 -121.302)" fill="#e14b5a"/>
      <path id="Path_298" data-name="Path 298" d="M1010.154,239.108,979.777,237.4s-1.933-14.893,2.452-14.74l30.065,1.049S1018.715,231.407,1010.154,239.108Z" transform="translate(-415.789 -125.852)" opacity="0.1"/>
      <path id="Path_299" data-name="Path 299" d="M986.093,225.809,951.438,224.1s-26.954-8.129-34.656-17.114c0,0,.428-15.83,8.985-16.686l20.24,14.843a21.853,21.853,0,0,0,12.161,4.217l30.065,1.049S994.654,218.108,986.093,225.809Z" transform="translate(-391.728 -113.409)" fill="#e14b5a"/>
      <path id="Path_300" data-name="Path 300" d="M1020.2,193.3c.509-4.057,2.348-5.4,3.637-7.06,2.995-3.851-22.248,5.562-22.248,5.562a45.379,45.379,0,0,1,3.412,6.3,15.339,15.339,0,0,0,6.428,1.406C1015.154,199.507,1017.542,195.5,1020.2,193.3Z" transform="translate(-424.341 -111.494)" opacity="0.1"/>
      <circle id="Ellipse_55" data-name="Ellipse 55" cx="15.403" cy="15.403" r="15.403" transform="translate(571.69 56.78)" fill="#f7c4a7"/>
      <path id="Path_301" data-name="Path 301" d="M998.732,156.368c-1.64-1.791-2.429-4.181-3.173-6.494l-1.706-5.3c2.319,1.37,4.793-1.718,7.453-2.144,1.9-.305,3.7.808,5.459,1.611,7.616,3.483,17.537,1.755,23.67,7.457a6.846,6.846,0,0,1,1.892,2.674,8.942,8.942,0,0,1,.344,3.016,34.358,34.358,0,0,1-.8,8.035c-1.457,5.9-5.35,10.853-9.142,15.6a5.178,5.178,0,0,1-2.656,2.114c-2.2.492-3.905-1.888-4.757-3.977a42.313,42.313,0,0,1-2.482-8.587,11.249,11.249,0,0,0-1.017-3.629c-1.326-2.35-4.594-4.574-6.581-6.395C1003.28,158.563,1000.553,158.361,998.732,156.368Z" transform="translate(-421.366 -94.981)" opacity="0.1"/>
      <path id="Path_302" data-name="Path 302" d="M998.732,155.673c-1.64-1.791-2.429-4.181-3.173-6.494l-1.706-5.3c2.319,1.37,4.793-1.718,7.453-2.144,1.9-.305,3.7.808,5.459,1.611,7.616,3.483,17.537,1.755,23.67,7.457a6.846,6.846,0,0,1,1.892,2.674,8.942,8.942,0,0,1,.344,3.016,34.358,34.358,0,0,1-.8,8.035c-1.457,5.9-5.35,10.853-9.142,15.6a5.178,5.178,0,0,1-2.656,2.114c-2.2.492-3.905-1.888-4.757-3.977a42.313,42.313,0,0,1-2.482-8.587,11.248,11.248,0,0,0-1.017-3.629c-1.326-2.35-4.594-4.574-6.581-6.395C1003.28,157.868,1000.553,157.666,998.732,155.673Z" transform="translate(-421.366 -94.714)" fill="#632652"/>
      <ellipse id="Ellipse_56" data-name="Ellipse 56" cx="1.284" cy="2.781" rx="1.284" ry="2.781" transform="translate(589.873 71.113)" fill="#f7c4a7"/>
      <path id="Path_303" data-name="Path 303" d="M1023.066,306.045s-.856,2.567-5.134,2.139-16.686-1.284-16.686,0" transform="translate(-424.208 -157.919)" opacity="0.1"/>
      <path id="Path_304" data-name="Path 304" d="M980.643,540.249a3.625,3.625,0,0,1-1.245-1.785c-.112.556.231,1.278,1.245,2.213,5.562,5.134,38.079,5.99,38.079,5.99s0-.151,0-.428C1018.51,546.233,986.188,545.367,980.643,540.249Z" transform="translate(-415.799 -247.296)" fill="#fff" opacity="0.5"/>
      <path id="Path_305" data-name="Path 305" d="M917.274,487.713c-6.418,1.711-34.228-9.413-35.511-10.7a1.39,1.39,0,0,1-.356-.625,1.538,1.538,0,0,0,.356,1.481c1.284,1.284,29.094,12.408,35.511,10.7,3.3-.881,4.039-5.02,3.978-8.832C921.189,483.291,920.331,486.9,917.274,487.713Z" transform="translate(-374.838 -223.426)" fill="#fff" opacity="0.5"/>
      <path id="Path_306" data-name="Path 306" d="M398.52,452.279a183.655,183.655,0,0,1-2.755-25.264h0a33.843,33.843,0,0,0-23.816-30.907c-2.43-.748-5.111-1.447-8.066-2.074-25.928-5.507-33.8-.7-34.7-.067a33.246,33.246,0,0,1-1.963-4.287c-.044-.15-.085-.3-.127-.454a33.193,33.193,0,0,0,8.868-20c4.325-4.385,6.851-9.676,6.851-15.372a21.119,21.119,0,0,0-5.145-13.479v-7.731A33.668,33.668,0,0,0,304,298.979h-2.73A33.668,33.668,0,0,0,267.6,332.647v8.345a20.9,20.9,0,0,0-4.655,12.864c0,5.577,2.424,10.764,6.583,15.094a33.2,33.2,0,0,0,9.24,20.645c.182,1.264.369,2.625.553,4.06l-46.388,9.811s-17.884.735-29.4,24.5c-9.748,20.118-29.152,71.838-34.877,87.236h0c-1.038,2.79-1.627,4.39-1.627,4.39s.19-.192.554-.52c-.36.973-.554,1.5-.554,1.5s.282-.285.817-.753c-.812,6.444-.928,17.5,7.513,18.882,7.076,1.155,25.3,1.63,39.076,1.824v.013h.955c9.127.122,16.072.122,16.072.122v-.122h148.1v-1.518a10.207,10.207,0,0,0-.816-4.011q.107-.123.206-.248a8.129,8.129,0,0,1,1.537,3.563,3.561,3.561,0,0,1-.069.376l.087-.227a3.814,3.814,0,0,1-.087,1.207s19-48.958,18.8-78.19a49.523,49.523,0,0,0-.7-9.212ZM280.083,400.266a33.974,33.974,0,0,1-.47-4.222v-.039C279.778,397.38,279.936,398.805,280.083,400.266Zm-57.56,105.157v11.668l-7.314,1.562Z" transform="translate(-87.412 -155.202)" fill="url(#linear-gradient-2)"/>
      <path id="Path_307" data-name="Path 307" d="M327.429,241.263h0A33.668,33.668,0,0,1,361.1,274.932v14.362H293.76V274.932a33.668,33.668,0,0,1,33.669-33.669Z" transform="translate(-117.595 -92.778)" fill="#e14b5a"/>
      <ellipse id="Ellipse_57" data-name="Ellipse 57" cx="38.377" cy="26.37" rx="38.377" ry="26.37" transform="translate(171.737 174.855)" fill="#e14b5a"/>
      <path id="Path_308" data-name="Path 308" d="M345.74,428.68s8.005,41.909,0,53.21,24.486,15.775,24.486,15.775l33.668-12.243,4.709-30.137s-20.484-11.537-16.246-34.846Z" transform="translate(-160.456 -201.91)" fill="#f7c4a7"/>
      <path id="Path_309" data-name="Path 309" d="M487.67,655.565s2.119,9.182-9.418,10.83a65.239,65.239,0,0,1-20.529-.245l-2.545-23.064h26.841Z" transform="translate(-204.452 -287.529)" fill="#f7c4a7"/>
      <path id="Path_310" data-name="Path 310" d="M176.223,636.015s-5.095,20.7,6.442,22.584,53.916,1.883,53.916,1.883V636l-19.185,4.1-18.015-17.282Z" transform="translate(-90.514 -279.732)" fill="#f7c4a7"/>
      <path id="Path_311" data-name="Path 311" d="M282.8,454.551l-45.087,9.535s-17.187.706-28.253,23.544-35.081,88.056-35.081,88.056,20.484-20.719,44.5,1.413l16.01-28.959-3.532,45.911H355.439V572.39s25.9,13.891,24.015,21.661c0,0,22.162-57.1,17.4-83.054a176.486,176.486,0,0,1-2.648-24.279h0a32.525,32.525,0,0,0-22.888-29.7c-2.336-.719-4.912-1.39-7.752-1.994-26.605-5.651-33.433,0-33.433,0s-5.154,16.769-5.062,24.368c.118,9.771-13.891,16.246-13.891,16.246s-20.719-4.944-21.661-8.947S281.157,459.26,282.8,454.551Z" transform="translate(-90.238 -214.243)" opacity="0.1"/>
      <path id="Path_312" data-name="Path 312" d="M282.8,453.021l-45.087,9.535s-17.188.706-28.253,23.544-35.081,88.056-35.081,88.056,20.484-20.719,44.5,1.413l16.01-28.959-3.532,45.911H355.439V570.86s25.9,13.891,24.015,21.661c0,0,22.162-57.1,17.4-83.054a176.488,176.488,0,0,1-2.648-24.279h0a32.525,32.525,0,0,0-22.888-29.7c-2.336-.719-4.912-1.39-7.752-1.993-26.605-5.651-33.433,0-33.433,0s-5.154,16.769-5.062,24.368c.118,9.771-13.891,16.246-13.891,16.246s-20.719-4.944-21.661-8.947S281.157,457.73,282.8,453.021Z" transform="translate(-90.238 -213.654)" fill="#575988"/>
      <path id="Path_313" data-name="Path 313" d="M395.527,440.6a31.869,31.869,0,0,1-1.229-16.717l-46.618,8.24s.673,3.523,1.433,8.8a32.015,32.015,0,0,0,46.413-.325Z" transform="translate(-161.618 -203.234)" opacity="0.1"/>
      <path id="Path_314" data-name="Path 314" d="M398.331,392.016a32.019,32.019,0,1,1-64.034.777q-.007-.389-.007-.777a32.03,32.03,0,0,1,17.955-28.776q1.433-.7,2.955-1.264a32.249,32.249,0,0,1,16.493-1.53.017.017,0,0,0,.012,0,32,32,0,0,1,26.556,29.447Q398.331,390.947,398.331,392.016Z" transform="translate(-156.381 -178.666)" fill="#f7c4a7"/>
      <g id="Group_106" data-name="Group 106" transform="translate(177.911 182.505)" opacity="0.1">
        <path id="Path_315" data-name="Path 315" d="M355.156,364.416a.466.466,0,0,1,.045-.028,32.008,32.008,0,0,0-20.91,30.04c0,.259,0,.518.009.777a7.113,7.113,0,0,0,2.872-.69c7.807-3.642,12.49-14.791,14.329-22.565C352.161,369.168,352.792,366.031,355.156,364.416Z" transform="translate(-334.291 -362.86)"/>
        <path id="Path_316" data-name="Path 316" d="M390.881,364.361a31.758,31.758,0,0,0-7.96-2.456,10.272,10.272,0,0,1,5.717,3.591,14.64,14.64,0,0,1,1.75,3.12,32.106,32.106,0,0,0-26.931.558c2.011,4.405,8.243,6.809,12.4,8.417q6.834,2.638,13.828,4.824-2.059-1.674-4.118-3.343l9.3,1.479a16.107,16.107,0,0,0-.649-5.481c1.77,1.435,4.143,1.917,6.076,3.136,3.623,2.284,5.13,6.691,7.106,10.491a6.776,6.776,0,0,0,2.077,2.656,32.034,32.034,0,0,0-18.6-26.991Z" transform="translate(-345.507 -361.905)"/>
      </g>
      <path id="Path_317" data-name="Path 317" d="M355.156,363.241a.471.471,0,0,1,.045-.028,32.008,32.008,0,0,0-20.91,30.04c0,.259,0,.518.009.777a7.113,7.113,0,0,0,2.872-.69c7.807-3.642,12.49-14.791,14.329-22.565C352.161,367.993,352.792,364.856,355.156,363.241Z" transform="translate(-156.082 -179.903)" fill="#632652"/>
      <path id="Path_318" data-name="Path 318" d="M390.881,363.186a31.754,31.754,0,0,0-7.96-2.456,10.272,10.272,0,0,1,5.717,3.591,14.641,14.641,0,0,1,1.75,3.12,32.106,32.106,0,0,0-26.931.558c2.011,4.405,8.243,6.809,12.4,8.417q6.834,2.638,13.828,4.824-2.059-1.674-4.118-3.343l9.3,1.479a16.1,16.1,0,0,0-.649-5.481c1.77,1.435,4.143,1.917,6.076,3.136,3.623,2.284,5.13,6.691,7.106,10.491a6.776,6.776,0,0,0,2.077,2.656,32.034,32.034,0,0,0-18.6-26.991Z" transform="translate(-167.911 -178.949)" fill="#632652"/>
      <path id="Path_319" data-name="Path 319" d="M328.362,384.407s32.962-40.967,71.1,0l-3.3-9.182s-17.894-26.134-30.608-20.484-25.192,9.653-25.192,9.653Z" transform="translate(-154.06 -176.338)" opacity="0.1"/>
      <path id="Path_320" data-name="Path 320" d="M328.362,383.232s32.962-40.967,71.1,0l-3.3-9.182s-17.894-26.134-30.608-20.484-25.193,9.653-25.193,9.653Z" transform="translate(-154.06 -175.886)" fill="#e14b5a"/>
      <path id="Path_321" data-name="Path 321" d="M280.69,545.726s-7.063,18.836,2.825,35.787-8.711,24.015-8.711,24.015" transform="translate(-132.286 -250.089)" opacity="0.1"/>
      <path id="Path_322" data-name="Path 322" d="M468.226,518.182s12.243,15.539,4.238,29.43-7.534,47.324-7.534,47.324" transform="translate(-208.136 -239.497)" opacity="0.1"/>
      <path id="Path_323" data-name="Path 323" d="M222.048,600.1H358.133a11.3,11.3,0,0,1,11.3,11.3H210.746a11.3,11.3,0,0,1,11.3-11.3Z" transform="translate(-84.932 -230.769)" fill="#535461"/>
      <path id="Path_324" data-name="Path 324" d="M247.373,473.857h95.144a24,24,0,0,1,24,24v56.283H223.37V497.859A24,24,0,0,1,247.373,473.857Z" transform="translate(-89.903 -182.222)" fill="#535461"/>
      <circle id="Ellipse_58" data-name="Ellipse 58" cx="8.476" cy="8.476" r="8.476" transform="translate(195.704 326.834)" fill="#fff"/>
      <path id="Path_325" data-name="Path 325" d="M331.422,363.131s32.4-32.379,67.337-.59" transform="translate(-155.257 -174.27)" fill="none" stroke="#000" stroke-miterlimit="10" stroke-width="1" opacity="0.1"/>
      <rect id="Rectangle_61" data-name="Rectangle 61" width="3.254" height="18.438" transform="translate(247.187 186.799)" fill="#6a5c99"/>
      <path id="Path_326" data-name="Path 326" d="M404.137,322.9h0a11.207,11.207,0,0,1,11.207,11.207v.723a11.207,11.207,0,0,1-11.207,11.207h0Z" transform="translate(-161.255 -124.172)" fill="#ffd037"/>
      <rect id="Rectangle_62" data-name="Rectangle 62" width="5.061" height="25.307" rx="2.531" transform="translate(240.816 197.644)" fill="#6a5c99"/>
      <rect id="Rectangle_63" data-name="Rectangle 63" width="3.254" height="18.438" transform="translate(171.528 205.598) rotate(180)" fill="#6a5c99"/>
      <path id="Path_327" data-name="Path 327" d="M0,0H0A11.207,11.207,0,0,1,11.207,11.207v.723A11.207,11.207,0,0,1,0,23.138H0Z" transform="translate(175.906 222.228) rotate(180)" fill="#ffd037"/>
      <rect id="Rectangle_64" data-name="Rectangle 64" width="5.061" height="25.307" rx="2.531" transform="translate(177.916 223.313) rotate(180)" fill="#6a5c99"/>
      <path id="Path_328" data-name="Path 328" d="M397.419,323.648c-4.406-9.16-14-20.236-34.685-21.12l0-.025-.248.012h-.016v0l-7.328.349v.036c-20.548.946-30.1,11.978-34.489,21.109a47.486,47.486,0,0,0-4.542,19.77l2.53-.062,2.53-.058a43.059,43.059,0,0,1,4.12-17.614c5.579-11.456,15.841-17.55,30.5-18.112v0l6.481-.359v0c14.662.562,24.925,6.656,30.5,18.112A43.058,43.058,0,0,1,396.9,343.3l2.53.058,2.53.062A47.486,47.486,0,0,0,397.419,323.648Z" transform="translate(-149.262 -156.557)" fill="#ffd037"/>
      <rect id="Rectangle_65" data-name="Rectangle 65" width="345.131" height="92.663" transform="translate(23.15 380.781)" fill="#d6d6e3"/>
      <rect id="Rectangle_66" data-name="Rectangle 66" width="345.131" height="12.028" transform="translate(23.15 387.018)" opacity="0.1"/>
      <rect id="Rectangle_67" data-name="Rectangle 67" width="391.428" height="12.028" transform="translate(0 379.445)" fill="#d6d6e3"/>
      <path id="Path_329" data-name="Path 329" d="M473.166,633.295s14.771,27.08,51.7,19.694S543.943,721.3,543.943,721.3s-6.042,36.112-1.79,35.9" transform="translate(-212.085 -283.763)" fill="none" stroke="#535461" stroke-miterlimit="10" stroke-width="3"/>
    </g>
    <g id="ilustration_2" data-name="ilustration 2" transform="translate(1077.483 1344)">
      <g id="humaaans_sitting-8" data-name="humaaans/sitting-8" transform="translate(0 14.284)">
        <g id="A-Human_Sitting" data-name="A-Human/Sitting" transform="translate(0 0)">
          <g id="Head_Front_Short-2" data-name="Head/Front/Short-2" transform="translate(41.909 0)">
            <g id="Head" transform="translate(2.122 3.713)">
              <path id="Path_70" data-name="Path 70" d="M4.383,18.3A14.371,14.371,0,0,1,.561,7.971c.8-11.353,16.6-8.855,19.674-3.125S22.943,25.11,18.97,26.134c-1.584.408-4.96-.592-8.395-2.663l2.156,15.255H0Z" transform="translate(0 0)" fill="#915b3c" fill-rule="evenodd"/>
            </g>
            <path id="Hair" d="M5.527,24.566C3.929,17.457-.624,12.61.072,9.433A4.819,4.819,0,0,1,3.778,5.481Q5.335-.818,13.822.122c8.487.941,13.667,4.465,11.43,12.221-2.056,0-4.539-.744-7.972.53q-1.634.606-2.337,3.761H13.393q-2.258-3.744-4.453-2.752t-1,4.821l-.764,5.861Z" fill="#191847" fill-rule="evenodd"/>
          </g>
          <g id="Bottom_Sitting_Baggy-Pants" data-name="Bottom/Sitting/Baggy-Pants" transform="translate(0 86.63)">
            <g id="Objects_Seat_Cube-2" data-name="Objects/Seat/Cube-2" transform="translate(0 22.12)">
              <path id="Seat" d="M8.488,0H69.494a8.488,8.488,0,0,1,8.488,8.488v48.8a8.488,8.488,0,0,1-8.488,8.488H8.488A8.488,8.488,0,0,1,0,57.293V8.488A8.488,8.488,0,0,1,8.488,0Zm8.488,14.854a2.122,2.122,0,0,0-2.122,2.122V48.8a2.122,2.122,0,0,0,2.122,2.122H61.006A2.122,2.122,0,0,0,63.128,48.8V16.976a2.122,2.122,0,0,0-2.122-2.122Z" fill="#c5cfd6" fill-rule="evenodd"/>
            </g>
            <path id="LegLower" d="M35.1,62.067Q19.408,42.909,13.866,33.662C7.54,23.105,2.362,13.712.728,10.124-3.168,1.568,9.7-2.439,12.61,1.552q6.611,9.061,28.237,57.023Z" transform="translate(95.488 23.181)" fill="#b28b67" fill-rule="evenodd"/>
            <path id="LegLower-2" data-name="LegLower" d="M20.03,61.006l-19.465-49c-4.163-8.932,15.942-14.8,19-10.646C26.512,10.8,43.022,48.027,45.092,50.839Z" transform="translate(89.122 20.529)" fill="#2f3676" fill-rule="evenodd"/>
            <g id="Lower-Leg" transform="matrix(0.777, 0.629, -0.629, 0.777, 91.509, 27.956)">
              <path id="LegLower-3" data-name="LegLower" d="M.957,55.525C.423,48.84-.569,25.7.424,14.989c.285-3.078.586-6.054.889-8.845.9-8.3,16.286-8.035,15.064-.152-3.043,19.632-8.4,47.145-8.782,49.522C7.056,58.846,1.293,59.726.957,55.525Z" transform="translate(0 0)" fill="#915b3c" fill-rule="evenodd"/>
            </g>
            <g id="Accessories_Shoe_Flat-Sneaker" data-name="Accessories/Shoe/Flat-Sneaker" transform="translate(59.036 65.976) rotate(30)">
              <path id="shoe" d="M.89,3.22A11.391,11.391,0,0,0,0,6.776a26.618,26.618,0,0,0,.478,4.188H30.4Q31.565,7.108,29.052,6.8t-4.175-.555L10.971.046a.53.53,0,0,0-.7.269l-.006.014L9.37,2.5A9.54,9.54,0,0,1,5.59,3.582a8.562,8.562,0,0,1-3.264-.954h0A1.061,1.061,0,0,0,.919,3.15Q.9,3.185.89,3.22Z" transform="translate(0 0)" fill="#e4e4e4" fill-rule="evenodd"/>
            </g>
            <g id="Accessories_Shoe_Flat-Sneaker-2" data-name="Accessories/Shoe/Flat-Sneaker" transform="translate(125.195 80.119)">
              <path id="shoe-2" data-name="shoe" d="M.89,3.22A11.391,11.391,0,0,0,0,6.776a26.618,26.618,0,0,0,.478,4.188H30.4Q31.565,7.108,29.052,6.8t-4.175-.555L10.97.046a.53.53,0,0,0-.7.269l-.006.014L9.37,2.5A9.54,9.54,0,0,1,5.59,3.582a8.562,8.562,0,0,1-3.264-.954h0A1.061,1.061,0,0,0,.919,3.15Q.9,3.185.89,3.22Z" transform="translate(0 0)" fill="#e4e4e4" fill-rule="evenodd"/>
            </g>
            <path id="Leg-and-Butt" d="M50.767,34.985Q26.5,31.031,18.258,29.578C2.6,26.816-1.971,18.388.73,0H29.586q5.728,1.654,47.868,20.461c5.055,2.509,4.113,9.907,3.189,12.345q-.056.149-25.563,43.8L31.475,61.57,50.812,36.757Q51.577,35.214,50.767,34.985Z" transform="translate(31.916 0)" fill="#5c63ab" fill-rule="evenodd"/>
          </g>
          <g id="Body_Hoodie" data-name="Body/Hoodie" transform="translate(1.678 28.905)">
            <path id="Skin" d="M83.084,0l16.922,12.426a45.553,45.553,0,0,1,11.5,4.623c.727.663,1.606,2-1.411,1.773s-6.2-.341-6.616.689,1.41,2.259.568,3.648q-.842,1.389-7.95-6.962L79.344,9.247ZM18.114.429,29.2.472Q18.932,33.618,18.114,35.646c-1.227,3.042,1.37,7.675,2.481,10.165-3.618,1.619-3.232-4.377-7.8-2.254C8.632,45.5,5.463,49.007.651,46.037.059,45.672-.59,44.3.977,43.223c3.9-2.676,9.528-7.361,10.288-8.9Q12.82,31.167,18.114.429Z" transform="translate(0 50.781)" fill="#915b3c" fill-rule="evenodd"/>
            <path id="Coat-Back" d="M0,1.184,4.5,0C22.738,13.163,32.163,40.692,54.25,53.78l-4.46,6.638C13.345,59.108,1.406,25.568,0,1.184Z" transform="translate(49.721 3.513) rotate(5)" fill="#e87613" fill-rule="evenodd"/>
            <path id="Shirt" d="M0,60.476H40.588c1.855,0,1.506-2.678,1.237-4.03-3.094-15.6-15.173-32.409-15.173-54.61L14.945,0C5.261,15.574,1.912,34.749,0,60.476Z" transform="translate(29.621 1.864)" fill="#dde3e9" fill-rule="evenodd"/>
            <path id="Coat-Front" d="M18.964,17.173a6.7,6.7,0,0,1-4.04-3.42C10.645,6.031,12.191,1.78,16.764.383S25.415,1.864,32.7,1.864a7.339,7.339,0,0,1,1.089.075l3.665.209q15.773,53.458,8.7,71.332H14.209A108.955,108.955,0,0,1,8.776,84.62H.071Q-1.158,44.887,18.964,17.173Z" transform="translate(10.983 0)" fill="#ff9b21" fill-rule="evenodd"/>
            <path id="Shade" d="M6.956,0q1.507,12.609,4.9,18.3H0Q3.312,10.58,6.956,0Z" transform="translate(25.192 55.177)" fill="rgba(0,0,0,0.1)" fill-rule="evenodd"/>
          </g>
        </g>
      </g>
      <g id="Symbols" transform="translate(139.515 76.369)">
        <g id="Scene_Plants" data-name="Scene/Plants" transform="translate(0)">
          <path id="Leaf-Bottom" d="M35.559,3.227c.974-.421,2.211.191,1.618,1.409-.636,1.3-2.728,1.21-3.907,1.122.119,0,.563-1.2.7-1.38A4.01,4.01,0,0,1,35.559,3.227ZM23.366,26.552C23.116,26.744,23.346,26.57,23.366,26.552ZM36.158,9.3a1.128,1.128,0,0,1,.04,1.689,2.74,2.74,0,0,1-2.292.4c-.332-.044-2.1-.28-1.667-.549a1.438,1.438,0,0,0-.177.073q-.07.211-.145.42l.03.02c-.012-.006-.02-.012-.03-.018a16.351,16.351,0,0,1-2.045,3.923,3.857,3.857,0,0,1,.934-.2c.934-.069,2.849.755,1.746,1.937-1.058,1.133-2.541-.22-3.662-.454a52.9,52.9,0,0,1-3.8,4.226.3.3,0,0,1,.177.164,7.445,7.445,0,0,1,1.546-.647c.686-.108,2.082-.123,2.563.512.592.78-.116,1.351-.869,1.455A7.8,7.8,0,0,1,25,21.4a.344.344,0,0,1-.321-.126l-.067-.026c-1.356,1.343-2.759,2.637-4.153,3.9h.043a3.6,3.6,0,0,1,1.144-.451,3.053,3.053,0,0,1,2.751.59,1.764,1.764,0,0,1,.1,2.6c-1.633,1.422-3.743-2.126-4.52-2.31-1.415,1.27-2.9,2.449-4.412,3.6a2.582,2.582,0,0,1,.512-.077c1.423-.061,4.657,1.849,2.829,3.467-1.593,1.409-3.2-1.548-4.364-2.614C13.13,31.029,11.7,32.094,10.31,33.2a3.876,3.876,0,0,1,2.2.129c.792.286,2.059.962,1.493,2.021-.575,1.078-2.108.493-2.9.1a22.035,22.035,0,0,0-2.053-1.22,26.744,26.744,0,0,0-5.71,6.531A23.405,23.405,0,0,0,1.08,45.8a15.223,15.223,0,0,0-1,4.49c-.4-2.994.792-6.5,2.016-9.094a22.307,22.307,0,0,1,4.58-6.278c-.37-1.343-3.963-3.44-1.691-4.551,1.207-.587,2.351.552,2.548,1.7a4.83,4.83,0,0,1-.509,2.507q.871-.837,1.8-1.614c.854-.716,1.727-1.41,2.607-2.093-1.319-1.376-2.437-5.171-.545-5.682,2.794-.753,1.2,4.26.963,5.2a.15.15,0,0,1-.126-.055c.011.088.024.182.041.277,1.684-1.3,3.39-2.574,5.046-3.909a7.267,7.267,0,0,1-.509-.751,8.135,8.135,0,0,1-.986-1.608c-.4-.916-.75-2.362.453-2.825,1.309-.505,1.833,1.137,1.791,2.1a12.76,12.76,0,0,1-.371,1.932c-.04.2.025,1.123-.231.715a1.939,1.939,0,0,1-.009.325q.446-.362.886-.731a.345.345,0,0,1-.019-.112.332.332,0,0,1,.492-.288q.582-.5,1.15-1.012c.8-.728,1.616-1.477,2.425-2.244-.159-.152-.082-.346-.23-.506s-.449-.259-.625-.409a4.426,4.426,0,0,1-1.044-1.436c-.411-.863-.907-2.653.443-2.983,1.392-.341,2,1.389,2.031,2.453a27.042,27.042,0,0,1-.4,2.712c1.5-1.425,2.976-2.907,4.323-4.424a4.925,4.925,0,0,1-1.638-1.092c-.509-.551-1.3-1.751-.328-2.313.864-.5,1.854.341,2.171,1.123a10.729,10.729,0,0,1,.187,1.835c.559-.644,1.093-1.293,1.593-1.945q.5-.651.943-1.339a.629.629,0,0,1-.175-.191c-1.382-.31-3.046-2.578-1.368-3.249.8-.319,1.605.468,1.955,1.1a8.115,8.115,0,0,1,.243,1.26,26.131,26.131,0,0,0,2.086-4.82.3.3,0,0,1-.223-.295,4.158,4.158,0,0,1-1.608-1.538c-.269-.476-.743-1.557.133-1.768,1.14-.274,1.755,1.477,1.8,2.327.006.1-.01.384-.027.645a.377.377,0,0,1,.117.008c.313-1.037.574-2.091.794-3.149-.6-.229-.54-3.453-.108-3.89.966-.978,1.531.538,1.441,1.318a5.178,5.178,0,0,1-1.106,2.458c-.057.076-.042.073-.05-.038a.223.223,0,0,1-.059.121,14.022,14.022,0,0,1-.022,1.417,32.853,32.853,0,0,1-.614,3.665q-.1.44-.22.871A7.141,7.141,0,0,1,33.769,9.3,2.489,2.489,0,0,1,36.158,9.3ZM0,50.292a3.473,3.473,0,0,0,.193,1.161A9.055,9.055,0,0,1,0,50.292Z" transform="translate(27.34 1.954) rotate(-3)" fill="#f2f2f2" fill-rule="evenodd"/>
          <g id="Plant-Right" transform="translate(0 10.134)" opacity="0.7">
            <path id="Leaf-Me-Alone_" data-name="Leaf-Me-Alone!" d="M12.941.008c-2.641.14-5.728,2.014-5.708,4.9.014,2.1.295,4.157.2,6.262A16.862,16.862,0,0,1,6.42,16.079c-.546,1.523-1.866,2.91-2.08,4.5a6.681,6.681,0,0,0,.577,3.317c.526,1.131.3,1.061-.4,2.13a26.878,26.878,0,0,0-3.338,6.634A20.6,20.6,0,0,0,.467,43.69c.117.454.372,2.1,1.019,2.151.723.055.292-.858.222-1.16A20.115,20.115,0,0,1,.95,39.057C1.27,31.288,6.229,25.67,9.12,18.8c.161-.356.492-1.2.725-1.753.368-.878.66-2.507,1.211-3.187,1.039-1.282.217,1.162.037,1.631-.227.593-.478,1.225-.72,1.749C9.274,19.67,8.04,22.324,6.9,24.828c6.133.735,9.594-6.908,10.7-11.811C18.521,8.978,19.147-.307,12.941.008" transform="translate(31.654 20.958) rotate(6)" fill="#69a1ac" fill-rule="evenodd"/>
            <path id="Leaf-Me-Alone_2" data-name="Leaf-Me-Alone!" d="M118.129,78.023c4.414.35,7.249,3.263,8.568,7.338a48.151,48.151,0,0,1,1.188,6.708,14.33,14.33,0,0,0,4.373,8.386,8.437,8.437,0,0,1,1.75,2.341,9.972,9.972,0,0,1,2.021,2.888,5.334,5.334,0,0,1,.085,4.64,4.756,4.756,0,0,1-1.241,1.525,29.885,29.885,0,0,1,2.941,13.423c-.074,2.779-.21,5.559-.368,8.335-.043.745-.285,1.976-.65.726-.334-1.143.085-2.938.123-4.132.188-5.819.349-11.109-2.046-16.545-.251-.57-.518-1.135-.795-1.7a.554.554,0,0,1-.047-.032l-.031.025c-.018-.032-.042-.069-.07-.111a1.513,1.513,0,0,1-.215-.3,2.189,2.189,0,0,1-.454-.83s0,0,0-.005a78.349,78.349,0,0,0-4.916-6.95c.013.016-1.882-2.563-1.589-1.137.141.688,1.535,2,2.1,2.725A67.862,67.862,0,0,1,132.776,111a2.857,2.857,0,0,1,.562.9c.092.174.178.35.263.5-4.305,1.422-7.654-1.443-9.938-4.775l-.008-.012a14.484,14.484,0,0,0-2.3-2.563c-1.484-1.215-3.073-1.429-4.822-2.027-4.771-1.63-6.8-7.813-7.443-12.4-.727-5.176,2.828-13.112,9.035-12.6" transform="translate(-109 -62.987)" fill="#89c5cc" fill-rule="evenodd"/>
            <path id="Leaf-Me-Alone_3" data-name="Leaf-Me-Alone!" d="M18.973,58.555C13.83,54.516,10.752,48.344,8.18,42.5A79.205,79.205,0,0,1,2.028,22.173C1.343,17.532.56,12.875.179,8.2a49.861,49.861,0,0,1-.171-5C.011,3.057.083-.665.762.1,1.148.542.693,3.965.7,4.523A71.582,71.582,0,0,0,1.549,13.9C2.3,19.022,2.866,24.141,4.1,29.173a17.456,17.456,0,0,0,.644,2.264c.3.766.01.454.68.68.651.22,1.4.07,2.082.364,2.718,1.167,4.547,4.887,5.9,7.306a49.5,49.5,0,0,1,3.67,8.791A65.04,65.04,0,0,1,18.9,55.261a17.865,17.865,0,0,0,.5,2.16,4.984,4.984,0,0,1,.321.669c.036.361-.151.6-.127.907q-.317-.214-.626-.441" transform="translate(28.489 61.168) rotate(-172)" fill="#89c5cc" fill-rule="evenodd"/>
            <path id="Base" d="M66.241,328A14.12,14.12,0,0,1,38,328" transform="translate(-23.686 -264.629)" fill="#89c5cc" fill-rule="evenodd"/>
            <path id="Leaf-Me-Alone_4" data-name="Leaf-Me-Alone!" d="M131.6,276.425h.746a25.047,25.047,0,0,0-.277-2.8c-.6-3.54-2.47-8.74-6.575-9.315a10.607,10.607,0,0,0-1.383.015,2.492,2.492,0,0,0-1.056-.312c-3.495-.258-7.4,2.562-9.083,5.5-1.359,2.365-1.13,5.472-.291,7.985.562,1.682,1.789,4.081,3.835,4.1,2.559.029,2.683-3.134,2.732-4.983.066-2.459.376-4.6,2.314-6.276.451-.39.945-.734,1.4-1.119a3.519,3.519,0,0,0,1.6-2.217c.127-1.375-.649-1.623-1.835-1.367-.2.044-2.238.957-1.936.235a1.342,1.342,0,0,1,.852-.526,15.954,15.954,0,0,1,2.783-.175c4.061.891,5.642,6.517,6.062,10.091C131.528,275.65,131.565,276.037,131.6,276.425Z" transform="translate(-104.296 -213.009)" fill="#69a1ac" fill-rule="evenodd"/>
          </g>
        </g>
      </g>
      <line id="Line_3" data-name="Line 3" x1="77.479" transform="translate(129.344 163.831)" fill="none" stroke="#707070" stroke-width="1"/>
      <g id="Symbols-2" data-name="Symbols" transform="translate(110.082)">
        <g id="Scene_Home" data-name="Scene/Home">
          <g id="Clock">
            <circle id="Clock-Frame" cx="22.941" cy="22.941" r="22.941" fill="#f2f2f2"/>
            <circle id="Time" cx="1.299" cy="1.299" r="1.299" transform="translate(21.642 3.463)" fill="rgba(0,0,0,0.1)"/>
            <circle id="Time-2" data-name="Time" cx="1.299" cy="1.299" r="1.299" transform="translate(39.822 21.642)" fill="rgba(0,0,0,0.1)"/>
            <circle id="Time-3" data-name="Time" cx="1.299" cy="1.299" r="1.299" transform="translate(3.463 21.642)" fill="rgba(0,0,0,0.1)"/>
            <circle id="Time-4" data-name="Time" cx="1.299" cy="1.299" r="1.299" transform="translate(21.642 39.822)" fill="rgba(0,0,0,0.1)"/>
            <path id="Hand" d="M51.866,17,51,32.15h1.731Z" transform="translate(-28.925 -9.642)" fill="#afb9c5" fill-rule="evenodd"/>
            <path id="Hand-2" data-name="Hand" d="M.866,10.388,1.731,0H0Z" transform="translate(22.014 22.644) rotate(45)" fill="#afb9c5" fill-rule="evenodd"/>
            <circle id="Time-5" data-name="Time" cx="1.731" cy="1.731" r="1.731" transform="translate(21.209 21.209)" fill="#c5cfd6"/>
          </g>
        </g>
      </g>
    </g>
  </g>
</svg>
