<svg xmlns="http://www.w3.org/2000/svg" width="1046.358" height="501.497" viewBox="0 0 1046.358 501.497">
  <g id="illustration_1" data-name="illustration 1" transform="translate(-2053.999 -849.111)">
    <g id="illustration_new_1" data-name="illustration new 1" transform="translate(2053.999 849.111)">
      <g id="Group_108" data-name="Group 108" transform="translate(395.17)">
        <path id="Path_330" data-name="Path 330" d="M379.8,411.573h-.038a16.049,16.049,0,0,1-8.934-2.595A16.65,16.65,0,0,1,363.26,394.4l6.209-155.1a16.472,16.472,0,0,1,16.5-15.856H739.128a46.635,46.635,0,0,1,30.667,11.5l85.1,74.256a69.107,69.107,0,0,1,33.766,63.71c-.529,8.964-.9,14.45-1.141,18.08a153.082,153.082,0,0,0-.454,17.016l.018,2.441h-.4Z" transform="translate(-318.612 -223.444)" fill="#f0f0f0"/>
        <path id="Path_332" data-name="Path 332" d="M888.908,335.652a6.8,6.8,0,0,1-1.832-.253l-61.085-17.083a6.789,6.789,0,0,1-4.933-6.416l-.476-37.143a6.753,6.753,0,0,1,6.937-6.837l36.244.993a6.717,6.717,0,0,1,4.639,2.025l26.2,26.746a6.783,6.783,0,0,1,1.925,4.95l-.883,26.487a6.76,6.76,0,0,1-6.736,6.531Z" transform="translate(-409.74 -232.306)" fill="#fff"/>
        <circle id="Ellipse_59" data-name="Ellipse 59" cx="30.574" cy="30.574" r="30.574" transform="translate(499.046 154.294)" fill="#3f3d56"/>
        <circle id="Ellipse_60" data-name="Ellipse 60" cx="19.343" cy="19.343" r="19.343" transform="translate(510.278 165.525)" fill="#fff"/>
        <path id="Path_333" data-name="Path 333" d="M914.438,349.608h-2.5a8.209,8.209,0,0,1-8.2-8.2V323.314a8.209,8.209,0,0,1,8.2-8.2h2.5a8.209,8.209,0,0,1,8.2,8.2v18.095A8.209,8.209,0,0,1,914.438,349.608Z" transform="translate(-426.311 -241.71)" fill="#3f3d56"/>
        <rect id="Rectangle_68" data-name="Rectangle 68" width="146.582" height="3.744" transform="translate(81.307 76.611)" fill="#f0f0f0"/>
        <rect id="Rectangle_69" data-name="Rectangle 69" width="146.582" height="3.744" transform="translate(81.307 101.57)" fill="#f0f0f0"/>
        <path id="Path_334" data-name="Path 334" d="M455.575,386.3H444.968a4.377,4.377,0,1,1,0-8.754h10.607a4.377,4.377,0,1,1,0,8.754Z" transform="translate(-334.023 -254.152)" fill="#f0f0f0"/>
        <path id="Path_335" data-name="Path 335" d="M474,378.55a3.576,3.576,0,1,0,0,7.153h10.607a3.576,3.576,0,1,0,0-7.153Z" transform="translate(-339.967 -254.351)" fill="#f0f0f0"/>
        <path id="Path_336" data-name="Path 336" d="M513.237,386.3H502.631a4.377,4.377,0,0,1,0-8.754h10.607a4.377,4.377,0,0,1,0,8.754Z" transform="translate(-345.513 -254.152)" fill="#f0f0f0"/>
        <path id="Path_337" data-name="Path 337" d="M558.871,396.748H427.181a5.313,5.313,0,1,1,0-10.626h131.69a5.313,5.313,0,1,1,0,10.626Z" transform="translate(-330.293 -255.859)" fill="#f0f0f0"/>
        <path id="Path_338" data-name="Path 338" d="M429.772,346.322H424.7a1.594,1.594,0,0,1-1.593-1.592v-11.1a1.6,1.6,0,0,1,1.593-1.593.326.326,0,0,0,.326-.326v-2.4a2.21,2.21,0,1,1,4.419,0v2.4a.326.326,0,0,0,.326.326,1.6,1.6,0,0,1,1.593,1.593v11.1A1.594,1.594,0,0,1,429.772,346.322Z" transform="translate(-330.54 -244.099)" fill="#f0f0f0"/>
        <path id="Path_339" data-name="Path 339" d="M444.9,346.322h-5.072a1.594,1.594,0,0,1-1.593-1.593v-11.1a1.6,1.6,0,0,1,1.593-1.593.327.327,0,0,0,.326-.326v-2.4a2.21,2.21,0,0,1,4.419,0v2.4a.326.326,0,0,0,.326.326,1.6,1.6,0,0,1,1.593,1.593v11.1a1.6,1.6,0,0,1-1.593,1.593Z" transform="translate(-333.555 -244.099)" fill="#f0f0f0"/>
        <path id="Path_340" data-name="Path 340" d="M542.1,317.221H537.03a1.6,1.6,0,0,1-1.593-1.593v-11.1a1.6,1.6,0,0,1,1.593-1.593.326.326,0,0,0,.326-.326v-2.4a2.21,2.21,0,1,1,4.419,0v2.4a.327.327,0,0,0,.326.326,1.6,1.6,0,0,1,1.593,1.593v11.1A1.6,1.6,0,0,1,542.1,317.221Z" transform="translate(-352.922 -238.3)" fill="#f0f0f0"/>
        <path id="Path_341" data-name="Path 341" d="M557.234,317.221h-5.072a1.6,1.6,0,0,1-1.593-1.593v-11.1a1.6,1.6,0,0,1,1.593-1.593.326.326,0,0,0,.326-.326v-2.4a2.21,2.21,0,1,1,4.419,0v2.4a.326.326,0,0,0,.326.326,1.6,1.6,0,0,1,1.593,1.593v11.1A1.6,1.6,0,0,1,557.234,317.221Z" transform="translate(-355.938 -238.3)" fill="#f0f0f0"/>
        <path id="Path_342" data-name="Path 342" d="M464.167,349.424h-5.182a2.706,2.706,0,0,1-2.7-2.7v-6.58a2.706,2.706,0,0,1,2.7-2.7h5.182a2.706,2.706,0,0,1,2.7,2.7v6.58a2.706,2.706,0,0,1-2.7,2.7Z" transform="translate(-337.15 -246.159)" fill="#f0f0f0"/>
        <path id="Path_355" data-name="Path 355" d="M897.135,493.158H319.8a.8.8,0,1,1,0-1.6H897.135a.8.8,0,0,1,0,1.6Z" transform="translate(-309.795 -276.868)" fill="#cacaca"/>
        <path id="Path_392" data-name="Path 392" d="M322.046,444.661h-8.007a2.8,2.8,0,1,1,0-5.605h8.007a2.8,2.8,0,0,1,0,5.605Z" transform="translate(-308.248 -266.407)" fill="#e4e4e4"/>
        <path id="Path_393" data-name="Path 393" d="M324.45,443.259H310.837a1.6,1.6,0,0,1,0-3.2H324.45a1.6,1.6,0,1,1,0,3.2Z" transform="translate(-307.85 -266.606)" fill="#cacaca"/>
        <path id="Path_394" data-name="Path 394" d="M322.489,450.4H311.882a4.377,4.377,0,1,1,0-8.754h10.607a4.377,4.377,0,0,1,0,8.754Z" transform="translate(-307.505 -266.924)" fill="#e4e4e4"/>
        <path id="Path_412" data-name="Path 412" d="M333.046,387.661h-8.007a2.8,2.8,0,1,1,0-5.605h8.007a2.8,2.8,0,1,1,0,5.605Z" transform="translate(-310.44 -255.049)" fill="#e4e4e4"/>
        <path id="Path_413" data-name="Path 413" d="M335.45,386.259H321.837a1.6,1.6,0,1,1,0-3.2H335.45a1.6,1.6,0,0,1,0,3.2Z" transform="translate(-310.042 -255.249)" fill="#cacaca"/>
        <path id="Path_414" data-name="Path 414" d="M333.489,393.4H322.882a4.377,4.377,0,1,1,0-8.754h10.607a4.377,4.377,0,1,1,0,8.754Z" transform="translate(-309.697 -255.566)" fill="#e4e4e4"/>
      </g>
      <g id="Group_112" data-name="Group 112" transform="translate(0 126.725)">
        <ellipse id="Ellipse_65" data-name="Ellipse 65" cx="284.89" cy="8.408" rx="284.89" ry="8.408" transform="translate(0 226.61)" fill="#3480e3" opacity="0.1"/>
        <g id="Group_109" data-name="Group 109" transform="translate(96.89 0.801)" opacity="0.7">
          <rect id="Rectangle_79" data-name="Rectangle 79" width="100.093" height="55.251" transform="translate(0 172.159)" fill="#65617d"/>
          <rect id="Rectangle_80" data-name="Rectangle 80" width="30.428" height="6.406" transform="translate(35.233 181.768)" opacity="0.1"/>
          <rect id="Rectangle_81" data-name="Rectangle 81" width="22.821" height="4.804" transform="translate(39.036 182.569)" opacity="0.1"/>
          <rect id="Rectangle_82" data-name="Rectangle 82" width="100.093" height="55.251" transform="translate(101.694 172.159)" fill="#65617d"/>
          <rect id="Rectangle_83" data-name="Rectangle 83" width="30.428" height="6.406" transform="translate(136.927 181.768)" opacity="0.1"/>
          <rect id="Rectangle_84" data-name="Rectangle 84" width="22.821" height="4.804" transform="translate(140.73 182.569)" opacity="0.1"/>
          <rect id="Rectangle_85" data-name="Rectangle 85" width="100.093" height="55.251" transform="translate(0 115.307)" fill="#65617d"/>
          <rect id="Rectangle_86" data-name="Rectangle 86" width="30.428" height="6.406" transform="translate(35.233 124.916)" opacity="0.1"/>
          <rect id="Rectangle_87" data-name="Rectangle 87" width="22.821" height="4.804" transform="translate(39.036 125.716)" opacity="0.1"/>
          <rect id="Rectangle_88" data-name="Rectangle 88" width="100.093" height="55.251" transform="translate(101.694 115.307)" fill="#65617d"/>
          <rect id="Rectangle_89" data-name="Rectangle 89" width="30.428" height="6.406" transform="translate(136.927 124.916)" opacity="0.1"/>
          <rect id="Rectangle_90" data-name="Rectangle 90" width="22.821" height="4.804" transform="translate(140.73 125.716)" opacity="0.1"/>
          <rect id="Rectangle_91" data-name="Rectangle 91" width="100.093" height="55.251" transform="translate(0 57.653)" fill="#65617d"/>
          <rect id="Rectangle_92" data-name="Rectangle 92" width="30.428" height="6.406" transform="translate(35.233 67.262)" opacity="0.1"/>
          <rect id="Rectangle_93" data-name="Rectangle 93" width="22.821" height="4.804" transform="translate(39.036 68.063)" opacity="0.1"/>
          <rect id="Rectangle_94" data-name="Rectangle 94" width="100.093" height="55.251" transform="translate(101.694 57.653)" fill="#65617d"/>
          <rect id="Rectangle_95" data-name="Rectangle 95" width="30.428" height="6.406" transform="translate(136.927 67.262)" opacity="0.1"/>
          <rect id="Rectangle_96" data-name="Rectangle 96" width="22.821" height="4.804" transform="translate(140.73 68.063)" opacity="0.1"/>
          <rect id="Rectangle_97" data-name="Rectangle 97" width="100.093" height="55.251" transform="translate(101.694)" fill="#65617d"/>
          <rect id="Rectangle_98" data-name="Rectangle 98" width="30.428" height="6.406" transform="translate(136.927 9.609)" opacity="0.1"/>
          <rect id="Rectangle_99" data-name="Rectangle 99" width="22.821" height="4.804" transform="translate(140.73 10.41)" opacity="0.1"/>
        </g>
        <g id="Group_110" data-name="Group 110" transform="translate(300.278 0)" opacity="0.7">
          <rect id="Rectangle_100" data-name="Rectangle 100" width="100.093" height="55.251" transform="translate(0 172.159)" fill="#65617d"/>
          <rect id="Rectangle_101" data-name="Rectangle 101" width="30.428" height="6.406" transform="translate(35.233 181.768)" opacity="0.1"/>
          <rect id="Rectangle_102" data-name="Rectangle 102" width="22.821" height="4.804" transform="translate(39.036 182.569)" opacity="0.1"/>
          <rect id="Rectangle_103" data-name="Rectangle 103" width="100.093" height="55.251" transform="translate(101.694 172.159)" fill="#65617d"/>
          <rect id="Rectangle_104" data-name="Rectangle 104" width="30.428" height="6.406" transform="translate(136.927 181.768)" opacity="0.1"/>
          <rect id="Rectangle_105" data-name="Rectangle 105" width="22.821" height="4.804" transform="translate(140.73 182.569)" opacity="0.1"/>
          <rect id="Rectangle_106" data-name="Rectangle 106" width="100.093" height="55.251" transform="translate(0 115.307)" fill="#65617d"/>
          <rect id="Rectangle_107" data-name="Rectangle 107" width="30.428" height="6.406" transform="translate(35.233 124.916)" opacity="0.1"/>
          <rect id="Rectangle_108" data-name="Rectangle 108" width="22.821" height="4.804" transform="translate(39.036 125.716)" opacity="0.1"/>
          <rect id="Rectangle_109" data-name="Rectangle 109" width="100.093" height="55.251" transform="translate(101.694 115.307)" fill="#65617d"/>
          <rect id="Rectangle_110" data-name="Rectangle 110" width="30.428" height="6.406" transform="translate(136.927 124.916)" opacity="0.1"/>
          <rect id="Rectangle_111" data-name="Rectangle 111" width="22.821" height="4.804" transform="translate(140.73 125.716)" opacity="0.1"/>
          <rect id="Rectangle_112" data-name="Rectangle 112" width="100.093" height="55.251" transform="translate(0 57.653)" fill="#65617d"/>
          <rect id="Rectangle_113" data-name="Rectangle 113" width="30.428" height="6.406" transform="translate(35.233 67.262)" opacity="0.1"/>
          <rect id="Rectangle_114" data-name="Rectangle 114" width="22.821" height="4.804" transform="translate(39.036 68.063)" opacity="0.1"/>
          <rect id="Rectangle_115" data-name="Rectangle 115" width="100.093" height="55.251" transform="translate(101.694 57.653)" fill="#65617d"/>
          <rect id="Rectangle_116" data-name="Rectangle 116" width="30.428" height="6.406" transform="translate(136.927 67.262)" opacity="0.1"/>
          <rect id="Rectangle_117" data-name="Rectangle 117" width="22.821" height="4.804" transform="translate(140.73 68.063)" opacity="0.1"/>
          <rect id="Rectangle_118" data-name="Rectangle 118" width="100.093" height="55.251" transform="translate(101.694)" fill="#65617d"/>
          <rect id="Rectangle_119" data-name="Rectangle 119" width="30.428" height="6.406" transform="translate(136.927 9.609)" opacity="0.1"/>
          <rect id="Rectangle_120" data-name="Rectangle 120" width="22.821" height="4.804" transform="translate(140.73 10.41)" opacity="0.1"/>
        </g>
        <path id="Path_433" data-name="Path 433" d="M738.215,465.592a3.643,3.643,0,0,0-1.994-2.867,3.723,3.723,0,0,0-4.932,2.082L713.5,502.226l-4,147.336h6.406l2.4-147.008,19.57-34.64a3.8,3.8,0,0,0,.336-2.322Z" transform="translate(-180.611 -338.475)" fill="#3f3d56"/>
        <path id="Path_434" data-name="Path 434" d="M952.808,727.075a125.655,125.655,0,0,1-16.88,8.259,2.336,2.336,0,0,1-.312.248,6.452,6.452,0,0,1-2.2.745h0A184.189,184.189,0,0,1,868.49,747.56H428.227c-50.447-3.5-81.227-8.13-81.227-13.217,0-3.944,18.481-7.618,50.3-10.693q4.949-.486,10.322-.939,3.307-.281,6.766-.539l3.916-.308q4.356-.334,8.944-.653h.248l3.2-.216q4.06-.283,8.288-.539l2.05-.124,5.229-.313q5.093-.308,10.41-.588,4.412-.232,8.968-.464c30.8-1.537,66.3-2.7,104.937-3.447l11.034-.254,3.715-.054,7.847-.119,3.147-.043,3.307-.043,2.354-.027,11.05-.119,5.677-.054h1.161q20.139-.162,41.03-.167c27.529,0,54.226.221,79.666.642h0q21.908.356,42.479.906h.128c39.541,1.047,74.933,2.59,104.224,4.5l.536.038c7.519.491,14.638,1.014,21.316,1.554,6.286.507,12.187,1.041,17.664,1.586,1.9.189,3.74.383,5.533.572l.456.054C940.5,725.322,947.163,726.163,952.808,727.075Z" transform="translate(-108.379 -372.788)" fill="#3480e3" opacity="0.1"/>
        <circle id="Ellipse_68" data-name="Ellipse 68" cx="24.022" cy="24.022" r="24.022" transform="translate(459.625 313.89)" fill="#3f3d56"/>
        <circle id="Ellipse_69" data-name="Ellipse 69" cx="24.022" cy="24.022" r="24.022" transform="translate(459.625 313.89)" opacity="0.1"/>
        <circle id="Ellipse_70" data-name="Ellipse 70" cx="15.214" cy="15.214" r="15.214" transform="translate(468.433 322.698)" fill="#65617d"/>
        <circle id="Ellipse_71" data-name="Ellipse 71" cx="15.214" cy="15.214" r="15.214" transform="translate(468.433 322.698)" opacity="0.1"/>
        <path id="Path_452" data-name="Path 452" d="M630,682.032l15.759,35.633a3.059,3.059,0,0,0,5.549.112l18.729-38.147Z" transform="translate(-164.77 -381.755)" fill="#3f3d56"/>
        <path id="Path_453" data-name="Path 453" d="M630,682.032l15.759,35.633a3.059,3.059,0,0,0,5.549.112l18.729-38.147Z" transform="translate(-164.77 -381.755)" opacity="0.1"/>
        <circle id="Ellipse_72" data-name="Ellipse 72" cx="24.022" cy="24.022" r="24.022" transform="translate(309.887 313.89)" fill="#3f3d56"/>
        <circle id="Ellipse_73" data-name="Ellipse 73" cx="24.022" cy="24.022" r="24.022" transform="translate(309.887 313.89)" opacity="0.1"/>
        <circle id="Ellipse_74" data-name="Ellipse 74" cx="15.214" cy="15.214" r="15.214" transform="translate(318.695 322.698)" fill="#65617d"/>
        <circle id="Ellipse_75" data-name="Ellipse 75" cx="15.214" cy="15.214" r="15.214" transform="translate(318.695 322.698)" opacity="0.1"/>
        <path id="Path_454" data-name="Path 454" d="M443,682.032l15.759,35.633a3.059,3.059,0,0,0,5.549.112l18.729-38.147Z" transform="translate(-127.508 -381.755)" fill="#3f3d56"/>
        <path id="Path_455" data-name="Path 455" d="M443,682.032l15.759,35.633a3.059,3.059,0,0,0,5.549.112l18.729-38.147Z" transform="translate(-127.508 -381.755)" opacity="0.1"/>
        <path id="Path_456" data-name="Path 456" d="M744.211,467.592a3.643,3.643,0,0,0-1.994-2.867,3.723,3.723,0,0,0-4.932,2.082L723.5,501.023l-4,153.742h6.406l2.4-153.414,15.566-31.437a3.8,3.8,0,0,0,.336-2.322Z" transform="translate(-182.604 -338.873)" fill="#3f3d56"/>
        <path id="Path_457" data-name="Path 457" d="M368.5,558.874l21.62-13.613,233.416-2,6.006,15.614Z" transform="translate(-90.243 -254.993)" fill="#3480e3"/>
        <path id="Path_458" data-name="Path 458" d="M368.5,576.536V562.122l265.269-2.562-.256,9.769H373.3v7.207Z" transform="translate(-90.243 -258.241)" fill="#3f3d56"/>
        <circle id="Ellipse_76" data-name="Ellipse 76" cx="24.022" cy="24.022" r="24.022" transform="translate(287.866 322.298)" fill="#3f3d56"/>
        <circle id="Ellipse_77" data-name="Ellipse 77" cx="15.214" cy="15.214" r="15.214" transform="translate(296.674 331.106)" fill="#65617d"/>
        <path id="Path_459" data-name="Path 459" d="M415.5,692.532l15.759,35.633a3.059,3.059,0,0,0,5.549.112l18.729-38.147Z" transform="translate(-122.029 -383.847)" fill="#3f3d56"/>
        <circle id="Ellipse_78" data-name="Ellipse 78" cx="24.022" cy="24.022" r="24.022" transform="translate(474.439 322.298)" fill="#3f3d56"/>
        <circle id="Ellipse_79" data-name="Ellipse 79" cx="15.214" cy="15.214" r="15.214" transform="translate(483.247 331.106)" fill="#65617d"/>
        <path id="Path_460" data-name="Path 460" d="M648.5,692.532l15.759,35.633a3.059,3.059,0,0,0,5.549.112l18.729-38.147Z" transform="translate(-168.456 -383.847)" fill="#3f3d56"/>
        <rect id="Rectangle_121" data-name="Rectangle 121" width="100.093" height="55.251" transform="translate(308.285 241.023)" fill="#65617d"/>
        <rect id="Rectangle_122" data-name="Rectangle 122" width="30.428" height="6.406" transform="translate(343.518 250.632)" opacity="0.1"/>
        <rect id="Rectangle_123" data-name="Rectangle 123" width="22.821" height="4.804" transform="translate(347.321 251.432)" opacity="0.1"/>
        <rect id="Rectangle_124" data-name="Rectangle 124" width="100.093" height="55.251" transform="translate(409.979 241.023)" fill="#65617d"/>
        <rect id="Rectangle_125" data-name="Rectangle 125" width="30.428" height="6.406" transform="translate(445.212 250.632)" opacity="0.1"/>
        <rect id="Rectangle_126" data-name="Rectangle 126" width="22.821" height="4.804" transform="translate(449.015 251.432)" opacity="0.1"/>
        <rect id="Rectangle_127" data-name="Rectangle 127" width="100.093" height="55.251" transform="translate(308.285 184.17)" fill="#65617d"/>
        <rect id="Rectangle_128" data-name="Rectangle 128" width="30.428" height="6.406" transform="translate(343.518 193.779)" opacity="0.1"/>
        <rect id="Rectangle_129" data-name="Rectangle 129" width="22.821" height="4.804" transform="translate(347.321 194.58)" opacity="0.1"/>
        <rect id="Rectangle_130" data-name="Rectangle 130" width="100.093" height="55.251" transform="translate(409.979 184.17)" fill="#65617d"/>
        <rect id="Rectangle_131" data-name="Rectangle 131" width="30.428" height="6.406" transform="translate(445.212 193.779)" opacity="0.1"/>
        <rect id="Rectangle_132" data-name="Rectangle 132" width="22.821" height="4.804" transform="translate(449.015 194.58)" opacity="0.1"/>
        <rect id="Rectangle_133" data-name="Rectangle 133" width="100.093" height="55.251" transform="translate(308.285 126.517)" fill="#65617d"/>
        <rect id="Rectangle_134" data-name="Rectangle 134" width="30.428" height="6.406" transform="translate(343.518 136.126)" opacity="0.1"/>
        <rect id="Rectangle_135" data-name="Rectangle 135" width="22.821" height="4.804" transform="translate(347.321 136.927)" opacity="0.1"/>
        <rect id="Rectangle_136" data-name="Rectangle 136" width="100.093" height="55.251" transform="translate(409.979 126.517)" fill="#65617d"/>
        <rect id="Rectangle_137" data-name="Rectangle 137" width="30.428" height="6.406" transform="translate(445.212 136.126)" opacity="0.1"/>
        <rect id="Rectangle_138" data-name="Rectangle 138" width="22.821" height="4.804" transform="translate(449.015 136.927)" opacity="0.1"/>
        <rect id="Rectangle_139" data-name="Rectangle 139" width="100.093" height="55.251" transform="translate(409.979 68.864)" fill="#65617d"/>
        <rect id="Rectangle_140" data-name="Rectangle 140" width="30.428" height="6.406" transform="translate(445.212 78.473)" opacity="0.1"/>
        <rect id="Rectangle_141" data-name="Rectangle 141" width="22.821" height="4.804" transform="translate(449.015 79.273)" opacity="0.1"/>
      </g>
    </g>
    <g id="attigo_illus_1" data-name="attigo illus 1" transform="translate(2610.646 868.633)">
      <path id="Ellipse_39" data-name="Ellipse 39" d="M12.336.018a12,12,0,0,1,4.814,1,12.37,12.37,0,0,1,3.936,2.729A12.8,12.8,0,0,1,23.743,7.8a13.154,13.154,0,0,1,0,9.938,12.786,12.786,0,0,1-2.656,4.053,12.357,12.357,0,0,1-3.936,2.726,12.054,12.054,0,0,1-9.621-.021,12.374,12.374,0,0,1-3.92-2.736A12.8,12.8,0,0,1,.968,17.71a13.154,13.154,0,0,1,0-9.9A12.788,12.788,0,0,1,3.609,3.759a12.36,12.36,0,0,1,3.92-2.733A12,12,0,0,1,12.336.018Z" transform="translate(464.994 205.329)" fill="#e6e6e6"/>
      <path id="Path_178" data-name="Path 178" d="M3.724.124A97.553,97.553,0,0,0,15,7.364,94.41,94.41,0,0,0,27,12.9a91.8,91.8,0,0,0,12.571,3.756,89.875,89.875,0,0,0,12.974,1.9q-.117.3-.241.593t-.256.586q-.131.291-.27.577t-.284.569a29.37,29.37,0,0,1-1.68,2.9,28.42,28.42,0,0,1-1.974,2.648A27.509,27.509,0,0,1,45.6,28.8a26.686,26.686,0,0,1-2.5,2.07A25.48,25.48,0,0,1,36.386,34.4a24.87,24.87,0,0,1-7.254,1.347,25.362,25.362,0,0,1-7.371-.834,26.836,26.836,0,0,1-7.072-3.023A28.978,28.978,0,0,1,8.577,26.9,31.148,31.148,0,0,1,3.953,20.47a32.644,32.644,0,0,1-2.929-7.493A33.025,33.025,0,0,1,0,4.819V0Z" transform="translate(59.831 427.204)" fill="#3f3d56"/>
      <path id="Path_179" data-name="Path 179" d="M53.418,1.791V5.257a32.006,32.006,0,0,1-1.552,9.916,29.866,29.866,0,0,1-4.348,8.5,27.46,27.46,0,0,1-6.668,6.441,25.738,25.738,0,0,1-8.511,3.755,25.51,25.51,0,0,1-9.25.472,26.861,26.861,0,0,1-8.745-2.747,29.122,29.122,0,0,1-7.557-5.6,31.43,31.43,0,0,1-5.691-8.1q-.152-.3-.3-.6t-.282-.612q-.137-.308-.267-.62T0,15.424l.6.038.6.033.6.028.6.024a88.8,88.8,0,0,0,13.324-.5A88.873,88.873,0,0,0,28.8,12.556a89.881,89.881,0,0,0,12.624-4.43A91.772,91.772,0,0,0,53.418,1.791Z" transform="translate(113.408 430.412)" fill="#3f3d56"/>
      <path id="Path_180" data-name="Path 180" d="M2.583,1Q2.263.959,1.941.925T1.3.864Q.972.837.648.816T0,.781A106.28,106.28,0,0,1,5.656,19.416,109.312,109.312,0,0,1,7.87,38.784,110.561,110.561,0,0,1,6.621,58.313,109.83,109.83,0,0,1,1.9,77.433q.325-.045.647-.1t.644-.109q.321-.058.642-.121t.641-.131a34.9,34.9,0,0,0,11.894-5.082,37.728,37.728,0,0,0,9.334-8.92,40.291,40.291,0,0,0,6.013-11.768A41.372,41.372,0,0,0,33.651,37.6a40.525,40.525,0,0,0-2.61-13.4,38.209,38.209,0,0,0-6.586-11.185A35.45,35.45,0,0,0,14.7,4.977,33.481,33.481,0,0,0,2.583,1Z" transform="translate(202.317 63.84)" fill="#3f3d56"/>
      <path id="Path_181" data-name="Path 181" d="M31.6,0q-.307.029-.615.064t-.613.075q-.306.041-.611.088t-.608.1A32.344,32.344,0,0,0,17.72,4.72a35.742,35.742,0,0,0-9.141,8.187A39.224,39.224,0,0,0,2.439,23.962,41.187,41.187,0,0,0,.012,36.972a40.722,40.722,0,0,0,1.8,13.061,38.083,38.083,0,0,0,5.6,11.2,34.492,34.492,0,0,0,8.739,8.4A31.559,31.559,0,0,0,27.36,74.293q.3.059.606.113t.607.1q.3.049.609.092t.613.08A107.4,107.4,0,0,1,25.331,56.2,110.17,110.17,0,0,1,31.6,0Z" transform="translate(0 68.579)" fill="#3f3d56"/>
      <path id="Path_182" data-name="Path 182" d="M182.939,64.842a102.174,102.174,0,0,0-19.964-32.073,93.415,93.415,0,0,0-28.417-21.02,87.646,87.646,0,0,0-68.479-3.08,95.007,95.007,0,0,0-30.91,18.768A104.548,104.548,0,0,0,13.084,55.873,112.272,112.272,0,0,0,1.825,128.662a107.235,107.235,0,0,0,12.929,35.118A98.662,98.662,0,0,0,37.733,190.6a90.774,90.774,0,0,0,30.4,16.274,87.2,87.2,0,0,0,35.168,3.317,90.415,90.415,0,0,0,34.241-10.963,98.94,98.94,0,0,0,27.706-23.068,107.881,107.881,0,0,0,18.539-32.311,112.592,112.592,0,0,0,6.749-38.531q0-5.235-.485-10.422t-1.439-10.273q-.955-5.086-2.378-10.046T182.939,64.842Zm-.683,76.431A105.171,105.171,0,0,1,163.8,174.278a96.652,96.652,0,0,1-27.2,22.711,88.719,88.719,0,0,1-32.558,10.683,85.148,85.148,0,0,1-34.616-2.954,88.3,88.3,0,0,1-30.878-16.459,96.581,96.581,0,0,1-22.378-26.588A105.2,105.2,0,0,1,3.954,128.157a109.89,109.89,0,0,1-.326-37.372A108.419,108.419,0,0,1,15.752,55.574a101.627,101.627,0,0,1,22.2-27.516A92.794,92.794,0,0,1,67.625,10.615,86.019,86.019,0,0,1,135.9,15.095a91.865,91.865,0,0,1,27.349,21.566A100.771,100.771,0,0,1,181.58,67.719a108.052,108.052,0,0,1,6.68,37.642q0,4.589-.382,9.156t-1.135,9.075q-.754,4.507-1.877,8.938T182.255,141.273Z" transform="translate(21.962 0)" fill="#3f3d56"/>
      <path id="Path_184" data-name="Path 184" d="M98.107.242A91.421,91.421,0,0,0,60.1,8.4,97.26,97.26,0,0,0,29.2,30.7,106.83,106.83,0,0,0,8.242,63.779,115.192,115.192,0,0,0,.025,104.5a118,118,0,0,0,6.54,41.36A113.5,113.5,0,0,0,26.128,180.7a103.954,103.954,0,0,0,29.9,24.944,94.528,94.528,0,0,0,37.581,11.467q.394.037.79.069t.793.059q.4.027.8.048t.8.036q.166.015.33.026l.328.019.328.015.33.012a91.29,91.29,0,0,0,39.035-7.167,96.9,96.9,0,0,0,32.23-22.4A106.732,106.732,0,0,0,191.285,153.5a115.36,115.36,0,0,0,8.072-42.72,117.812,117.812,0,0,0-8.072-43.034,112.42,112.42,0,0,0-21.913-35.177,102.3,102.3,0,0,0-32.23-23.65A93.359,93.359,0,0,0,98.107.242Zm51,200.986a91.779,91.779,0,0,1-11.991,6.335,89.882,89.882,0,0,1-12.624,4.43,88.772,88.772,0,0,1-26.391,2.991l-.6-.024-.6-.028-.6-.033-.6-.038-.257-.012-.257-.016-.257-.021-.257-.025a92.085,92.085,0,0,1-34.055-9.336,100.153,100.153,0,0,1-28.175-20.868,109.1,109.1,0,0,1-20.082-29.818,115.734,115.734,0,0,1-7.4-73.845A108.977,108.977,0,0,1,18.686,47.776,100.04,100.04,0,0,1,42.077,21.795a92.032,92.032,0,0,1,31.4-15.9,89.243,89.243,0,0,1,34.9-2.762,93,93,0,0,1,32.992,10.487,101.05,101.05,0,0,1,27.974,22.295,109.836,109.836,0,0,1,19.759,32.545,115.3,115.3,0,0,1,7.9,37.967,114.329,114.329,0,0,1-4.781,37.209,107.178,107.178,0,0,1-16.368,32.79,97.5,97.5,0,0,1-26.748,24.8Z" transform="translate(17.714 230.975)" fill="#3f3d56"/>
      <path id="Path_185" data-name="Path 185" d="M55.744,25.84l-44.225-.673A10.826,10.826,0,0,1,7.03,24.115,11.779,11.779,0,0,1,3.37,21.381,12.874,12.874,0,0,1,.9,17.372,13.494,13.494,0,0,1,0,12.5,13.3,13.3,0,0,1,.9,7.643,12.427,12.427,0,0,1,3.37,3.7,11.345,11.345,0,0,1,7.03,1.063,10.648,10.648,0,0,1,11.519.131l44.225.5A11.033,11.033,0,0,1,60.3,1.675a11.929,11.929,0,0,1,3.726,2.747,12.944,12.944,0,0,1,2.514,4.043,13.5,13.5,0,0,1,.922,4.926,13.312,13.312,0,0,1-.922,4.9,12.493,12.493,0,0,1-2.514,3.976A11.491,11.491,0,0,1,60.3,24.918a10.855,10.855,0,0,1-4.557.922Z" transform="translate(130.807 288.289)" fill="#3f3d56"/>
      <path id="Ellipse_97" data-name="Ellipse 97" d="M88.116,2.923a79.7,79.7,0,0,1,34.966,6.814A87.316,87.316,0,0,1,151.919,30.6a99.737,99.737,0,0,1,19.589,31.822,110.081,110.081,0,0,1,7.213,39.513,112.018,112.018,0,0,1-7.213,39.752,104.2,104.2,0,0,1-19.589,32.472,91.511,91.511,0,0,1-28.837,21.817,81.3,81.3,0,0,1-34.966,7.974,79.92,79.92,0,0,1-34.589-7.824,87.965,87.965,0,0,1-27.97-21.27,100.258,100.258,0,0,1-18.72-31.441A110.21,110.21,0,0,1,0,104.9,112.1,112.1,0,0,1,6.837,66.155a104.676,104.676,0,0,1,18.72-32.062,92.253,92.253,0,0,1,27.97-22.2A81.739,81.739,0,0,1,88.116,2.923Z" transform="translate(27.835 5.509)" fill="#fff"/>
      <path id="Ellipse_40" data-name="Ellipse 40" d="M5.857.072A5.5,5.5,0,0,1,8.139.6,5.98,5.98,0,0,1,10,1.986a6.534,6.534,0,0,1,1.258,2.038,6.848,6.848,0,0,1,.461,2.482,6.751,6.751,0,0,1-.461,2.47,6.307,6.307,0,0,1-1.258,2,5.76,5.76,0,0,1-1.865,1.337,5.41,5.41,0,0,1-2.282.467,5.5,5.5,0,0,1-2.281-.532,5.982,5.982,0,0,1-1.861-1.388A6.536,6.536,0,0,1,.46,8.828,6.849,6.849,0,0,1,0,6.35,6.752,6.752,0,0,1,.46,3.884a6.309,6.309,0,0,1,1.254-2A5.762,5.762,0,0,1,3.576.543,5.411,5.411,0,0,1,5.857.072Z" transform="translate(139.4 294.549)" fill="#f2f2f2"/>
      <path id="Ellipse_41" data-name="Ellipse 41" d="M5.891.072A5.546,5.546,0,0,1,8.187.6a6.015,6.015,0,0,1,1.876,1.39,6.551,6.551,0,0,1,1.266,2.044,6.851,6.851,0,0,1,.464,2.49A6.754,6.754,0,0,1,11.329,9a6.323,6.323,0,0,1-1.266,2.01,5.794,5.794,0,0,1-1.876,1.34,5.456,5.456,0,0,1-2.3.468A5.547,5.547,0,0,1,3.6,12.289,6.017,6.017,0,0,1,1.724,10.9,6.552,6.552,0,0,1,.463,8.854,6.851,6.851,0,0,1,0,6.369,6.754,6.754,0,0,1,.463,3.9,6.324,6.324,0,0,1,1.724,1.887,5.8,5.8,0,0,1,3.6.545,5.456,5.456,0,0,1,5.891.072Z" transform="translate(158.472 294.784)" fill="#f2f2f2"/>
      <path id="Ellipse_42" data-name="Ellipse 42" d="M5.926.073A5.593,5.593,0,0,1,8.236.6,6.05,6.05,0,0,1,10.124,2,6.567,6.567,0,0,1,11.4,4.048a6.853,6.853,0,0,1,.467,2.5A6.756,6.756,0,0,1,11.4,9.03a6.339,6.339,0,0,1-1.273,2.016,5.828,5.828,0,0,1-1.887,1.344,5.5,5.5,0,0,1-2.31.47,5.594,5.594,0,0,1-2.308-.535,6.052,6.052,0,0,1-1.884-1.4A6.569,6.569,0,0,1,.466,8.881,6.854,6.854,0,0,1,0,6.388a6.756,6.756,0,0,1,.465-2.48A6.34,6.34,0,0,1,1.735,1.893,5.829,5.829,0,0,1,3.618.547,5.5,5.5,0,0,1,5.926.073Z" transform="translate(177.658 295.019)" fill="#6c63ff"/>
      <g id="Path_487" data-name="Path 487" transform="translate(77.873 159.589)" fill="none">
        <path d="M1.3,1.3s.182.42.547,1.117A32.086,32.086,0,0,0,3.491,5.188,30.915,30.915,0,0,0,6.227,8.752a24.141,24.141,0,0,0,3.835,3.489c1.462,1.054,2.6,1.861,3.622,2.5a17.575,17.575,0,0,0,2.871,1.5,21.353,21.353,0,0,0,3.286.979c1.295.294,2.854.583,4.872.947a37.519,37.519,0,0,0,5.029.606,28.484,28.484,0,0,0,3.794-.093c1.2-.1,2.394-.25,3.8-.376s3.019-.23,5.049-.242a46.426,46.426,0,0,1,4.7.185c1.19.111,2.092.248,2.971.337a15.668,15.668,0,0,0,2.834.054,32.035,32.035,0,0,0,4.3-.663c1.855-.389,3.339-.7,4.616-1.009a25.837,25.837,0,0,0,3.367-1.027,20.049,20.049,0,0,0,3.092-1.547c1.093-.659,2.3-1.488,3.793-2.572a25.087,25.087,0,0,0,3.915-3.58,32.062,32.062,0,0,0,2.8-3.647c.747-1.129,1.307-2.122,1.68-2.834s.56-1.14.56-1.14" stroke="none"/>
        <path d="M 31.07398223876953 20.27475738525391 C 30.62860107421875 20.27718925476074 30.16712188720703 20.26882743835449 29.68182945251465 20.24706649780273 C 29.19660949707031 20.22536849975586 28.68735694885254 20.19015884399414 28.1463623046875 20.13895034790039 C 27.6054573059082 20.08757209777832 27.03260040283203 20.02008819580078 26.42008399963379 19.93377304077148 C 25.80768394470215 19.84747314453125 25.15566635131836 19.74247932434082 24.45610618591309 19.6160717010498 C 22.41729164123535 19.24738121032715 20.83094787597656 18.95463180541992 19.50190162658691 18.6534309387207 C 18.17364883422852 18.35235404968262 17.10178565979004 18.04290199279785 16.09248161315918 17.64065551757812 C 15.08373832702637 17.23854064941406 14.13699436187744 16.74385643005371 13.05832672119141 16.07257461547852 C 11.98002433776855 15.40152072906494 10.77021312713623 14.55410194396973 9.234930992126465 13.44648933410645 C 7.711404323577881 12.34720611572266 6.380141258239746 11.09396934509277 5.23827075958252 9.828154563903809 C 4.096807956695557 8.56279182434082 3.144704818725586 7.28471040725708 2.379161357879639 6.135131359100342 C 1.613801956176758 4.985828399658203 1.034823298454285 3.964592218399048 0.6390175819396973 3.212772130966187 C 0.2432608604431152 2.460925340652466 0.03106371127068996 1.978220820426941 -0.0002389504661550745 1.905749440193176 L 1.309478521347046 1.295437335968018 L 2.606580972671509 0.6892355680465698 C 2.613516330718994 0.7051330804824829 2.794794321060181 1.11459481716156 3.147574424743652 1.781059503555298 C 3.500394105911255 2.447538375854492 4.025031089782715 3.370969533920288 4.718459129333496 4.414947032928467 C 5.412038326263428 5.459211349487305 6.274555206298828 6.623945713043213 7.303273677825928 7.772691249847412 C 8.332801818847656 8.921807289123535 9.52874755859375 10.0549840927124 10.88889598846436 11.03544330596924 C 12.28488636016846 12.04200458526611 13.36521244049072 12.81028461456299 14.3246898651123 13.41894912719727 C 15.28421497344971 14.02791595458984 16.12274360656738 14.47712326049805 17.03548240661621 14.84534168243408 C 17.94824409484863 15.21366596221924 18.93505668640137 15.50078868865967 20.19196510314941 15.78567028045654 C 21.44912910461426 16.07066345214844 22.97657203674316 16.35351943969727 24.9702262878418 16.71292686462402 C 25.61907577514648 16.82995796203613 26.2218017578125 16.92721557617188 26.78680801391602 17.00717353820801 C 27.35215377807617 17.0871467590332 27.87927627563477 17.14981269836426 28.37682723999023 17.19746589660645 C 28.87421989440918 17.2451286315918 29.3420238494873 17.27783393859863 29.78843116760254 17.29806327819824 C 30.23442077636719 17.31829452514648 30.65875816345215 17.32598495483398 31.06987953186035 17.32349395751953 C 31.43255043029785 17.32135200500488 31.78488731384277 17.31119918823242 32.13243103027344 17.29490661621094 C 32.48001480102539 17.27867317199707 32.82256698608398 17.25617790222168 33.1658821105957 17.22900199890137 C 33.50923156738281 17.20187950134277 33.85358428955078 17.17025375366211 34.20425033569336 17.13557815551758 C 34.55495834350586 17.10089874267578 34.91198348999023 17.06340789794922 35.28113174438477 17.02456665039062 C 35.75204849243164 16.97499656677246 36.23898315429688 16.92383766174316 36.75258255004883 16.87472534179688 C 37.26602172851562 16.82548332214355 37.80637741088867 16.77816390991211 38.38383102416992 16.73646545410156 C 38.96163177490234 16.69482040405273 39.5763053894043 16.65873146057129 40.2394905090332 16.6319580078125 C 40.90257263183594 16.60518074035645 41.61396789550781 16.58753967285156 42.38411331176758 16.58279609680176 C 43.20845413208008 16.57776832580566 43.94482421875 16.58856964111328 44.60915756225586 16.61025810241699 C 45.27411270141602 16.63207244873047 45.86696624755859 16.66489410400391 46.40441131591797 16.70437812805176 C 46.94194793701172 16.74380683898926 47.42379379272461 16.78965759277344 47.86641693115234 16.83739852905273 C 48.30886077880859 16.88502502441406 48.71206665039062 16.93460083007812 49.09202194213867 16.98117256164551 C 49.33880233764648 17.01144409179688 49.57515716552734 17.04036140441895 49.80547332763672 17.06668090820312 C 50.03580093383789 17.0930004119873 50.26080703735352 17.11665916442871 50.48485565185547 17.13628196716309 C 50.70916366577148 17.15602874755859 50.93325042724609 17.17162132263184 51.16195297241211 17.18204498291016 C 51.39092254638672 17.19247436523438 51.62428283691406 17.1977367401123 51.86833572387695 17.19627952575684 C 52.17119216918945 17.1944408416748 52.48986053466797 17.18252372741699 52.83406829833984 17.15784454345703 C 53.17831039428711 17.13298225402832 53.5483512878418 17.0954761505127 53.95415496826172 17.04275894165039 C 54.35976409912109 16.99009323120117 54.8016471862793 16.92209243774414 55.2890510559082 16.83624649047852 C 55.77676773071289 16.75038528442383 56.31052017211914 16.64685249328613 56.89982604980469 16.5229549407959 L 57.25252914428711 16.44887924194336 C 59.01981735229492 16.07760620117188 60.42572784423828 15.78237533569336 61.62737655639648 15.48471069335938 C 62.8297233581543 15.18675518035889 63.82799911499023 14.88640594482422 64.78025817871094 14.50499820709229 C 65.73280334472656 14.1234769821167 66.63902282714844 13.66103744506836 67.65776062011719 13.03883647918701 C 68.67658233642578 12.41643905639648 69.80805206298828 11.63401126861572 71.21037292480469 10.61286354064941 C 72.60254669189453 9.59911060333252 73.82586669921875 8.434767723083496 74.87793731689453 7.257461071014404 C 75.93012237548828 6.079710006713867 76.81130981445312 4.889171123504639 77.51892852783203 3.823185920715332 C 78.22672271728516 2.756967544555664 78.76102447509766 1.815714359283447 79.12053680419922 1.136759400367737 C 79.47985076904297 0.4577894806861877 79.66405487060547 0.04137098044157028 79.67115783691406 0.02516132593154907 L 82.34426879882812 1.209937930107117 C 82.31215667724609 1.283812999725342 82.09470367431641 1.776354432106018 81.68878173828125 2.544387102127075 C 81.28314208984375 3.312444448471069 80.68936920166016 4.355773448944092 79.90486145019531 5.531579494476318 C 79.12053680419922 6.707098484039307 78.14591979980469 8.0147705078125 76.97872161865234 9.311491966247559 C 75.81145477294922 10.60780334472656 74.45140075683594 11.8931360244751 72.8963623046875 13.02442264556885 C 71.36674499511719 14.13733768463135 70.11211395263672 14.99430179595947 68.97735595703125 15.67756175994873 C 67.84300231933594 16.36051940917969 66.82810974121094 16.86994934082031 65.77816772460938 17.28780555725098 C 64.72832489013672 17.70546531677246 63.64323806762695 18.03178405761719 62.36822509765625 18.34846305847168 C 61.09370803833008 18.66489601135254 59.62982177734375 18.97184181213379 57.82180786132812 19.35073280334473 L 57.46952438354492 19.42453575134277 C 56.82369232177734 19.5599422454834 56.23488616943359 19.6728343963623 55.6933708190918 19.76626968383789 C 55.15217590332031 19.85968399047852 54.65774917602539 19.93353271484375 54.20178985595703 19.99079704284668 C 53.74565505981445 20.04787445068359 53.32749557495117 20.08837699890137 52.93755722045898 20.11504554748535 C 52.54815673828125 20.14165306091309 52.18673324584961 20.15461349487305 51.84477996826172 20.15649223327637 C 51.56138229370117 20.15807151794434 51.2911262512207 20.1522274017334 51.02866363525391 20.14044570922852 C 50.76572799682617 20.12854194641113 50.51107406616211 20.11076545715332 50.25862121582031 20.08884239196777 C 50.00595092773438 20.06686019897461 49.75620651245117 20.04055404663086 49.50308609008789 20.01177024841309 C 49.25022888183594 19.98293113708496 48.99423980712891 19.95137596130371 48.73001861572266 19.91877174377441 C 48.3702392578125 19.87443923950195 47.98842620849609 19.82745552062988 47.56954956054688 19.78210830688477 C 47.15024566650391 19.73682594299316 46.69414138793945 19.69318199157715 46.18549346923828 19.65558052062988 C 45.67717361450195 19.6180477142334 45.1161003112793 19.58655548095703 44.48727798461914 19.56550598144531 C 43.85882568359375 19.54452514648438 43.16291809082031 19.53416633605957 42.38411331176758 19.53853416442871 C 41.64882278442383 19.54272842407227 40.96792221069336 19.55941390991211 40.3324089050293 19.58488845825195 C 39.69702529907227 19.6104793548584 39.10651779174805 19.64491844177246 38.55094528198242 19.68498611450195 C 37.99571228027344 19.7249870300293 37.47514343261719 19.77031707763672 36.97955703735352 19.81769752502441 C 36.48429107666016 19.86495018005371 36.01423263549805 19.9141960144043 35.55898284912109 19.96180152893066 C 35.17651748657227 20.00175666809082 34.80400466918945 20.04083824157715 34.43515014648438 20.07704162597656 C 34.06634521484375 20.11318397521973 33.70120239257812 20.14644622802734 33.33489608764648 20.17490196228027 C 32.96838760375977 20.20347213745117 32.60047149658203 20.22722816467285 32.2255973815918 20.24459838867188 C 31.85053253173828 20.26190567016602 31.46874618530273 20.27252388000488 31.07398223876953 20.27475738525391 Z" stroke="none" fill="#3f3d56"/>
      </g>
      <path id="Path_183" data-name="Path 183" d="M116.614.429,19.052,2.545a17.827,17.827,0,0,0-7.429,1.807A19.669,19.669,0,0,0,5.568,8.965a21.746,21.746,0,0,0-4.075,6.73A22.883,22.883,0,0,0,0,23.859a22.441,22.441,0,0,0,1.493,8.11,20.714,20.714,0,0,0,4.075,6.58,18.669,18.669,0,0,0,6.054,4.39,17.415,17.415,0,0,0,7.429,1.533L116.614,43a18.593,18.593,0,0,0,7.677-1.791,20.231,20.231,0,0,0,6.282-4.668,22.014,22.014,0,0,0,4.243-6.853,22.924,22.924,0,0,0,1.557-8.337,22.473,22.473,0,0,0-1.557-8.279,20.959,20.959,0,0,0-4.243-6.7,19.21,19.21,0,0,0-6.282-4.437A18.181,18.181,0,0,0,116.614.429Z" transform="translate(51.495 74.651)" fill="#3f3d56"/>
    </g>
  </g>
</svg>
