<svg id="Group_101" data-name="Group 101" xmlns="http://www.w3.org/2000/svg" width="532.441" height="382.363" viewBox="0 0 532.441 382.363">
  <rect id="Rectangle_18" data-name="Rectangle 18" width="38.039" height="14.166" transform="translate(324.515 24.135)" fill="#ef760e" opacity="0.3"/>
  <rect id="Rectangle_19" data-name="Rectangle 19" width="38.039" height="14.166" transform="translate(387.739)" fill="#ef760e" opacity="0.3"/>
  <rect id="Rectangle_20" data-name="Rectangle 20" width="38.039" height="14.166" transform="translate(390.362 43.81)" fill="#ef760e" opacity="0.3"/>
  <rect id="Rectangle_21" data-name="Rectangle 21" width="38.039" height="14.166" transform="translate(268.638 60.075)" fill="#ef760e" opacity="0.3"/>
  <rect id="Rectangle_22" data-name="Rectangle 22" width="38.039" height="14.166" transform="translate(256.57 118.314)" fill="#ef760e" opacity="0.3"/>
  <rect id="Rectangle_23" data-name="Rectangle 23" width="38.039" height="14.166" transform="translate(314.022 117.002)" fill="#ef760e" opacity="0.3"/>
  <path id="Path_201" data-name="Path 201" d="M795.314,14.856l-25.184,23.9,27.807,20" transform="translate(-407.576 -7.862)" fill="none" stroke="#3f3d56" stroke-miterlimit="10" stroke-width="1"/>
  <line id="Line_9" data-name="Line 9" x1="36.858" y2="29.185" transform="translate(287.657 30.89)" fill="none" stroke="#3f3d56" stroke-miterlimit="10" stroke-width="1"/>
  <path id="Path_202" data-name="Path 202" d="M585.4,201.764,597.468,157.7l45.385,42.761" transform="translate(-309.812 -83.461)" fill="none" stroke="#3f3d56" stroke-miterlimit="10" stroke-width="1"/>
  <rect id="Rectangle_24" data-name="Rectangle 24" width="38.039" height="14.166" transform="translate(67.945 38.729)" fill="#ef760e" opacity="0.3"/>
  <rect id="Rectangle_25" data-name="Rectangle 25" width="38.039" height="14.166" transform="translate(131.169 14.594)" fill="#ef760e" opacity="0.3"/>
  <rect id="Rectangle_26" data-name="Rectangle 26" width="38.039" height="14.166" transform="translate(133.792 58.404)" fill="#ef760e" opacity="0.3"/>
  <rect id="Rectangle_27" data-name="Rectangle 27" width="38.039" height="14.166" transform="translate(12.068 74.669)" fill="#ef760e" opacity="0.3"/>
  <rect id="Rectangle_28" data-name="Rectangle 28" width="38.039" height="14.166" transform="translate(0 132.908)" fill="#ef760e" opacity="0.3"/>
  <rect id="Rectangle_29" data-name="Rectangle 29" width="38.039" height="14.166" transform="translate(57.452 131.596)" fill="#ef760e" opacity="0.3"/>
  <path id="Path_203" data-name="Path 203" d="M250.314,45.856l-25.184,23.9,27.807,20" transform="translate(-119.145 -24.268)" fill="none" stroke="#3f3d56" stroke-miterlimit="10" stroke-width="1"/>
  <line id="Line_10" data-name="Line 10" x1="36.858" y2="29.185" transform="translate(31.087 45.484)" fill="none" stroke="#3f3d56" stroke-miterlimit="10" stroke-width="1"/>
  <path id="Path_204" data-name="Path 204" d="M40.4,232.764,52.468,188.7l45.385,42.761" transform="translate(-21.381 -99.867)" fill="none" stroke="#3f3d56" stroke-miterlimit="10" stroke-width="1"/>
  <line id="Line_11" data-name="Line 11" x2="43.139" transform="translate(171.831 65.487)" fill="none" stroke="#3f3d56" stroke-miterlimit="10" stroke-width="1"/>
  <rect id="Rectangle_30" data-name="Rectangle 30" width="44.723" height="14.123" transform="translate(195.605 58.237)" fill="#ef760e"/>
  <line id="Line_12" data-name="Line 12" x2="28.251" transform="translate(240.386 65.299)" fill="none" stroke="#3f3d56" stroke-miterlimit="10" stroke-width="1"/>
  <line id="Line_13" data-name="Line 13" x1="26.183" y1="43.711" transform="translate(169.208 21.588)" fill="none" stroke="#3f3d56" stroke-miterlimit="10" stroke-width="1"/>
  <ellipse id="Ellipse_47" data-name="Ellipse 47" cx="207.139" cy="46.135" rx="207.139" ry="46.135" transform="translate(118.163 290.092)" fill="#f2f2f2"/>
  <path id="Path_205" data-name="Path 205" d="M865.255,391.611l-20.2,101.2h-4.372l-.481-.748-1.393-2.167L856.3,395.359l2.655-1.112Z" transform="translate(-443.923 -207.252)" fill="#47465a"/>
  <path id="Path_206" data-name="Path 206" d="M858.956,397.21,840.2,495.029l-1.393-2.167L856.3,398.322Z" transform="translate(-443.923 -210.215)" opacity="0.1"/>
  <path id="Path_207" data-name="Path 207" d="M918.305,533.676l-5.193,1.674-1.262.408-1.666-3.748L881.6,401.638l2.971-.666,6.243-1.4Z" transform="translate(-466.571 -211.465)" fill="#47465a"/>
  <path id="Path_208" data-name="Path 208" d="M913.112,536.923l-1.262.408-1.666-3.748L881.6,403.211l2.971-.666Z" transform="translate(-466.571 -213.039)" opacity="0.1"/>
  <path id="Path_209" data-name="Path 209" d="M420.526,391.611,415.945,522.8l-5.25,1.166-.372.083-1.458-2.707L411.78,392.86l2.8-.4Z" transform="translate(-216.383 -207.252)" fill="#47465a"/>
  <path id="Path_210" data-name="Path 210" d="M414.585,393.415l-3.89,131.5-.372.083-1.458-2.707,2.915-128.481Z" transform="translate(-216.383 -208.207)" opacity="0.1"/>
  <path id="Path_211" data-name="Path 211" d="M453.19,571.81l-5.431.937-.608.1-1.666-3.54L419.039,397.934l.762-.231,4.027-1.226Z" transform="translate(-221.768 -209.827)" fill="#47465a"/>
  <path id="Path_212" data-name="Path 212" d="M447.759,574.126l-.608.1-1.666-3.54L419.039,399.312l.762-.231Z" transform="translate(-221.768 -211.205)" opacity="0.1"/>
  <path id="Path_213" data-name="Path 213" d="M770.246,404.99l20.22,25.837a6.557,6.557,0,0,0,5.926,2.471l83.005-9.721a6.557,6.557,0,0,0,5.794-6.512V397.91Z" transform="translate(-423.879 -231.251)" fill="#7a799c"/>
  <path id="Path_214" data-name="Path 214" d="M880.388,377.9h5.622v8.114a2.089,2.089,0,0,1-2.089,2.089h-1.444a2.089,2.089,0,0,1-2.089-2.089V377.9Z" transform="translate(-465.927 -199.995)" fill="#47465a"/>
  <path id="Path_215" data-name="Path 215" d="M453.539,439.933l20.22,25.837a6.557,6.557,0,0,0,5.926,2.471l83.005-9.721a6.557,6.557,0,0,0,5.794-6.513V432.853Z" transform="translate(-256.268 -249.744)" fill="#7a799c"/>
  <path id="Path_216" data-name="Path 216" d="M563.68,412.842H569.3v8.114a2.089,2.089,0,0,1-2.089,2.089h-1.444a2.089,2.089,0,0,1-2.089-2.089v-8.114Z" transform="translate(-298.316 -218.488)" fill="#47465a"/>
  <path id="Path_217" data-name="Path 217" d="M449.69,404.56l246.9-28.76a3.631,3.631,0,0,0,1.213-6.849L653.637,346.74a51.119,51.119,0,0,0-28.153-5.187L406.132,363.92a4.2,4.2,0,0,0-2.57,7.106l25.544,26.207a24.8,24.8,0,0,0,20.584,7.327Z" transform="translate(-229.188 -201.286)" fill="#47465a"/>
  <path id="Path_218" data-name="Path 218" d="M1075.7,404.677l-2.641-1.46s-2.851,2.1-5.174,10.941,4.341.1,4.341.1l2.915-6.039Z" transform="translate(-581.139 -234.06)" fill="#47465a"/>
  <path id="Path_219" data-name="Path 219" d="M904.421,551.118s-2.707,12.7-3.957,16.242c-.612,1.733-3.569,3.317-6.847,4.529a45.839,45.839,0,0,1-8.979,2.343c-3.54.416-48.935-6.664-71.008-11.453-14.87-3.226-16.792-6.926-16.463-9a3,3,0,0,1,.846-1.624s21.865-14.785,29.569-21.865,22.906-1.458,39.565,1.458S904.421,551.118,904.421,551.118Z" transform="translate(-438.109 -299.499)" fill="#47465a"/>
  <path id="Path_220" data-name="Path 220" d="M1033.769,403.217s10.2,6.664-24.155,20.407c0,0-18.675,10.53-16.244,53.9a11.9,11.9,0,0,0,1.729,5.509c3.545,5.831,11.141,20.59-1.519,22.423v3.332s22.906-11.453,25.4-21.24,10.828-64.136,14.993-69.134S1040.849,405.508,1033.769,403.217Z" transform="translate(-541.847 -234.06)" fill="#47465a"/>
  <path id="Path_221" data-name="Path 221" d="M893.616,602.148a45.844,45.844,0,0,1-8.979,2.343c-3.54.416-48.935-6.664-71.008-11.453-14.87-3.226-16.792-6.926-16.463-9,9.775,3.342,41.514,13.95,52.9,14.826,13.535,1.041,39.394,3.936,41.353,1.968C892.177,600.078,892.947,600.877,893.616,602.148Z" transform="translate(-438.108 -329.757)" opacity="0.1"/>
  <path id="Path_222" data-name="Path 222" d="M749.457,694.709l19.782-90.374s3.54-9.579,11.661-9.162l7.5,3.749s-12.494-2.915-15.2,6.663-19.99,89.125-19.99,89.125Z" transform="translate(-412.876 -335.641)" fill="#47465a"/>
  <path id="Path_223" data-name="Path 223" d="M815.808,613.108l7.913-55.182h3.54l-8.121,55.182Z" transform="translate(-431.75 -295.271)" fill="#47465a"/>
  <path id="Path_224" data-name="Path 224" d="M1002.893,709.16l-7.5-86.209s0-7.288,3.748-10.828,15.848-13.638,15.848-13.638,3.1-.73,5.6,6.35,19.782,77.88,19.782,77.88l-3.332,1.458-21.449-81.628L1000.809,616.5s-2.915,5.206-1.458,10,6.872,82.669,6.872,82.669Z" transform="translate(-543.035 -337.389)" fill="#47465a"/>
  <path id="Path_225" data-name="Path 225" d="M927.717,579.158l18.741,5.414,4.165-3.956-10.828-1.458Z" transform="translate(-490.975 -306.508)" fill="#47465a"/>
  <path id="Path_226" data-name="Path 226" d="M608.3,289.355l3.039,45.582,66.427-6.455-2.643-44.558a4.482,4.482,0,0,0-4.849-4.2L612.4,284.591A4.482,4.482,0,0,0,608.3,289.355Z" transform="translate(-338.167 -168.695)" fill="#7a799c"/>
  <path id="Path_227" data-name="Path 227" d="M669.678,351.959l-66.219,7.224-2.5.273-19.366-12.494v-2.707l65.8-5.926Z" transform="translate(-307.797 -179.053)" fill="#7a799c"/>
  <path id="Path_228" data-name="Path 228" d="M603.459,366.163l-2.5.273-19.366-12.494v-2.424Z" transform="translate(-307.797 -186.034)" opacity="0.1"/>
  <path id="Path_229" data-name="Path 229" d="M583.364,250.457l2.291,40.606,58.306-5.414-2.083-39.565Z" transform="translate(-308.734 -130.235)" fill="#9493b6"/>
  <path id="Path_230" data-name="Path 230" d="M657.233,363.406l7.08,4.79,21.448-2.083-7.288-4.581Z" transform="translate(-347.827 -191.333)" opacity="0.1"/>
  <path id="Path_231" data-name="Path 231" d="M595.749,347.041,604.7,353.7l57.265-5.414-10.2-6.664Z" transform="translate(-315.288 -180.799)" fill="#9493b6"/>
  <rect id="Rectangle_31" data-name="Rectangle 31" width="42.272" height="42.272" transform="translate(382.08 104.709)" fill="#ff6584"/>
  <rect id="Rectangle_32" data-name="Rectangle 32" width="42.272" height="42.272" transform="translate(382.08 104.709)" opacity="0.1"/>
  <path id="Path_232" data-name="Path 232" d="M876.072,299.113s5.963,16.15,0,19.132,21.368,0,21.368,0l7.7-6.212s-17.393-4.969-14.908-16.4S876.072,299.113,876.072,299.113Z" transform="translate(-479.435 -174.842)" fill="#fbbebe"/>
  <path id="Path_233" data-name="Path 233" d="M876.072,299.113s5.963,16.15,0,19.132,21.368,0,21.368,0l7.7-6.212s-17.393-4.969-14.908-16.4S876.072,299.113,876.072,299.113Z" transform="translate(-479.435 -174.842)" opacity="0.1"/>
  <path id="Path_234" data-name="Path 234" d="M773.056,648.472s22.362,31.555,18.635,40.251-1.739,14.163-9.193,17.144-9.442,8.448-2.982,8.2,14.908-1.988,16.15-4.224,4.224-12.92,8.448-14.411,12.175-7.206,6.46-14.163-20.114-32.582-19-35.174S773.056,648.472,773.056,648.472Z" transform="translate(-425.366 -362.201)" fill="#fbbebe"/>
  <path id="Path_235" data-name="Path 235" d="M803.008,519.512s-46.214,2.982-58.141,14.163,10.436,52.923,12.92,53.42,21.865-1.491,21.12-6.957-13.914-27.828-13.914-27.828,17.144-6.212,26.586-7.7,19.877-8.448,19.877-8.448Z" transform="translate(-408.606 -295.607)" fill="#9493b6"/>
  <path id="Path_236" data-name="Path 236" d="M827.417,503.617s.745,27.58,7.7,28.573,0-21.119,0-21.119l-.248-8.448Z" transform="translate(-454.135 -286.668)" fill="#fbbebe"/>
  <path id="Path_237" data-name="Path 237" d="M846.3,350.379s-12.92-3.727-15.4,6.212-3.23,44.227-3.23,44.227L823.2,428.149s8.2-2.485,9.939-1.242l10.435-13.169Z" transform="translate(-451.901 -205.734)" fill="#ef760e"/>
  <path id="Path_238" data-name="Path 238" d="M846.3,350.379s-12.92-3.727-15.4,6.212-3.23,44.227-3.23,44.227L823.2,428.149s8.2-2.485,9.939-1.242l10.435-13.169Z" transform="translate(-451.901 -205.734)" opacity="0.1"/>
  <path id="Path_239" data-name="Path 239" d="M898.151,663.225s8.683,17.07,13.9,16.822,10.187-3.479,12.672,6.709-.5,7.454,2.485,13.417,3.479,16.4-2.236,18.883-10.932,2.733-11.181,0,4.969-2.733-.994-12.423-18.635-27.331-23.853-29.07S898.151,663.225,898.151,663.225Z" transform="translate(-486.095 -371.664)" fill="#fbbebe"/>
  <path id="Path_240" data-name="Path 240" d="M879.454,497.873s17.889,29.816,6.212,38.512S839.2,561.729,839.2,561.729s18.635,12.672,19.629,16.9-8.945,15.653-12.423,15.9-13.666-11.429-24.6-14.411-17.641-24.35-5.715-32.3,23.107-21.12,23.107-21.12l-3.477-19.129Z" transform="translate(-444.801 -284.155)" fill="#9493b6"/>
  <path id="Path_241" data-name="Path 241" d="M879.286,265.347c0,10.566-10.824,19.3-21.39,19.3a19.132,19.132,0,1,1,0-38.264C868.463,246.384,879.286,254.78,879.286,265.347Z" transform="translate(-460.141 -151.059)" fill="#fbbebe"/>
  <path id="Path_242" data-name="Path 242" d="M863.113,335.638s17.144-7.454,17.144-8.448,9.939,2.236,12.175,4.224,3.479,1.739,4.969,5.715-7.454,41-7.454,41,4.969,28.573,7.7,31.307-22.113,6.709-22.113,6.709-16.4,2.982-19.132,4.224-7.7,2.982-6.709,0,5.218-5.218-1.988-8.945c0,0,2.485-12.175,0-17.641s-13.914-25.343-4.721-39.754S856.4,334.4,856.4,334.4,859.634,337.129,863.113,335.638Z" transform="translate(-460.512 -193.726)" fill="#ef760e"/>
  <path id="Path_243" data-name="Path 243" d="M854.248,489.428s-19.38,8.6-25.219,9.391-23.48,5.268-13.79,9.243,24.35-1.988,24.35-1.988l20.623-8.7Z" transform="translate(-446.181 -279.685)" fill="#fbbebe"/>
  <path id="Path_244" data-name="Path 244" d="M913.692,343.213s7.157-3.462,9.144,8.713,8.945,50.687,0,56.4-29.567,14.908-29.567,14.908-12.175-8.2-6.46-11.181,19.38-11.429,21.368-14.411,4-36.262.518-41.728S913.692,343.213,913.692,343.213Z" transform="translate(-484.759 -202.063)" opacity="0.1"/>
  <path id="Path_245" data-name="Path 245" d="M915.775,337.424s9.939-.5,11.926,11.678,8.945,50.687,0,56.4-29.567,14.908-29.567,14.908-12.175-8.2-6.46-11.181,19.38-11.429,21.368-14.411-1.491-34.04-4.969-39.506S915.775,337.424,915.775,337.424Z" transform="translate(-487.334 -199.239)" fill="#ef760e"/>
  <path id="Path_246" data-name="Path 246" d="M844.735,218.343c-3.05.415-6.322,1.531-7.857,4.2a35.494,35.494,0,0,0-1.572,4.228c-1.6,3.838-5.474,6.13-8.273,9.2-3.648,4-5.46,10.04-3.309,15.011a61.414,61.414,0,0,0,3.212,5.4c2.863,5.1,3.016,11.235,3.1,17.087l.16,11.506a16.535,16.535,0,0,1-.485,5.225,5.6,5.6,0,0,1-3.386,3.774,8.775,8.775,0,0,0,10.219-3.49,8.968,8.968,0,0,1-2.741,7.956,17.786,17.786,0,0,0,10.782-8.4,32.554,32.554,0,0,0,4.023-13.335,17.482,17.482,0,0,0-.42-7.356,23.027,23.027,0,0,0-2.41-4.628c-2.338-3.839-4.443-7.921-5.2-12.352s0-9.292,2.88-12.745a11.513,11.513,0,0,1,9.093-4.169,10.123,10.123,0,0,1,8.44,5.167c.665,1.251,1.611,2.947,2.957,2.507a7.313,7.313,0,0,0,.729-.358c1.5-.684,3.208.665,3.87,2.176,2.089,4.767-1.76,9.972-2.157,15.161-.37,4.828,2.321,9.381,5.539,13a42.707,42.707,0,0,0,20.88,12.828,5.86,5.86,0,0,1-3.029-1.882,39.767,39.767,0,0,0,9.772-.819,67.357,67.357,0,0,1-9.935-8.554,22.591,22.591,0,0,1-5.86-11.542c-.845-5.814,1.321-12.11-1.155-17.438-2.263-4.871-7.877-7.593-9.927-12.557-2.082-5.043-3.432-9.424-8.946-11.619C857.713,219.137,851.236,217.458,844.735,218.343Z" transform="translate(-451.691 -136.092)" fill="#e53167"/>
</svg>
