<svg xmlns="http://www.w3.org/2000/svg" width="680.224" height="329.992" viewBox="0 0 680.224 329.992">
  <g id="Group_100" data-name="Group 100" transform="translate(-0.001)">
    <ellipse id="Ellipse_38" data-name="Ellipse 38" cx="30.495" cy="32.462" rx="30.495" ry="32.462" transform="translate(594.874 121.57)" fill="#f2f2f2"/>
    <ellipse id="Ellipse_39" data-name="Ellipse 39" cx="8.025" cy="8.543" rx="8.025" ry="8.543" transform="translate(617.344 145.49)" fill="#e6e6e6"/>
    <path id="Path_177" data-name="Path 177" d="M912.576,422.307c3.38,2.936,4.411,7.562,3.782,12.03a21.234,21.234,0,0,1-6.736,12.541c-4.02,3.8-8.923,6.374-13.654,9.005a98.37,98.37,0,0,0-12.5,8.077c-15.216,11.773-26.711,28.535-33.291,47.241-6.568,18.674-8.33,39.87-3.339,59.224,2.469,9.576,7.465,19.907,16.771,23.51,7.418,2.872,17.546,1.022,21.323-7.116,4.057-8.742-1.6-18.569-8.9-22.909-9.452-5.626-20.743-1.515-29.244,4.18-9.36,6.269-16.884,15.266-26.656,20.885a32,32,0,0,1-14.32,4.447,33.885,33.885,0,0,1-13.57-2.232,46.486,46.486,0,0,1-22.2-18.342c-6.207-9.6-8.985-21.378-9.492-32.911-1.134-25.8,8.442-49.945,16.125-73.875a237.606,237.606,0,0,0,9.244-38.322,211.176,211.176,0,0,0,2.043-39.628c-.508-11.715-1.594-23.966-6.451-34.665-4.271-9.408-12.077-17.109-21.946-19.05a20.68,20.68,0,0,0-13.193,1.613c-1.408.684-.186,2.893,1.215,2.213,8.734-4.241,19.056-.115,25.507,6.733,7.533,8,10.3,19.805,11.527,30.7a204.62,204.62,0,0,1-6.395,76.878c-6.7,24.22-17.235,47.43-19.666,72.805-1.109,11.579-.54,23.55,2.938,34.653a54.383,54.383,0,0,0,16.113,25.257c7.1,6.107,15.825,10.267,25.015,10.73,10.316.52,19.362-4.375,27.365-10.887,8.572-6.975,16.458-15.581,26.842-19.492,4.734-1.783,10.125-2.615,14.986-.9a19.078,19.078,0,0,1,9.993,8.553c2.111,3.736,2.89,8.408.963,12.422a12.524,12.524,0,0,1-9.173,6.7,16.875,16.875,0,0,1-11.816-2.137c-4.192-2.549-7.26-6.826-9.409-11.346-4.286-9.012-5.726-19.74-5.944-29.743a104.475,104.475,0,0,1,3.49-28.92,103.143,103.143,0,0,1,28.962-49.145A85.555,85.555,0,0,1,890.1,462.3c4.318-2.833,8.926-5.1,13.328-7.769,4.331-2.63,8.6-5.772,11.582-10.1a22.683,22.683,0,0,0,3.922-12.772,14.746,14.746,0,0,0-4.658-11.167c-1.191-1.034-2.9.769-1.7,1.812Z" transform="translate(-288.673 -268.093)" fill="#ccc"/>
    <path id="Path_178" data-name="Path 178" d="M598.2,612.166a67.153,67.153,0,0,0,35.688,11.908,18.291,18.291,0,0,1-.762,1.674,21.038,21.038,0,0,1-6.1,7.3,19.022,19.022,0,0,1-20.764,1.489,21.539,21.539,0,0,1-10.807-18.933v-3.443Z" transform="translate(-258.991 -308.637)" fill="#3f3d56"/>
    <path id="Path_179" data-name="Path 179" d="M682.692,613.346v2.435c0,9.751-6.207,18.262-15.083,20.67s-18.156-1.9-22.538-10.462a18.33,18.33,0,0,1-.795-1.717c.586.017,1.164.026,1.75.026A67.043,67.043,0,0,0,682.692,613.346Z" transform="translate(-268.632 -308.81)" fill="#3f3d56"/>
    <path id="Path_180" data-name="Path 180" d="M725.338,311.933c-.6-.094-1.212-.154-1.822-.2a76.035,76.035,0,0,1,1.34,53.571c.61-.077,1.212-.179,1.814-.3,12.137-2.5,20.793-13.983,20.463-27.139s-9.55-24.127-21.8-25.937Z" transform="translate(-284.281 -264.854)" fill="#3f3d56"/>
    <path id="Path_181" data-name="Path 181" d="M563.582,311.736c-.61.043-1.22.1-1.822.2-12.245,1.81-21.465,12.781-21.8,25.937s8.326,24.635,20.463,27.139c.6.12,1.2.222,1.814.3a76.035,76.035,0,0,1,1.34-53.571Z" transform="translate(-248.03 -264.854)" fill="#3f3d56"/>
    <path id="Path_182" data-name="Path 182" d="M693.134,304.27c-13.7-34.83-49.966-52.935-83.881-41.873s-54.428,47.691-47.441,84.71,39.2,62.371,74.494,58.633,62.183-35.35,62.18-73.109A77.692,77.692,0,0,0,693.134,304.27Zm-.482,53.374c-12.168,34.819-47.294,53.99-80.955,44.184s-54.723-45.344-48.541-81.906,37.562-62.053,72.323-58.749,61.4,34.309,61.4,71.459A76.007,76.007,0,0,1,692.652,357.645Z" transform="translate(-252.078 -257.192)" fill="#3f3d56"/>
    <path id="Path_183" data-name="Path 183" d="M669.621,325.666H599c-7.756,0-14.044,6.693-14.044,14.95s6.288,14.95,14.044,14.95h70.621c7.756,0,14.044-6.693,14.044-14.95S677.377,325.666,669.621,325.666Z" transform="translate(-256.917 -266.884)" fill="#3f3d56"/>
    <path id="Path_184" data-name="Path 184" d="M628.69,448.166c-39.241.018-71.289,33.385-72.174,75.146s29.716,76.634,68.916,78.536c.763.043,1.533.068,2.3.068.321.017.634.017.955.017,39.889,0,72.226-34.422,72.226-76.884s-32.337-76.884-72.226-76.884Zm36.667,141.107a67.042,67.042,0,0,1-36.667,10.952c-.586,0-1.164-.008-1.75-.026q-.373,0-.746-.026c-35.054-1.3-63.908-29.769-67.776-66.878s18.421-71.622,52.355-81.067,69.241,9.036,82.932,43.411,1.622,74.238-28.349,93.634Z" transform="translate(-251.297 -284.737)" fill="#3f3d56"/>
    <path id="Path_185" data-name="Path 185" d="M699.814,512.987H668.249a8.845,8.845,0,0,1,0-17.655h31.566a8.845,8.845,0,0,1,0,17.655Z" transform="translate(-271.729 -291.611)" fill="#3f3d56"/>
    <ellipse id="Ellipse_40" data-name="Ellipse 40" cx="4.209" cy="4.48" rx="4.209" ry="4.48" transform="translate(394.416 208.069)" fill="#f2f2f2"/>
    <ellipse id="Ellipse_41" data-name="Ellipse 41" cx="4.209" cy="4.48" rx="4.209" ry="4.48" transform="translate(408.094 208.069)" fill="#f2f2f2"/>
    <ellipse id="Ellipse_42" data-name="Ellipse 42" cx="4.209" cy="4.48" rx="4.209" ry="4.48" transform="translate(421.773 208.069)" fill="#6c63ff"/>
    <path id="Path_186" data-name="Path 186" d="M308.3,618.962c7.217-6.491,11.6-16.746,10.451-26.728s-8.27-19.16-17.505-21.28-19.764,3.748-22.569,13.352c-1.544-18.516-3.323-37.807-12.571-53.575-8.374-14.277-22.877-24.493-38.6-26.321a46.464,46.464,0,0,0-42.07,18.281c-9.8,13.206-12.2,32.406-5.337,47.567,5.058,11.169,14.376,19.482,24.139,26.244,31.147,21.575,69.786,28.864,106.551,23.1Z" transform="translate(-176.19 -292.891)" fill="#f2f2f2"/>
    <path id="Path_187" data-name="Path 187" d="M206.449,510.783a263.578,263.578,0,0,1,35.522,37.548,276.891,276.891,0,0,1,28.014,44.134,282.424,282.424,0,0,1,12,27.038c.72,1.879-2.146,2.7-2.859.839A275.688,275.688,0,0,0,256,573.781,268.587,268.587,0,0,0,225,533.008a260.513,260.513,0,0,0-20.645-19.993c-1.48-1.283.628-3.5,2.1-2.232Z" transform="translate(-181.652 -293.807)" fill="#fff"/>
    <ellipse id="Ellipse_43" data-name="Ellipse 43" cx="24.878" cy="26.482" rx="24.878" ry="26.482" transform="translate(104.789 3.417)" fill="#2f2e41"/>
    <path id="Path_188" data-name="Path 188" d="M436.316,399.85a9.035,9.035,0,0,1-1.724,2.027,8.452,8.452,0,0,1-6.96,2.038,8.805,8.805,0,0,1-6.062-4.171,8.9,8.9,0,0,1-.431-.8l-39.2-4.026a14.837,14.837,0,0,1-12.749-12.387l-2.225-12.487,15.3-2.534,2.745,10,38.222,9.994a8.43,8.43,0,0,1,12.031.522,9.859,9.859,0,0,1,1.057,11.823Z" transform="translate(-213.865 -272.982)" fill="#ffb8b8"/>
    <path id="Path_189" data-name="Path 189" d="M383.764,371.524l-17.09,4.914a3.6,3.6,0,0,1-4.428-2.709l-5.986-23.588a10.766,10.766,0,0,1,6.02-12.642,9.7,9.7,0,0,1,12.441,5.05l11.316,23.51a4.068,4.068,0,0,1,.088,3.309A3.685,3.685,0,0,1,383.764,371.524Z" transform="translate(-211.684 -268.505)" fill="#ef760e"/>
    <path id="Path_190" data-name="Path 190" d="M202.091,367.241h9.838l4.681-40.4H202.089Z" transform="translate(-39.91 -47.633)" fill="#ffb8b8"/>
    <path id="Path_191" data-name="Path 191" d="M0,0H30.921V12.717H11.947C5.349,12.717,0,7.024,0,0H0Z" transform="translate(190.992 329.333) rotate(179.997)" fill="#2f2e41"/>
    <path id="Path_192" data-name="Path 192" d="M92.822,355.738l9.2,3.7,17.785-36.031-13.585-5.46Z" transform="translate(-18.331 -46.336)" fill="#ffb8b8"/>
    <path id="Path_193" data-name="Path 193" d="M0,0,31.17.659l.255,12.621-19.127-.4C5.647,12.735.141,6.971,0,0H0Z" transform="translate(98.217 329.332) rotate(-159.315)" fill="#2f2e41"/>
    <path id="Path_194" data-name="Path 194" d="M356.7,588.348a3.639,3.639,0,0,1-3.431-2.66L328.18,503.2a1.22,1.22,0,0,0-1.069-.884,1.2,1.2,0,0,0-1.166.733L291.168,581.81a3.539,3.539,0,0,1-4.41,2.012l-13.7-4.861a3.9,3.9,0,0,1-2.35-4.628l21.3-85.894a207.075,207.075,0,0,0,4.818-27.7,64.3,64.3,0,0,1,19.033-40.045,29.859,29.859,0,0,0,8.64-17.481l.057-.43,31.2,5.243,19.761,171.646a3.862,3.862,0,0,1-2.646,4.179l-15.227,4.364a3.389,3.389,0,0,1-.943.133Z" transform="translate(-194.834 -278.123)" fill="#2f2e41"/>
    <ellipse id="Ellipse_44" data-name="Ellipse 44" cx="19.71" cy="20.982" rx="19.71" ry="20.982" transform="translate(119.839 14.292)" fill="#ffb8b8"/>
    <path id="Path_195" data-name="Path 195" d="M364.742,401.133c-.062,0-.123,0-.186,0l-30.925-1.646a3.7,3.7,0,0,1-3.412-3.447l-4.225-43.848a20.444,20.444,0,0,1,6.527-17.166,17.747,17.747,0,0,1,17.006-3.908h0a17.669,17.669,0,0,1,6.617,3.624c21.755,19.018,14.74,53.475,12.072,63.583a3.64,3.64,0,0,1-3.474,2.814Z" transform="translate(-205.756 -267.57)" fill="#ef760e"/>
    <path id="Path_196" data-name="Path 196" d="M333.9,434.367a8.17,8.17,0,0,1-2.542-.406,9.021,9.021,0,0,1-5.448-5.04,9.954,9.954,0,0,1-.1-7.682,9,9,0,0,1,.388-.826l-18.566-36.974a16.131,16.131,0,0,1,2.626-18.161l8.534-8.889,10.456,12.156-6.3,7.974L336.3,415.93a8.078,8.078,0,0,1,1.115.411,9.553,9.553,0,0,1,5.141,10.54,8.981,8.981,0,0,1-8.661,7.486Z" transform="translate(-201.817 -271.362)" fill="#ffb8b8"/>
    <path id="Path_197" data-name="Path 197" d="M325.674,373.155l-13.31-12.424a4.024,4.024,0,0,1-.334-5.425l15.133-18.371a9.528,9.528,0,0,1,13.222-1.668,11.023,11.023,0,0,1,2.942,13.823l-12.121,23.051a3.627,3.627,0,0,1-2.539,1.911,3.461,3.461,0,0,1-2.993-.9Z" transform="translate(-202.84 -268.001)" fill="#ef760e"/>
    <path id="Path_198" data-name="Path 198" d="M330.8,313.265c1.8.679,4,1.277,5.418-.131,1.382-1.374,1.13-3.888.316-5.739s-2.076-3.5-2.463-5.515A8.766,8.766,0,0,1,337,294.108a21.178,21.178,0,0,1,7.139-3.824l13.8-5.221c3.415-1.292,7.1-2.811,9.007-6.212,2.765-4.921.237-11.955-4.3-14.827s-10.266-2.337-15.16-.317c-2.707,1.117-5.282,2.656-8.081,3.442-5.525,1.551-11.806.16-16.661,3.476-4.226,2.886-6.186,8.776-6.044,14.287s2.048,10.759,4.059,15.8a29.918,29.918,0,0,0,4.5,8.416c2.026,2.385,4.954,4.053,7.878,3.614Z" transform="translate(-203.938 -257.61)" fill="#2f2e41"/>
    <ellipse id="Ellipse_45" data-name="Ellipse 45" cx="16.05" cy="17.085" rx="16.05" ry="17.085" transform="translate(92.751)" fill="#2f2e41"/>
    <path id="Path_22" data-name="Path 22" d="M466.422,389.529l-.285-.042,1.073-8.306a4.809,4.809,0,0,0-3.9-5.468l-16.531-2.419a4.617,4.617,0,0,0-5.137,4.146l-5.884,45.567a4.809,4.809,0,0,0,3.9,5.468l16.531,2.419a4.617,4.617,0,0,0,5.137-4.147l4.048-31.349.285.042Z" transform="translate(-227.444 -273.819)" fill="#3f3d56"/>
    <path id="Path_23" data-name="Path 23" d="M463.273,378.585l-2.058-.3a1.72,1.72,0,0,1-.343,1.5,1.492,1.492,0,0,1-1.361.534L450.476,379a1.553,1.553,0,0,1-1.175-.9,1.736,1.736,0,0,1,.05-1.543l-1.922-.281a3.289,3.289,0,0,0-3.659,2.954l-5.6,43.4a3.426,3.426,0,0,0,2.775,3.9l15.844,2.318a3.289,3.289,0,0,0,3.659-2.954h0l5.6-43.4a3.426,3.426,0,0,0-2.775-3.895Z" transform="translate(-227.921 -274.254)" fill="#fff"/>
    <ellipse id="Ellipse_46" data-name="Ellipse 46" cx="8.828" cy="9.397" rx="8.828" ry="9.397" transform="translate(215.286 121.57)" fill="#ef760e"/>
    <path id="Path_199" data-name="Path 199" d="M453.629,413.143a.879.879,0,0,1-.551-.195l-.01-.008-2.075-1.691a1.024,1.024,0,0,1-.171-1.375.885.885,0,0,1,1.292-.182l1.344,1.1,3.175-4.408a.885.885,0,0,1,1.292-.182l-.02.029.02-.028a1.025,1.025,0,0,1,.171,1.376l-3.735,5.185a.9.9,0,0,1-.733.383Z" transform="translate(-230.39 -278.591)" fill="#fff"/>
    <path id="Path_200" data-name="Path 200" d="M856.633,642.8H183.091a1.019,1.019,0,0,1,0-2.034H856.633a1.019,1.019,0,0,1,0,2.034Z" transform="translate(-177.364 -312.805)" fill="#ccc"/>
  </g>
</svg>
