<svg xmlns="http://www.w3.org/2000/svg" width="714.965" height="586.948" viewBox="0 0 714.965 586.948">
  <g id="Group_104" data-name="Group 104" transform="translate(-0.001)">
    <path id="Path_255" data-name="Path 255" d="M749.548,629.951a35.036,35.036,0,0,0,33.832-5.96c11.85-9.946,15.565-26.332,18.588-41.5l8.941-44.877L792.191,550.5c-13.462,9.27-27.228,18.836-36.549,32.263s-13.39,31.755-5.9,46.283" transform="translate(-226.233 -146.745)" fill="#6c63ff"/>
    <path id="Path_256" data-name="Path 256" d="M750.913,678.559c-1.895-13.8-3.843-27.78-2.514-41.729,1.18-12.388,4.96-24.488,12.654-34.409a57.243,57.243,0,0,1,14.686-13.308c1.469-.927,2.82,1.4,1.358,2.323a54.418,54.418,0,0,0-21.525,25.971c-4.686,11.919-5.439,24.913-4.631,37.574.488,7.657,1.523,15.264,2.566,22.861a1.394,1.394,0,0,1-.94,1.655,1.354,1.354,0,0,1-1.655-.94Z" transform="translate(-225.998 -141.019)" fill="#f2f2f2"/>
    <path id="Path_257" data-name="Path 257" d="M767.034,650.389a25.79,25.79,0,0,0,22.472,11.6c11.376-.54,20.859-8.479,29.4-16.017l25.251-22.295-16.712-.8c-12.018-.575-24.346-1.112-35.793,2.595s-22,12.626-24.1,24.474" transform="translate(-223.869 -137.272)" fill="#6c63ff"/>
    <path id="Path_258" data-name="Path 258" d="M745.818,680.872c9.12-16.136,19.7-34.07,38.6-39.8a43.071,43.071,0,0,1,16.235-1.676c1.724.149,1.293,2.806-.427,2.657a40.014,40.014,0,0,0-25.908,6.854c-7.305,4.972-12.993,11.885-17.807,19.216-2.949,4.49-5.59,9.171-8.232,13.846-.844,1.494-3.312.416-2.458-1.1Z" transform="translate(-226.257 -135.4)" fill="#f2f2f2"/>
    <path id="Path_259" data-name="Path 259" d="M555.753,592.991a69.05,69.05,0,0,1-66.679-11.746c-23.355-19.6-30.677-51.9-36.635-81.8Q443.628,455.223,434.816,411l36.894,25.4c26.532,18.269,53.662,37.123,72.033,63.585s26.39,62.585,11.629,91.218" transform="translate(-260.958 -160.88)" fill="#ef760e"/>
    <path id="Path_260" data-name="Path 260" d="M546.077,688.79c3.734-27.2,7.574-54.75,4.955-82.241-2.326-24.416-9.775-48.263-24.94-67.815a112.812,112.812,0,0,0-28.944-26.228c-2.894-1.827-5.558,2.76-2.676,4.579a107.248,107.248,0,0,1,42.422,51.186c9.236,23.491,10.719,49.1,9.128,74.054-.963,15.091-3,30.083-5.058,45.056a2.748,2.748,0,0,0,1.852,3.262,2.668,2.668,0,0,0,3.262-1.852Z" transform="translate(-254.437 -149.595)" fill="#f2f2f2"/>
    <path id="Path_261" data-name="Path 261" d="M523.679,633.272a50.83,50.83,0,0,1-44.289,22.859c-22.42-1.064-41.111-16.712-57.936-31.567l-49.766-43.94,32.937-1.576c23.686-1.134,47.983-2.191,70.544,5.114s43.367,24.883,47.492,48.235" transform="translate(-268.006 -142.209)" fill="#ef760e"/>
    <path id="Path_262" data-name="Path 262" d="M561.334,693.351c-17.973-31.8-38.821-67.147-76.071-78.444a84.888,84.888,0,0,0-32-3.3c-3.4.293-2.549,5.529.842,5.237a78.863,78.863,0,0,1,51.062,13.509c14.4,9.8,25.608,23.425,35.1,37.873,5.812,8.85,11.018,18.075,16.224,27.289,1.664,2.944,6.528.819,4.844-2.16Z" transform="translate(-259.14 -138.521)" fill="#f2f2f2"/>
    <path id="Path_263" data-name="Path 263" d="M441.889,301.1,287.14,268.682l-2.011-.42a5.561,5.561,0,0,0-6.118,7.936l62.1,124.251a5.579,5.579,0,0,0,4.162,3.009,5.523,5.523,0,0,0,4.858-1.7l42.355-45.194a3.236,3.236,0,0,1,2.371-1.052,3.347,3.347,0,0,1,2.989,1.714l8.826,16.1a5.432,5.432,0,0,0,6.1,2.751l.043-.01a5.439,5.439,0,0,0,4.279-5.192l1.527-37.285a3.4,3.4,0,0,1,.333-1.341,3.617,3.617,0,0,1,.87-1.087l24.469-20.33a5.564,5.564,0,0,0-2.406-9.724Zm.992,8.017-24.468,20.33a5.487,5.487,0,0,0-.86.88L286.88,272a1.94,1.94,0,0,0-.359-.124,2.226,2.226,0,0,0-1.832,3.974l107.62,78.075a5.33,5.33,0,0,0-1.445,1.115l-42.354,45.194a3.335,3.335,0,0,1-5.412-.787L281,275.2a3.344,3.344,0,0,1,3.672-4.757l2.059.432,154.7,32.41a3.342,3.342,0,0,1,1.454,5.837Z" transform="translate(-278.419 -176.829)" fill="#ccc"/>
    <path id="Path_264" data-name="Path 264" d="M441.889,301.1,287.14,268.682l-2.011-.42a5.561,5.561,0,0,0-6.118,7.936l62.1,124.251a5.579,5.579,0,0,0,4.162,3.009,5.523,5.523,0,0,0,4.858-1.7l42.355-45.194a3.236,3.236,0,0,1,2.371-1.052,3.347,3.347,0,0,1,2.989,1.714l8.826,16.1a5.432,5.432,0,0,0,6.1,2.751l.043-.01a5.439,5.439,0,0,0,4.279-5.192l1.527-37.285a3.4,3.4,0,0,1,.333-1.341,3.617,3.617,0,0,1,.87-1.087l24.469-20.33a5.564,5.564,0,0,0-2.406-9.724Zm.992,8.017-24.469,20.33a5.485,5.485,0,0,0-.86.88,5.174,5.174,0,0,0-.586.932,5.332,5.332,0,0,0-.4,1.059l0,.011a5.261,5.261,0,0,0-.168,1.167l-1.527,37.285a3.229,3.229,0,0,1-2.564,3.114l-.022,0a3.236,3.236,0,0,1-3.668-1.639l-8.828-16.107a5.547,5.547,0,0,0-4.575-2.87l-.011,0c-.127-.005-.253-.011-.378-.005a5.41,5.41,0,0,0-2.522.642,5.331,5.331,0,0,0-1.445,1.115l-42.354,45.194a3.335,3.335,0,0,1-5.412-.787L281,275.2a3.344,3.344,0,0,1,3.672-4.757l2.059.432,154.7,32.41a3.342,3.342,0,0,1,1.454,5.837Z" transform="translate(-278.419 -176.829)" fill="#3f3d56"/>
    <path id="Path_265" data-name="Path 265" d="M417.511,330.181l-.906,2.03-.569-.247,0-.011L285.465,273.681l109.209,79.241.011,0,.289.219-1.3,1.8-1.9-1.381L284.154,275.484a2.226,2.226,0,0,1,1.832-3.974,1.937,1.937,0,0,1,.359.123l130.672,58.329Z" transform="translate(-277.883 -176.461)" fill="#3f3d56"/>
    <path id="Path_266" data-name="Path 266" d="M706.259,464.02l5.647,55.215.111,1.134,1.678,16.374,13.784,134.82v.022l2.679,26.157a31.21,31.21,0,0,0-2.768,4.458,32.108,32.108,0,0,0,.934,30.737q10.088-2.535,19.9-5.781a299.744,299.744,0,0,0,39.485-16.186,32.141,32.141,0,0,0-10.794-18.731L763.074,525.95l-1.212-14.585-3.946-47.345Z" transform="translate(-230.654 -154.961)" fill="#ffb8b8"/>
    <circle id="Ellipse_48" data-name="Ellipse 48" cx="73.088" cy="73.088" r="73.088" transform="translate(360.147 106.991) rotate(-45)" fill="#ffb8b8"/>
    <path id="Path_267" data-name="Path 267" d="M572.886,574.457c.011.145.023.289.034.422A13.413,13.413,0,0,0,583.4,586.841l109.074,23.822a13.51,13.51,0,0,0,2.88.311,13.37,13.37,0,0,0,12.884-9.816c.234-.867.489-1.756.767-2.679v-.011c3.68-12.495,10.25-29.5,19.643-50.88q3.185-7.253,6.814-15.2c.445-.978.9-1.968,1.346-2.957q7.486-16.258,16.708-35.195a87.605,87.605,0,0,0,6.77-19.376,88.586,88.586,0,0,0-4.48-52.948,87.468,87.468,0,0,0-4.836-9.949,88.994,88.994,0,0,0-70.411-44.81c-2.3-.189-4.591-.278-6.892-.278a89.484,89.484,0,0,0-61.685,25.034,87.343,87.343,0,0,0-21.688,33.994c-.289.812-.556,1.634-.822,2.457a330.779,330.779,0,0,0-9.872,39.708c-1.478,7.971-2.679,15.83-3.646,23.489a484.626,484.626,0,0,0-3.069,82.9Z" transform="translate(-245.608 -165.806)" fill="#3480e3"/>
    <path id="Path_268" data-name="Path 268" d="M529.618,694.261A295.74,295.74,0,0,0,748.045,723.92q10.088-2.535,19.9-5.781A497.34,497.34,0,0,0,747.2,662.568v-.022c-13.363-29.959-25.634-48.29-31.615-56.382a10.4,10.4,0,0,1-1.479-9.438l1.857-5.569a13.363,13.363,0,0,0-2.19-12.539v-.011c-.122-.156-.256-.311-.389-.467-48.59-55.36-133.3-25.156-134.153-24.845l-.423.156-.266.367c-.289.4-.578.789-.856,1.2C554.72,587.2,539.457,636.667,529.618,694.261Z" transform="translate(-250.374 -145.943)" fill="#2f2e41"/>
    <path id="Path_269" data-name="Path 269" d="M445.964,361.04a31.322,31.322,0,0,1,.712,4.881l127.831,73.745,31.071-17.887L638.7,465.142l-51.928,37.011a23.806,23.806,0,0,1-28.562-.7L426.4,397.467a31.237,31.237,0,1,1,19.568-36.427Z" transform="translate(-266.596 -169.149)" fill="#ffb8b8"/>
    <path id="Path_270" data-name="Path 270" d="M557.217,433.94v.011a13.342,13.342,0,0,0,2.312,4.613l21.81,28.258,10.394,13.484,9.116,11.806a13.388,13.388,0,0,0,20.243,1.112l33.1-34.372,13.662-14.2a37.19,37.19,0,0,0-45.6-58.762l-8.537,4.769L563.6,418.7a13.418,13.418,0,0,0-6.381,15.241Z" transform="translate(-247.346 -164.555)" fill="#3480e3"/>
    <path id="Path_271" data-name="Path 271" d="M687.291,448.679l2.09,66.754.011.422a13.387,13.387,0,0,0,15.763,12.762l9.049-1.634,2.312-.422h.011l7.515-1.356,40.008-7.226,7.659-1.378a13.4,13.4,0,0,0,10.3-17.464l-21.577-63.886a37.184,37.184,0,1,0-73.146,13.429Z" transform="translate(-232.84 -161.575)" fill="#3480e3"/>
    <path id="Path_272" data-name="Path 272" d="M692.627,276.181c-18.785,12.857-43.45,26.073-62.637,12.381-12.6-8.99-16.567-25.637-11.458-40.247,9.187-26.272,34.428-37.838,58.564-46.7,31.378-11.525,65.543-20.694,97.935-12.44s61.02,39.616,55.172,72.528c-4.7,26.467-29.668,48.49-26.124,75.137,3.567,26.818,33.727,40.934,60.353,45.727s56.422,6.333,75.557,25.458c24.411,24.4,18.315,68.006-4.655,93.765S877.7,539.222,844.117,547.16c-44.5,10.517-92.633,16.044-134.9-1.41s-75.155-64.438-62.911-108.5c5.172-18.61,17.354-34.338,29.128-49.649s23.7-31.323,28.188-50.108c3.743-15.655.973-33.83-9.409-45.573a13.2,13.2,0,0,1-1.769-15.434Z" transform="translate(-240.69 -186)" fill="#2f2e41"/>
  </g>
</svg>
